<?xml version="1.0" encoding="UTF-8" standalone="no"?>
<svg width="551px" height="551px" viewBox="0 0 551 551" version="1.1" xmlns="http://www.w3.org/2000/svg" xmlns:xlink="http://www.w3.org/1999/xlink" xmlns:sketch="http://www.bohemiancoding.com/sketch/ns" preserveAspectRatio="xMidYMid meet">
    <!-- Generator: Sketch 3.4.2 (15855) - http://www.bohemiancoding.com/sketch -->
    <title>link-rot-healthy-2</title>
    <desc>Created with Sketch.</desc>
    <defs></defs>
    <g id="Page-1" stroke="none" stroke-width="1" fill="none" fill-rule="evenodd" sketch:type="MSPage">
        <g id="link-rot-healthy-2" sketch:type="MSArtboardGroup">
            <circle id="Oval-1-Copy-64" fill="#1D59E7" sketch:type="MSShapeGroup" cx="247" cy="519" r="6"></circle>
            <circle id="Oval-1-Copy-65" fill="#1D59E7" sketch:type="MSShapeGroup" cx="267" cy="510" r="6"></circle>
            <circle id="Oval-1-Copy-66" fill="#1D59E7" sketch:type="MSShapeGroup" cx="286" cy="498" r="6"></circle>
            <circle id="Oval-1-Copy-67" fill="#1D59E7" sketch:type="MSShapeGroup" cx="303" cy="484" r="6"></circle>
            <circle id="Oval-1-Copy-68" fill="#1D59E7" sketch:type="MSShapeGroup" cx="317" cy="469" r="6"></circle>
            <circle id="Oval-1-Copy-69" fill="#1D59E7" sketch:type="MSShapeGroup" cx="329" cy="451" r="6"></circle>
            <circle id="Oval-1-Copy-70" fill="#1D59E7" sketch:type="MSShapeGroup" cx="338" cy="432" r="6"></circle>
            <circle id="Oval-1-Copy-71" fill="#1D59E7" sketch:type="MSShapeGroup" cx="343" cy="412" r="6"></circle>
            <circle id="Oval-1-Copy-72" fill="#1D59E7" sketch:type="MSShapeGroup" cx="345" cy="390" r="6"></circle>
            <circle id="Oval-1-Copy-73" fill="#1D59E7" sketch:type="MSShapeGroup" cx="341" cy="366" r="6"></circle>
            <circle id="Oval-1-Copy-74" fill="#1D59E7" sketch:type="MSShapeGroup" cx="331" cy="340" r="6"></circle>
            <circle id="Oval-1-Copy-75" fill="#0AFCFA" sketch:type="MSShapeGroup" cx="310" cy="328" r="6"></circle>
            <circle id="Oval-1-Copy-76" fill="#97C1FF" sketch:type="MSShapeGroup" cx="333" cy="319" r="6"></circle>
            <circle id="Oval-1-Copy-77" fill="#1D59E7" sketch:type="MSShapeGroup" cx="327" cy="298" r="6"></circle>
            <circle id="Oval-1-Copy-78" fill="#1D59E7" sketch:type="MSShapeGroup" cx="306" cy="306" r="6"></circle>
            <circle id="Oval-1-Copy-79" fill="#1D59E7" sketch:type="MSShapeGroup" cx="287" cy="326" r="6"></circle>
            <circle id="Oval-1-Copy-80" fill="#1D59E7" sketch:type="MSShapeGroup" cx="302" cy="347" r="6"></circle>
            <circle id="Oval-1-Copy-81" fill="#1D59E7" sketch:type="MSShapeGroup" cx="321" cy="360" r="6"></circle>
            <circle id="Oval-1-Copy-82" fill="#1D59E7" sketch:type="MSShapeGroup" cx="324" cy="386" r="6"></circle>
            <circle id="Oval-1-Copy-83" fill="#1D59E7" sketch:type="MSShapeGroup" cx="321" cy="409" r="6"></circle>
            <circle id="Oval-1-Copy-84" fill="#1D59E7" sketch:type="MSShapeGroup" cx="314" cy="429" r="6"></circle>
            <circle id="Oval-1-Copy-85" fill="#1D59E7" sketch:type="MSShapeGroup" cx="304" cy="448" r="6"></circle>
            <circle id="Oval-1-Copy-86" fill="#1D59E7" sketch:type="MSShapeGroup" cx="290" cy="464" r="6"></circle>
            <circle id="Oval-1-Copy-87" fill="#1D59E7" sketch:type="MSShapeGroup" cx="275" cy="478" r="6"></circle>
            <circle id="Oval-1-Copy-88" fill="#1D59E7" sketch:type="MSShapeGroup" cx="257" cy="490" r="6"></circle>
            <circle id="Oval-1-Copy-89" fill="#1D59E7" sketch:type="MSShapeGroup" cx="238" cy="500" r="6"></circle>
            <circle id="Oval-1-Copy-90" fill="#1D59E7" sketch:type="MSShapeGroup" cx="216" cy="507" r="6"></circle>
            <circle id="Oval-1-Copy-91" fill="#1D59E7" sketch:type="MSShapeGroup" cx="193" cy="511" r="6"></circle>
            <circle id="Oval-1-Copy-93" fill="#1D59E7" sketch:type="MSShapeGroup" transform="translate(367.058871, 410.206012) rotate(-33.000000) translate(-367.058871, -410.206012) " cx="367.058871" cy="410.206012" r="6"></circle>
            <circle id="Oval-1-Copy-76" fill="#1D59E7" sketch:type="MSShapeGroup" transform="translate(341.152910, 280.459290) rotate(-33.000000) translate(-341.152910, -280.459290) " cx="341.15291" cy="280.45929" r="6"></circle>
            <circle id="Oval-1-Copy-77" fill="#97C1FF" sketch:type="MSShapeGroup" transform="translate(323.683466, 269.115043) rotate(-33.000000) translate(-323.683466, -269.115043) " cx="323.683466" cy="269.115043" r="6"></circle>
            <circle id="Oval-1-Copy-78" fill="#1D59E7" sketch:type="MSShapeGroup" transform="translate(307.428497, 282.261827) rotate(-33.000000) translate(-307.428497, -282.261827) " cx="307.428497" cy="282.261827" r="6"></circle>
            <circle id="Oval-1-Copy-79" fill="#1D59E7" sketch:type="MSShapeGroup" transform="translate(286.386537, 298.383380) rotate(-33.000000) translate(-286.386537, -298.383380) " cx="286.386537" cy="298.38338" r="6"></circle>
            <circle id="Oval-1-Copy-64" fill="#1D59E7" sketch:type="MSShapeGroup" transform="translate(381.955048, 494.032361) rotate(-33.000000) translate(-381.955048, -494.032361) " cx="381.955048" cy="494.032361" r="6"></circle>
            <circle id="Oval-1-Copy-65" fill="#1D59E7" sketch:type="MSShapeGroup" transform="translate(393.826708, 475.591545) rotate(-33.000000) translate(-393.826708, -475.591545) " cx="393.826708" cy="475.591545" r="6"></circle>
            <circle id="Oval-1-Copy-66" fill="#1D59E7" sketch:type="MSShapeGroup" transform="translate(403.225780, 455.179357) rotate(-33.000000) translate(-403.225780, -455.179357) " cx="403.22578" cy="455.179357" r="6"></circle>
            <circle id="Oval-1-Copy-67" fill="#97C1FF" sketch:type="MSShapeGroup" transform="translate(409.858233, 434.179105) rotate(-33.000000) translate(-409.858233, -434.179105) " cx="409.858233" cy="434.179105" r="6"></circle>
            <circle id="Oval-1-Copy-68" fill="#1D59E7" sketch:type="MSShapeGroup" transform="translate(413.430036, 413.974100) rotate(-33.000000) translate(-413.430036, -413.974100) " cx="413.430036" cy="413.9741" r="6"></circle>
            <circle id="Oval-1-Copy-69" fill="#1D59E7" sketch:type="MSShapeGroup" transform="translate(413.690580, 393.342361) rotate(-33.000000) translate(-413.690580, -393.342361) " cx="413.69058" cy="393.342361" r="6"></circle>
            <circle id="Oval-1-Copy-70" fill="#1D59E7" sketch:type="MSShapeGroup" transform="translate(410.890473, 372.505869) rotate(-33.000000) translate(-410.890473, -372.505869) " cx="410.890473" cy="372.505869" r="6"></circle>
            <circle id="Oval-1-Copy-71" fill="#1D59E7" sketch:type="MSShapeGroup" transform="translate(404.191046, 352.009263) rotate(-33.000000) translate(-404.191046, -352.009263) " cx="404.191046" cy="352.009263" r="6"></circle>
            <circle id="Oval-1-Copy-72" fill="#1D59E7" sketch:type="MSShapeGroup" transform="translate(392.886328, 333.469232) rotate(-33.000000) translate(-392.886328, -333.469232) " cx="392.886328" cy="333.469232" r="6"></circle>
            <circle id="Oval-1-Copy-73" fill="#1D59E7" sketch:type="MSShapeGroup" transform="translate(376.460309, 315.519695) rotate(-33.000000) translate(-376.460309, -315.519695) " cx="376.460309" cy="315.519695" r="6"></circle>
            <circle id="Oval-1-Copy-74" fill="#1D59E7" sketch:type="MSShapeGroup" transform="translate(351.912988, 298.160650) rotate(-33.000000) translate(-351.912988, -298.160650) " cx="351.912988" cy="298.16065" r="6"></circle>
            <circle id="Oval-1-Copy-75" fill="#0AFCFA" sketch:type="MSShapeGroup" transform="translate(362.058871, 367.206012) rotate(-33.000000) translate(-362.058871, -367.206012) " cx="362.058871" cy="367.206012" r="6"></circle>
            <circle id="Oval-1-Copy-92" fill="#1D59E7" sketch:type="MSShapeGroup" transform="translate(366.058871, 388.206012) rotate(-33.000000) translate(-366.058871, -388.206012) " cx="366.058871" cy="388.206012" r="6"></circle>
            <circle id="Oval-1-Copy-94" fill="#0AFCFA" sketch:type="MSShapeGroup" transform="translate(363.058871, 430.206012) rotate(-33.000000) translate(-363.058871, -430.206012) " cx="363.058871" cy="430.206012" r="6"></circle>
            <circle id="Oval-1-Copy-95" fill="#1D59E7" sketch:type="MSShapeGroup" transform="translate(356.058871, 450.206012) rotate(-33.000000) translate(-356.058871, -450.206012) " cx="356.058871" cy="450.206012" r="6"></circle>
            <circle id="Oval-1-Copy-96" fill="#1D59E7" sketch:type="MSShapeGroup" transform="translate(346.058871, 469.206012) rotate(-33.000000) translate(-346.058871, -469.206012) " cx="346.058871" cy="469.206012" r="6"></circle>
            <circle id="Oval-1-Copy-97" fill="#1D59E7" sketch:type="MSShapeGroup" transform="translate(332.058871, 486.206012) rotate(-33.000000) translate(-332.058871, -486.206012) " cx="332.058871" cy="486.206012" r="6"></circle>
            <circle id="Oval-1-Copy-98" fill="#1D59E7" sketch:type="MSShapeGroup" transform="translate(317.058871, 501.206012) rotate(-33.000000) translate(-317.058871, -501.206012) " cx="317.058871" cy="501.206012" r="6"></circle>
            <circle id="Oval-1-Copy-99" fill="#1D59E7" sketch:type="MSShapeGroup" transform="translate(299.058871, 515.206012) rotate(-33.000000) translate(-299.058871, -515.206012) " cx="299.058871" cy="515.206012" r="6"></circle>
            <circle id="Oval-1-Copy-80" fill="#1D59E7" sketch:type="MSShapeGroup" transform="translate(352.299858, 343.769090) rotate(-33.000000) translate(-352.299858, -343.769090) " cx="352.299858" cy="343.76909" r="6"></circle>
            <circle id="Oval-1-Copy-81" fill="#1D59E7" sketch:type="MSShapeGroup" transform="translate(356.419063, 320.380452) rotate(-33.000000) translate(-356.419063, -320.380452) " cx="356.419063" cy="320.380452" r="6"></circle>
            <circle id="Oval-1-Copy-82" fill="#1D59E7" sketch:type="MSShapeGroup" transform="translate(374.095690, 340.551970) rotate(-33.000000) translate(-374.095690, -340.551970) " cx="374.09569" cy="340.55197" r="6"></circle>
            <circle id="Oval-1-Copy-83" fill="#1D59E7" sketch:type="MSShapeGroup" transform="translate(384.106376, 361.475310) rotate(-33.000000) translate(-384.106376, -361.475310) " cx="384.106376" cy="361.47531" r="6"></circle>
            <circle id="Oval-1-Copy-84" fill="#97C1FF" sketch:type="MSShapeGroup" transform="translate(389.128463, 383.061195) rotate(-33.000000) translate(-389.128463, -383.061195) " cx="389.128463" cy="383.061195" r="6"></circle>
            <circle id="Oval-1-Copy-85" fill="#1D59E7" sketch:type="MSShapeGroup" transform="translate(391.089899, 403.442326) rotate(-33.000000) translate(-391.089899, -403.442326) " cx="391.089899" cy="403.442326" r="6"></circle>
            <circle id="Oval-1-Copy-86" fill="#1D59E7" sketch:type="MSShapeGroup" transform="translate(388.062735, 424.486001) rotate(-33.000000) translate(-388.062735, -424.486001) " cx="388.062735" cy="424.486001" r="6"></circle>
            <circle id="Oval-1-Copy-87" fill="#1D59E7" sketch:type="MSShapeGroup" transform="translate(383.107623, 444.396975) rotate(-33.000000) translate(-383.107623, -444.396975) " cx="383.107623" cy="444.396975" r="6"></circle>
            <circle id="Oval-1-Copy-88" fill="#1D59E7" sketch:type="MSShapeGroup" transform="translate(374.547221, 464.264524) rotate(-33.000000) translate(-374.547221, -464.264524) " cx="374.547221" cy="464.264524" r="6"></circle>
            <circle id="Oval-1-Copy-89" fill="#1D59E7" sketch:type="MSShapeGroup" transform="translate(364.058871, 482.999372) rotate(-33.000000) translate(-364.058871, -482.999372) " cx="364.058871" cy="482.999372" r="6"></circle>
            <circle id="Oval-1-Copy-90" fill="#1D59E7" sketch:type="MSShapeGroup" transform="translate(349.420592, 500.852124) rotate(-33.000000) translate(-349.420592, -500.852124) " cx="349.420592" cy="500.852124" r="6"></circle>
            <circle id="Oval-1-Copy-91" fill="#0AFCFA" sketch:type="MSShapeGroup" transform="translate(332.309725, 516.733504) rotate(-33.000000) translate(-332.309725, -516.733504) " cx="332.309725" cy="516.733504" r="6"></circle>
            <circle id="Oval-1-Copy-64" fill="#1D59E7" sketch:type="MSShapeGroup" transform="translate(480.607523, 401.395831) rotate(-66.000000) translate(-480.607523, -401.395831) " cx="480.607523" cy="401.395831" r="6"></circle>
            <circle id="Oval-1-Copy-65" fill="#97C1FF" sketch:type="MSShapeGroup" transform="translate(480.520347, 380.464292) rotate(-66.000000) translate(-480.520347, -380.464292) " cx="480.520347" cy="380.464292" r="6"></circle>
            <circle id="Oval-1-Copy-66" fill="#1D59E7" sketch:type="MSShapeGroup" transform="translate(478.285798, 358.226088) rotate(-66.000000) translate(-478.285798, -358.226088) " cx="478.285798" cy="358.226088" r="6"></circle>
            <circle id="Oval-1-Copy-67" fill="#0AFCFA" sketch:type="MSShapeGroup" transform="translate(472.410684, 338.001502) rotate(-66.000000) translate(-472.410684, -338.001502) " cx="472.410684" cy="338.001502" r="6"></circle>
            <circle id="Oval-1-Copy-68" fill="#1D59E7" sketch:type="MSShapeGroup" transform="translate(464.401815, 318.110816) rotate(-66.000000) translate(-464.401815, -318.110816) " cx="464.401815" cy="318.110816" r="6"></circle>
            <circle id="Oval-1-Copy-69" fill="#1D59E7" sketch:type="MSShapeGroup" transform="translate(453.383476, 300.665682) rotate(-66.000000) translate(-453.383476, -300.665682) " cx="453.383476" cy="300.665682" r="6"></circle>
            <circle id="Oval-1-Copy-70" fill="#1D59E7" sketch:type="MSShapeGroup" transform="translate(438.686742, 284.715777) rotate(-66.000000) translate(-438.686742, -284.715777) " cx="438.686742" cy="284.715777" r="6"></circle>
            <circle id="Oval-1-Copy-71" fill="#1D59E7" sketch:type="MSShapeGroup" cx="421.904877" cy="272.174646" r="6"></circle>
            <circle id="Oval-1-Copy-72" fill="#1D59E7" sketch:type="MSShapeGroup" transform="translate(402.326319, 261.782658) rotate(-66.000000) translate(-402.326319, -261.782658) " cx="402.326319" cy="261.782658" r="6"></circle>
            <circle id="Oval-1-Copy-73" fill="#1D59E7" sketch:type="MSShapeGroup" transform="translate(377.774281, 255.675161) rotate(-66.000000) translate(-377.774281, -255.675161) " cx="377.774281" cy="255.675161" r="6"></circle>
            <circle id="Oval-1-Copy-74" fill="#1D59E7" sketch:type="MSShapeGroup" transform="translate(347.732753, 255.486070) rotate(-66.000000) translate(-347.732753, -255.486070) " cx="347.732753" cy="255.48607" r="6"></circle>
            <circle id="Oval-1-Copy-75" fill="#1D59E7" sketch:type="MSShapeGroup" transform="translate(394.846605, 305.866539) rotate(-66.000000) translate(-394.846605, -305.866539) " cx="394.846605" cy="305.866539" r="6"></circle>
            <path d="M409.638707,327.300065 C412.952415,327.300065 415.638707,324.613773 415.638707,321.300065 C415.638707,317.986356 412.952415,315.300065 409.638707,315.300065 C406.324999,315.300065 403.638707,317.986356 403.638707,321.300065 C403.638707,324.613773 406.324999,327.300065 409.638707,327.300065 Z" id="Oval-1-Copy-92" fill="#0AFCFA" sketch:type="MSShapeGroup" transform="translate(409.638707, 321.300065) rotate(-66.000000) translate(-409.638707, -321.300065) "></path>
            <path d="M422.638707,345.300065 C425.952415,345.300065 428.638707,342.613773 428.638707,339.300065 C428.638707,335.986356 425.952415,333.300065 422.638707,333.300065 C419.324999,333.300065 416.638707,335.986356 416.638707,339.300065 C416.638707,342.613773 419.324999,345.300065 422.638707,345.300065 Z" id="Oval-1-Copy-100" fill="#1D59E7" sketch:type="MSShapeGroup" transform="translate(422.638707, 339.300065) rotate(-66.000000) translate(-422.638707, -339.300065) "></path>
            <circle id="Oval-1-Copy-94" fill="#1D59E7" sketch:type="MSShapeGroup" transform="translate(429.997535, 358.158145) rotate(-66.000000) translate(-429.997535, -358.158145) " cx="429.997535" cy="358.158145" r="6"></circle>
            <circle id="Oval-1-Copy-95" fill="#0AFCFA" sketch:type="MSShapeGroup" transform="translate(435.019621, 378.744030) rotate(-66.000000) translate(-435.019621, -378.744030) " cx="435.019621" cy="378.74403" r="6"></circle>
            <circle id="Oval-1-Copy-96" fill="#1D59E7" sketch:type="MSShapeGroup" transform="translate(436.981057, 400.125161) rotate(-66.000000) translate(-436.981057, -400.125161) " cx="436.981057" cy="400.125161" r="6"></circle>
            <circle id="Oval-1-Copy-97" fill="#1D59E7" sketch:type="MSShapeGroup" transform="translate(434.498533, 422.007507) rotate(-66.000000) translate(-434.498533, -422.007507) " cx="434.498533" cy="422.007507" r="6"></circle>
            <circle id="Oval-1-Copy-98" fill="#1D59E7" sketch:type="MSShapeGroup" transform="translate(430.088060, 442.757151) rotate(-66.000000) translate(-430.088060, -442.757151) " cx="430.08806" cy="442.757151" r="6"></circle>
            <circle id="Oval-1-Copy-99" fill="#1D59E7" sketch:type="MSShapeGroup" transform="translate(422.616936, 464.302042) rotate(-66.000000) translate(-422.616936, -464.302042) " cx="422.616936" cy="464.302042" r="6"></circle>
            <circle id="Oval-1-Copy-80" fill="#1D59E7" sketch:type="MSShapeGroup" transform="translate(373.897345, 291.525822) rotate(-66.000000) translate(-373.897345, -291.525822) " cx="373.897345" cy="291.525822" r="6"></circle>
            <circle id="Oval-1-Copy-81" fill="#0AFCFA" sketch:type="MSShapeGroup" cx="362.613637" cy="270.666979" r="6"></circle>
            <circle id="Oval-1-Copy-82" fill="#1D59E7" sketch:type="MSShapeGroup" transform="translate(389.424699, 277.956857) rotate(-66.000000) translate(-389.424699, -277.956857) " cx="389.424699" cy="277.956857" r="6"></circle>
            <circle id="Oval-1-Copy-83" fill="#1D59E7" sketch:type="MSShapeGroup" transform="translate(410.216035, 290.052436) rotate(-66.000000) translate(-410.216035, -290.052436) " cx="410.216035" cy="290.052436" r="6"></circle>
            <circle id="Oval-1-Copy-84" fill="#1D59E7" sketch:type="MSShapeGroup" transform="translate(426.184426, 304.420658) rotate(-66.000000) translate(-426.184426, -304.420658) " cx="426.184426" cy="304.420658" r="6"></circle>
            <circle id="Oval-1-Copy-85" fill="#1D59E7" sketch:type="MSShapeGroup" cx="438.929784" cy="321.445438" r="6"></circle>
            <circle id="Oval-1-Copy-86" fill="#1D59E7" sketch:type="MSShapeGroup" transform="translate(447.852199, 339.742860) rotate(-66.000000) translate(-447.852199, -339.742860) " cx="447.852199" cy="339.74286" r="6"></circle>
            <circle id="Oval-1-Copy-87" fill="#1D59E7" sketch:type="MSShapeGroup" transform="translate(454.540786, 360.140355) rotate(-66.000000) translate(-454.540786, -360.140355) " cx="454.540786" cy="360.140355" r="6"></circle>
            <circle id="Oval-1-Copy-88" fill="#1D59E7" sketch:type="MSShapeGroup" transform="translate(458.182071, 380.465013) rotate(-66.000000) translate(-458.182071, -380.465013) " cx="458.182071" cy="380.465013" r="6"></circle>
            <circle id="Oval-1-Copy-89" fill="#1D59E7" sketch:type="MSShapeGroup" transform="translate(459.589530, 401.889743) rotate(-66.000000) translate(-459.589530, -401.889743) " cx="459.58953" cy="401.889743" r="6"></circle>
            <circle id="Oval-1-Copy-90" fill="#1D59E7" sketch:type="MSShapeGroup" transform="translate(457.036142, 424.834900) rotate(-66.000000) translate(-457.036142, -424.834900) " cx="457.036142" cy="424.8349" r="6"></circle>
            <circle id="Oval-1-Copy-91" fill="#0AFCFA" sketch:type="MSShapeGroup" transform="translate(451.335381, 447.473392) rotate(-66.000000) translate(-451.335381, -447.473392) " cx="451.335381" cy="447.473392" r="6"></circle>
            <circle id="Oval-1-Copy-65" fill="#97C1FF" sketch:type="MSShapeGroup" transform="translate(515.938041, 273.538398) rotate(-90.000000) translate(-515.938041, -273.538398) " cx="515.938041" cy="273.538398" r="6"></circle>
            <circle id="Oval-1-Copy-66" fill="#1D59E7" sketch:type="MSShapeGroup" transform="translate(503.938041, 254.538398) rotate(-90.000000) translate(-503.938041, -254.538398) " cx="503.938041" cy="254.538398" r="6"></circle>
            <circle id="Oval-1-Copy-67" fill="#1D59E7" sketch:type="MSShapeGroup" transform="translate(489.938041, 237.538398) rotate(-90.000000) translate(-489.938041, -237.538398) " cx="489.938041" cy="237.538398" r="6"></circle>
            <circle id="Oval-1-Copy-68" fill="#0AFCFA" sketch:type="MSShapeGroup" transform="translate(473.938041, 222.538398) rotate(-90.000000) translate(-473.938041, -222.538398) " cx="473.938041" cy="222.538398" r="6"></circle>
            <circle id="Oval-1-Copy-69" fill="#1D59E7" sketch:type="MSShapeGroup" transform="translate(455.776712, 211.083037) rotate(-90.000000) translate(-455.776712, -211.083037) " cx="455.776712" cy="211.083037" r="6"></circle>
            <circle id="Oval-1-Copy-70" fill="#1D59E7" sketch:type="MSShapeGroup" transform="translate(437.776712, 203.083037) rotate(-90.000000) translate(-437.776712, -203.083037) " cx="437.776712" cy="203.083037" r="6"></circle>
            <circle id="Oval-1-Copy-71" fill="#1D59E7" sketch:type="MSShapeGroup" transform="translate(416.938041, 197.538398) rotate(-90.000000) translate(-416.938041, -197.538398) " cx="416.938041" cy="197.538398" r="6"></circle>
            <circle id="Oval-1-Copy-72" fill="#1D59E7" sketch:type="MSShapeGroup" transform="translate(395.232072, 195.921708) rotate(-90.000000) translate(-395.232072, -195.921708) " cx="395.232072" cy="195.921708" r="6"></circle>
            <circle id="Oval-1-Copy-73" fill="#0AFCFA" sketch:type="MSShapeGroup" transform="translate(372.232072, 198.921708) rotate(-90.000000) translate(-372.232072, -198.921708) " cx="372.232072" cy="198.921708" r="6"></circle>
            <circle id="Oval-1-Copy-74" fill="#1D59E7" sketch:type="MSShapeGroup" transform="translate(349.304124, 206.054410) rotate(-90.000000) translate(-349.304124, -206.054410) " cx="349.304124" cy="206.05441" r="6"></circle>
            <circle id="Oval-1-Copy-101" fill="#1D59E7" sketch:type="MSShapeGroup" transform="translate(370.304124, 218.054410) rotate(-90.000000) translate(-370.304124, -218.054410) " cx="370.304124" cy="218.05441" r="6"></circle>
            <circle id="Oval-1-Copy-102" fill="#1D59E7" sketch:type="MSShapeGroup" transform="translate(343.304124, 227.054410) rotate(-90.000000) translate(-343.304124, -227.054410) " cx="343.304124" cy="227.05441" r="6"></circle>
            <circle id="Oval-1-Copy-103" fill="#1D59E7" sketch:type="MSShapeGroup" transform="translate(329.304124, 247.054410) rotate(-90.000000) translate(-329.304124, -247.054410) " cx="329.304124" cy="247.05441" r="6"></circle>
            <circle id="Oval-1-Copy-104" fill="#1D59E7" sketch:type="MSShapeGroup" transform="translate(322.304124, 224.054410) rotate(-90.000000) translate(-322.304124, -224.054410) " cx="322.304124" cy="224.05441" r="6"></circle>
            <circle id="Oval-1-Copy-105" fill="#1D59E7" sketch:type="MSShapeGroup" transform="translate(326.304124, 201.054410) rotate(-90.000000) translate(-326.304124, -201.054410) " cx="326.304124" cy="201.05441" r="6"></circle>
            <circle id="Oval-1-Copy-75" fill="#1D59E7" sketch:type="MSShapeGroup" transform="translate(411.736280, 243.150155) rotate(-90.000000) translate(-411.736280, -243.150155) " cx="411.73628" cy="243.150155" r="6"></circle>
            <path d="M431.526918,256.232893 C434.840627,256.232893 437.526918,253.546601 437.526918,250.232893 C437.526918,246.919184 434.840627,244.232893 431.526918,244.232893 C428.21321,244.232893 425.526918,246.919184 425.526918,250.232893 C425.526918,253.546601 428.21321,256.232893 431.526918,256.232893 Z" id="Oval-1-Copy-92" fill="#0AFCFA" sketch:type="MSShapeGroup" transform="translate(431.526918, 250.232893) rotate(-90.000000) translate(-431.526918, -250.232893) "></path>
            <path d="M448.724269,268.389135 C452.037977,268.389135 454.724269,265.702843 454.724269,262.389135 C454.724269,259.075426 452.037977,256.389135 448.724269,256.389135 C445.41056,256.389135 442.724269,259.075426 442.724269,262.389135 C442.724269,265.702843 445.41056,268.389135 448.724269,268.389135 Z" id="Oval-1-Copy-100" fill="#1D59E7" sketch:type="MSShapeGroup" transform="translate(448.724269, 262.389135) rotate(-90.000000) translate(-448.724269, -262.389135) "></path>
            <circle id="Oval-1-Copy-94" fill="#1D59E7" sketch:type="MSShapeGroup" transform="translate(464.117165, 277.623744) rotate(-90.000000) translate(-464.117165, -277.623744) " cx="464.117165" cy="277.623744" r="6"></circle>
            <circle id="Oval-1-Copy-95" fill="#1D59E7" sketch:type="MSShapeGroup" transform="translate(477.078103, 294.387219) rotate(-90.000000) translate(-477.078103, -294.387219) " cx="477.078103" cy="294.387219" r="6"></circle>
            <circle id="Oval-1-Copy-96" fill="#1D59E7" sketch:type="MSShapeGroup" transform="translate(487.180596, 313.000000) rotate(-90.000000) translate(-487.180596, -313.000000) " cx="487.180596" cy="313" r="6"></circle>
            <circle id="Oval-1-Copy-97" fill="#1D59E7" sketch:type="MSShapeGroup" transform="translate(495.198907, 334.122318) rotate(-90.000000) translate(-495.198907, -334.122318) " cx="495.198907" cy="334.122318" r="6"></circle>
            <circle id="Oval-1-Copy-98" fill="#1D59E7" sketch:type="MSShapeGroup" transform="translate(500.609380, 354.871962) rotate(-90.000000) translate(-500.609380, -354.871962) " cx="500.60938" cy="354.871962" r="6"></circle>
            <circle id="Oval-1-Copy-99" fill="#1D59E7" sketch:type="MSShapeGroup" transform="translate(502.547265, 377.592978) rotate(-90.000000) translate(-502.547265, -377.592978) " cx="502.547265" cy="377.592978" r="6"></circle>
            <circle id="Oval-1-Copy-80" fill="#1D59E7" sketch:type="MSShapeGroup" transform="translate(388.765284, 237.570090) rotate(-90.000000) translate(-388.765284, -237.570090) " cx="388.765284" cy="237.57009" r="6"></circle>
            <circle id="Oval-1-Copy-81" fill="#1D59E7" sketch:type="MSShapeGroup" transform="translate(362.393402, 238.377069) rotate(-90.000000) translate(-362.393402, -238.377069) " cx="362.393402" cy="238.377069" r="6"></circle>
            <circle id="Oval-1-Copy-82" fill="#1D59E7" sketch:type="MSShapeGroup" transform="translate(394.938041, 217.538398) rotate(-90.000000) translate(-394.938041, -217.538398) " cx="394.938041" cy="217.538398" r="6"></circle>
            <circle id="Oval-1-Copy-83" fill="#1D59E7" sketch:type="MSShapeGroup" transform="translate(415.938041, 220.538398) rotate(-90.000000) translate(-415.938041, -220.538398) " cx="415.938041" cy="220.538398" r="6"></circle>
            <circle id="Oval-1-Copy-84" fill="#1D59E7" sketch:type="MSShapeGroup" transform="translate(436.776712, 228.083037) rotate(-90.000000) translate(-436.776712, -228.083037) " cx="436.776712" cy="228.083037" r="6"></circle>
            <circle id="Oval-1-Copy-85" fill="#1D59E7" sketch:type="MSShapeGroup" transform="translate(453.938041, 237.538398) rotate(-90.000000) translate(-453.938041, -237.538398) " cx="453.938041" cy="237.538398" r="6"></circle>
            <circle id="Oval-1-Copy-86" fill="#1D59E7" sketch:type="MSShapeGroup" transform="translate(470.938041, 250.538398) rotate(-90.000000) translate(-470.938041, -250.538398) " cx="470.938041" cy="250.538398" r="6"></circle>
            <circle id="Oval-1-Copy-87" fill="#1D59E7" sketch:type="MSShapeGroup" transform="translate(485.938041, 266.538398) rotate(-90.000000) translate(-485.938041, -266.538398) " cx="485.938041" cy="266.538398" r="6"></circle>
            <circle id="Oval-1-Copy-88" fill="#1D59E7" sketch:type="MSShapeGroup" transform="translate(497.938041, 284.538398) rotate(-90.000000) translate(-497.938041, -284.538398) " cx="497.938041" cy="284.538398" r="6"></circle>
            <circle id="Oval-1-Copy-89" fill="#1D59E7" sketch:type="MSShapeGroup" transform="translate(507.938041, 304.538398) rotate(-90.000000) translate(-507.938041, -304.538398) " cx="507.938041" cy="304.538398" r="6"></circle>
            <circle id="Oval-1-Copy-90" fill="#0AFCFA" sketch:type="MSShapeGroup" transform="translate(515.938041, 325.538398) rotate(-90.000000) translate(-515.938041, -325.538398) " cx="515.938041" cy="325.538398" r="6"></circle>
            <circle id="Oval-1-Copy-65" fill="#1D59E7" sketch:type="MSShapeGroup" transform="translate(476.180596, 144.629472) rotate(-123.000000) translate(-476.180596, -144.629472) " cx="476.180596" cy="144.629472" r="6"></circle>
            <circle id="Oval-1-Copy-66" fill="#1D59E7" sketch:type="MSShapeGroup" transform="translate(455.768407, 136.230399) rotate(-123.000000) translate(-455.768407, -136.230399) " cx="455.768407" cy="136.230399" r="6"></circle>
            <circle id="Oval-1-Copy-67" fill="#1D59E7" sketch:type="MSShapeGroup" transform="translate(434.768156, 129.597946) rotate(-123.000000) translate(-434.768156, -129.597946) " cx="434.768156" cy="129.597946" r="6"></circle>
            <circle id="Oval-1-Copy-68" fill="#1D59E7" sketch:type="MSShapeGroup" transform="translate(413.563151, 126.026144) rotate(-123.000000) translate(-413.563151, -126.026144) " cx="413.563151" cy="126.026144" r="6"></circle>
            <circle id="Oval-1-Copy-69" fill="#1D59E7" sketch:type="MSShapeGroup" transform="translate(391.931412, 125.765599) rotate(-123.000000) translate(-391.931412, -125.765599) " cx="391.931412" cy="125.765599" r="6"></circle>
            <circle id="Oval-1-Copy-70" fill="#0AFCFA" sketch:type="MSShapeGroup" transform="translate(371.835187, 129.403581) rotate(-123.000000) translate(-371.835187, -129.403581) " cx="371.835187" cy="129.403581" r="6"></circle>
            <circle id="Oval-1-Copy-71" fill="#1D59E7" sketch:type="MSShapeGroup" transform="translate(351.598313, 135.265134) rotate(-123.000000) translate(-351.598313, -135.265134) " cx="351.598313" cy="135.265134" r="6"></circle>
            <circle id="Oval-1-Copy-72" fill="#1D59E7" sketch:type="MSShapeGroup" transform="translate(332.058283, 146.569852) rotate(-123.000000) translate(-332.058283, -146.569852) " cx="332.058283" cy="146.569852" r="6"></circle>
            <circle id="Oval-1-Copy-73" fill="#1D59E7" sketch:type="MSShapeGroup" transform="translate(316.108745, 160.995871) rotate(-123.000000) translate(-316.108745, -160.995871) " cx="316.108745" cy="160.995871" r="6"></circle>
            <circle id="Oval-1-Copy-74" fill="#1D59E7" sketch:type="MSShapeGroup" transform="translate(299.749701, 181.543191) rotate(-123.000000) translate(-299.749701, -181.543191) " cx="299.749701" cy="181.543191" r="6"></circle>
            <circle id="Oval-1-Copy-75" fill="#1D59E7" sketch:type="MSShapeGroup" transform="translate(370.795062, 176.397308) rotate(-123.000000) translate(-370.795062, -176.397308) " cx="370.795062" cy="176.397308" r="6"></circle>
            <path d="M392.795062,178.397308 C396.108771,178.397308 398.795062,175.711017 398.795062,172.397308 C398.795062,169.0836 396.108771,166.397308 392.795062,166.397308 C389.481354,166.397308 386.795062,169.0836 386.795062,172.397308 C386.795062,175.711017 389.481354,178.397308 392.795062,178.397308 Z" id="Oval-1-Copy-92" fill="#1D59E7" sketch:type="MSShapeGroup" transform="translate(392.795062, 172.397308) rotate(-123.000000) translate(-392.795062, -172.397308) "></path>
            <path d="M413.97144,179.298094 C417.285149,179.298094 419.97144,176.611802 419.97144,173.298094 C419.97144,169.984385 417.285149,167.298094 413.97144,167.298094 C410.657732,167.298094 407.97144,169.984385 407.97144,173.298094 C407.97144,176.611802 410.657732,179.298094 413.97144,179.298094 Z" id="Oval-1-Copy-100" fill="#1D59E7" sketch:type="MSShapeGroup" transform="translate(413.971440, 173.298094) rotate(-123.000000) translate(-413.971440, -173.298094) "></path>
            <circle id="Oval-1-Copy-94" fill="#1D59E7" sketch:type="MSShapeGroup" transform="translate(433.795062, 176.397308) rotate(-123.000000) translate(-433.795062, -176.397308) " cx="433.795062" cy="176.397308" r="6"></circle>
            <circle id="Oval-1-Copy-95" fill="#1D59E7" sketch:type="MSShapeGroup" transform="translate(453.795062, 183.397308) rotate(-123.000000) translate(-453.795062, -183.397308) " cx="453.795062" cy="183.397308" r="6"></circle>
            <circle id="Oval-1-Copy-96" fill="#1D59E7" sketch:type="MSShapeGroup" transform="translate(472.795062, 194.397308) rotate(-123.000000) translate(-472.795062, -194.397308) " cx="472.795062" cy="194.397308" r="6"></circle>
            <circle id="Oval-1-Copy-97" fill="#1D59E7" sketch:type="MSShapeGroup" transform="translate(490.795062, 206.397308) rotate(-123.000000) translate(-490.795062, -206.397308) " cx="490.795062" cy="206.397308" r="6"></circle>
            <circle id="Oval-1-Copy-98" fill="#1D59E7" sketch:type="MSShapeGroup" transform="translate(505.795062, 221.397308) rotate(-123.000000) translate(-505.795062, -221.397308) " cx="505.795062" cy="221.397308" r="6"></circle>
            <circle id="Oval-1-Copy-99" fill="#1D59E7" sketch:type="MSShapeGroup" transform="translate(519.795062, 239.397308) rotate(-123.000000) translate(-519.795062, -239.397308) " cx="519.795062" cy="239.397308" r="6"></circle>
            <circle id="Oval-1-Copy-80" fill="#1D59E7" sketch:type="MSShapeGroup" transform="translate(348.358141, 186.156322) rotate(-123.000000) translate(-348.358141, -186.156322) " cx="348.358141" cy="186.156322" r="6"></circle>
            <circle id="Oval-1-Copy-81" fill="#1D59E7" sketch:type="MSShapeGroup" transform="translate(322.969503, 181.037116) rotate(-123.000000) translate(-322.969503, -181.037116) " cx="322.969503" cy="181.037116" r="6"></circle>
            <circle id="Oval-1-Copy-82" fill="#1D59E7" sketch:type="MSShapeGroup" transform="translate(344.141020, 165.360490) rotate(-123.000000) translate(-344.141020, -165.360490) " cx="344.14102" cy="165.36049" r="6"></circle>
            <circle id="Oval-1-Copy-83" fill="#1D59E7" sketch:type="MSShapeGroup" transform="translate(363.064361, 155.349804) rotate(-123.000000) translate(-363.064361, -155.349804) " cx="363.064361" cy="155.349804" r="6"></circle>
            <circle id="Oval-1-Copy-84" fill="#1D59E7" sketch:type="MSShapeGroup" transform="translate(383.650245, 150.327717) rotate(-123.000000) translate(-383.650245, -150.327717) " cx="383.650245" cy="150.327717" r="6"></circle>
            <circle id="Oval-1-Copy-85" fill="#1D59E7" sketch:type="MSShapeGroup" transform="translate(405.031376, 149.366281) rotate(-123.000000) translate(-405.031376, -149.366281) " cx="405.031376" cy="149.366281" r="6"></circle>
            <circle id="Oval-1-Copy-86" fill="#1D59E7" sketch:type="MSShapeGroup" transform="translate(426.075052, 151.393444) rotate(-123.000000) translate(-426.075052, -151.393444) " cx="426.075052" cy="151.393444" r="6"></circle>
            <circle id="Oval-1-Copy-87" fill="#1D59E7" sketch:type="MSShapeGroup" transform="translate(446.986025, 156.348556) rotate(-123.000000) translate(-446.986025, -156.348556) " cx="446.986025" cy="156.348556" r="6"></circle>
            <circle id="Oval-1-Copy-88" fill="#1D59E7" sketch:type="MSShapeGroup" transform="translate(465.853575, 164.908958) rotate(-123.000000) translate(-465.853575, -164.908958) " cx="465.853575" cy="164.908958" r="6"></circle>
            <circle id="Oval-1-Copy-89" fill="#1D59E7" sketch:type="MSShapeGroup" transform="translate(485.588422, 175.397308) rotate(-123.000000) translate(-485.588422, -175.397308) " cx="485.588422" cy="175.397308" r="6"></circle>
            <circle id="Oval-1-Copy-90" fill="#1D59E7" sketch:type="MSShapeGroup" transform="translate(503.441175, 189.035588) rotate(-123.000000) translate(-503.441175, -189.035588) " cx="503.441175" cy="189.035588" r="6"></circle>
            <circle id="Oval-1-Copy-64" fill="#1D59E7" sketch:type="MSShapeGroup" transform="translate(396.764651, 58.667560) rotate(-156.000000) translate(-396.764651, -58.667560) " cx="396.764651" cy="58.6675601" r="6"></circle>
            <circle id="Oval-1-Copy-65" fill="#1D59E7" sketch:type="MSShapeGroup" transform="translate(374.833112, 58.754736) rotate(-156.000000) translate(-374.833112, -58.754736) " cx="374.833112" cy="58.7547363" r="6"></circle>
            <circle id="Oval-1-Copy-66" fill="#97C1FF" sketch:type="MSShapeGroup" transform="translate(352.594908, 61.989286) rotate(-156.000000) translate(-352.594908, -61.989286) " cx="352.594908" cy="61.9892856" r="6"></circle>
            <circle id="Oval-1-Copy-67" fill="#1D59E7" sketch:type="MSShapeGroup" transform="translate(331.370323, 68.864399) rotate(-156.000000) translate(-331.370323, -68.864399) " cx="331.370323" cy="68.8643991" r="6"></circle>
            <circle id="Oval-1-Copy-68" fill="#1D59E7" sketch:type="MSShapeGroup" transform="translate(311.479637, 76.873268) rotate(-156.000000) translate(-311.479637, -76.873268) " cx="311.479637" cy="76.873268" r="6"></circle>
            <circle id="Oval-1-Copy-69" fill="#1D59E7" sketch:type="MSShapeGroup" transform="translate(294.034502, 88.891607) rotate(-156.000000) translate(-294.034502, -88.891607) " cx="294.034502" cy="88.8916074" r="6"></circle>
            <circle id="Oval-1-Copy-70" fill="#1D59E7" sketch:type="MSShapeGroup" transform="translate(278.084597, 102.588341) rotate(-156.000000) translate(-278.084597, -102.588341) " cx="278.084597" cy="102.588341" r="6"></circle>
            <circle id="Oval-1-Copy-71" fill="#1D59E7" sketch:type="MSShapeGroup" transform="translate(264.543466, 119.370206) rotate(-156.000000) translate(-264.543466, -119.370206) " cx="264.543466" cy="119.370206" r="6"></circle>
            <circle id="Oval-1-Copy-72" fill="#1D59E7" sketch:type="MSShapeGroup" transform="translate(255.151479, 137.948765) rotate(-156.000000) translate(-255.151479, -137.948765) " cx="255.151479" cy="137.948765" r="6"></circle>
            <circle id="Oval-1-Copy-73" fill="#1D59E7" sketch:type="MSShapeGroup" transform="translate(249.043981, 160.500802) rotate(-156.000000) translate(-249.043981, -160.500802) " cx="249.043981" cy="160.500802" r="6"></circle>
            <circle id="Oval-1-Copy-74" fill="#1D59E7" sketch:type="MSShapeGroup" transform="translate(246.854890, 187.542331) rotate(-156.000000) translate(-246.854890, -187.542331) " cx="246.85489" cy="187.542331" r="6"></circle>
            <circle id="Oval-1-Copy-75" fill="#1D59E7" sketch:type="MSShapeGroup" transform="translate(302.235359, 144.428478) rotate(-156.000000) translate(-302.235359, -144.428478) " cx="302.235359" cy="144.428478" r="6"></circle>
            <path d="M317.668885,134.636376 C320.982593,134.636376 323.668885,131.950085 323.668885,128.636376 C323.668885,125.322668 320.982593,122.636376 317.668885,122.636376 C314.355176,122.636376 311.668885,125.322668 311.668885,128.636376 C311.668885,131.950085 314.355176,134.636376 317.668885,134.636376 Z" id="Oval-1-Copy-92" fill="#1D59E7" sketch:type="MSShapeGroup" transform="translate(317.668885, 128.636376) rotate(-156.000000) translate(-317.668885, -128.636376) "></path>
            <path d="M335.668885,123.636376 C338.982593,123.636376 341.668885,120.950085 341.668885,117.636376 C341.668885,114.322668 338.982593,111.636376 335.668885,111.636376 C332.355176,111.636376 329.668885,114.322668 329.668885,117.636376 C329.668885,120.950085 332.355176,123.636376 335.668885,123.636376 Z" id="Oval-1-Copy-100" fill="#1D59E7" sketch:type="MSShapeGroup" transform="translate(335.668885, 117.636376) rotate(-156.000000) translate(-335.668885, -117.636376) "></path>
            <circle id="Oval-1-Copy-94" fill="#1D59E7" sketch:type="MSShapeGroup" transform="translate(355.526966, 109.277549) rotate(-156.000000) translate(-355.526966, -109.277549) " cx="355.526966" cy="109.277549" r="6"></circle>
            <circle id="Oval-1-Copy-95" fill="#97C1FF" sketch:type="MSShapeGroup" transform="translate(376.112850, 104.255462) rotate(-156.000000) translate(-376.112850, -104.255462) " cx="376.11285" cy="104.255462" r="6"></circle>
            <circle id="Oval-1-Copy-96" fill="#1D59E7" sketch:type="MSShapeGroup" transform="translate(397.493981, 102.294026) rotate(-156.000000) translate(-397.493981, -102.294026) " cx="397.493981" cy="102.294026" r="6"></circle>
            <circle id="Oval-1-Copy-97" fill="#1D59E7" sketch:type="MSShapeGroup" transform="translate(418.376328, 103.776550) rotate(-156.000000) translate(-418.376328, -103.776550) " cx="418.376328" cy="103.77655" r="6"></circle>
            <circle id="Oval-1-Copy-98" fill="#1D59E7" sketch:type="MSShapeGroup" transform="translate(441.125972, 108.187023) rotate(-156.000000) translate(-441.125972, -108.187023) " cx="441.125972" cy="108.187023" r="6"></circle>
            <circle id="Oval-1-Copy-99" fill="#0AFCFA" sketch:type="MSShapeGroup" transform="translate(462.670862, 114.658147) rotate(-156.000000) translate(-462.670862, -114.658147) " cx="462.670862" cy="114.658147" r="6"></circle>
            <circle id="Oval-1-Copy-80" fill="#1D59E7" sketch:type="MSShapeGroup" transform="translate(289.894642, 163.377738) rotate(-156.000000) translate(-289.894642, -163.377738) " cx="289.894642" cy="163.377738" r="6"></circle>
            <circle id="Oval-1-Copy-81" fill="#1D59E7" sketch:type="MSShapeGroup" transform="translate(266.035800, 172.661447) rotate(-156.000000) translate(-266.035800, -172.661447) " cx="266.0358" cy="172.661447" r="6"></circle>
            <circle id="Oval-1-Copy-106" fill="#1D59E7" sketch:type="MSShapeGroup" transform="translate(279.035800, 189.661447) rotate(-156.000000) translate(-279.035800, -189.661447) " cx="279.0358" cy="189.661447" r="6"></circle>
            <circle id="Oval-1-Copy-107" fill="#1D59E7" sketch:type="MSShapeGroup" transform="translate(286.035800, 212.661447) rotate(-156.000000) translate(-286.035800, -212.661447) " cx="286.0358" cy="212.661447" r="6"></circle>
            <circle id="Oval-1-Copy-108" fill="#97C1FF" sketch:type="MSShapeGroup" transform="translate(305.035800, 202.661447) rotate(-156.000000) translate(-305.035800, -202.661447) " cx="305.0358" cy="202.661447" r="6"></circle>
            <circle id="Oval-1-Copy-109" fill="#1D59E7" sketch:type="MSShapeGroup" transform="translate(302.035800, 229.661447) rotate(-156.000000) translate(-302.035800, -229.661447) " cx="302.0358" cy="229.661447" r="6"></circle>
            <circle id="Oval-1-Copy-110" fill="#1D59E7" sketch:type="MSShapeGroup" transform="translate(306.035800, 249.661447) rotate(-156.000000) translate(-306.035800, -249.661447) " cx="306.0358" cy="249.661447" r="6"></circle>
            <circle id="Oval-1-Copy-111" fill="#1D59E7" sketch:type="MSShapeGroup" transform="translate(284.035800, 248.661447) rotate(-156.000000) translate(-284.035800, -248.661447) " cx="284.0358" cy="248.661447" r="6"></circle>
            <circle id="Oval-1-Copy-112" fill="#1D59E7" sketch:type="MSShapeGroup" transform="translate(273.035800, 230.661447) rotate(-156.000000) translate(-273.035800, -230.661447) " cx="273.0358" cy="230.661447" r="6"></circle>
            <circle id="Oval-1-Copy-113" fill="#1D59E7" sketch:type="MSShapeGroup" transform="translate(262.035800, 203.661447) rotate(-156.000000) translate(-262.035800, -203.661447) " cx="262.0358" cy="203.661447" r="6"></circle>
            <circle id="Oval-1-Copy-114" fill="#1D59E7" sketch:type="MSShapeGroup" transform="translate(235.035800, 205.661447) rotate(-156.000000) translate(-235.035800, -205.661447) " cx="235.0358" cy="205.661447" r="6"></circle>
            <circle id="Oval-1-Copy-115" fill="#1D59E7" sketch:type="MSShapeGroup" transform="translate(230.035800, 226.661447) rotate(-156.000000) translate(-230.035800, -226.661447) " cx="230.0358" cy="226.661447" r="6"></circle>
            <circle id="Oval-1-Copy-116" fill="#97C1FF" sketch:type="MSShapeGroup" transform="translate(208.035800, 240.661447) rotate(-156.000000) translate(-208.035800, -240.661447) " cx="208.0358" cy="240.661447" r="6"></circle>
            <circle id="Oval-1-Copy-117" fill="#1D59E7" sketch:type="MSShapeGroup" transform="translate(217.035800, 259.661447) rotate(-156.000000) translate(-217.035800, -259.661447) " cx="217.0358" cy="259.661447" r="6"></circle>
            <circle id="Oval-1-Copy-118" fill="#1D59E7" sketch:type="MSShapeGroup" transform="translate(234.035800, 246.661447) rotate(-156.000000) translate(-234.035800, -246.661447) " cx="234.0358" cy="246.661447" r="6"></circle>
            <circle id="Oval-1-Copy-119" fill="#1D59E7" sketch:type="MSShapeGroup" transform="translate(254.035800, 222.661447) rotate(-156.000000) translate(-254.035800, -222.661447) " cx="254.0358" cy="222.661447" r="6"></circle>
            <circle id="Oval-1-Copy-120" fill="#0AFCFA" sketch:type="MSShapeGroup" transform="translate(256.035800, 246.661447) rotate(-156.000000) translate(-256.035800, -246.661447) " cx="256.0358" cy="246.661447" r="6"></circle>
            <circle id="Oval-1-Copy-121" fill="#1D59E7" sketch:type="MSShapeGroup" transform="translate(256.035800, 267.661447) rotate(-156.000000) translate(-256.035800, -267.661447) " cx="256.0358" cy="267.661447" r="6"></circle>
            <circle id="Oval-1-Copy-122" fill="#1D59E7" sketch:type="MSShapeGroup" transform="translate(292.035800, 269.661447) rotate(-156.000000) translate(-292.035800, -269.661447) " cx="292.0358" cy="269.661447" r="6"></circle>
            <circle id="Oval-1-Copy-123" fill="#1D59E7" sketch:type="MSShapeGroup" transform="translate(270.035800, 285.661447) rotate(-156.000000) translate(-270.035800, -285.661447) " cx="270.0358" cy="285.661447" r="6"></circle>
            <circle id="Oval-1-Copy-124" fill="#0AFCFA" sketch:type="MSShapeGroup" transform="translate(271.035800, 312.661447) rotate(-156.000000) translate(-271.035800, -312.661447) " cx="271.0358" cy="312.661447" r="6"></circle>
            <circle id="Oval-1-Copy-125" fill="#1D59E7" sketch:type="MSShapeGroup" transform="translate(246.035800, 311.661447) rotate(-156.000000) translate(-246.035800, -311.661447) " cx="246.0358" cy="311.661447" r="6"></circle>
            <circle id="Oval-1-Copy-126" fill="#1D59E7" sketch:type="MSShapeGroup" transform="translate(249.035800, 289.661447) rotate(-156.000000) translate(-249.035800, -289.661447) " cx="249.0358" cy="289.661447" r="6"></circle>
            <circle id="Oval-1-Copy-127" fill="#1D59E7" sketch:type="MSShapeGroup" transform="translate(234.035800, 273.661447) rotate(-156.000000) translate(-234.035800, -273.661447) " cx="234.0358" cy="273.661447" r="6"></circle>
            <circle id="Oval-1-Copy-128" fill="#1D59E7" sketch:type="MSShapeGroup" transform="translate(224.035800, 291.661447) rotate(-156.000000) translate(-224.035800, -291.661447) " cx="224.0358" cy="291.661447" r="6"></circle>
            <circle id="Oval-1-Copy-129" fill="#1D59E7" sketch:type="MSShapeGroup" transform="translate(205.035800, 282.661447) rotate(-156.000000) translate(-205.035800, -282.661447) " cx="205.0358" cy="282.661447" r="6"></circle>
            <circle id="Oval-1-Copy-130" fill="#1D59E7" sketch:type="MSShapeGroup" transform="translate(225.035800, 315.661447) rotate(-156.000000) translate(-225.035800, -315.661447) " cx="225.0358" cy="315.661447" r="6"></circle>
            <circle id="Oval-1-Copy-131" fill="#1D59E7" sketch:type="MSShapeGroup" transform="translate(256.035800, 330.661447) rotate(-156.000000) translate(-256.035800, -330.661447) " cx="256.0358" cy="330.661447" r="6"></circle>
            <circle id="Oval-1-Copy-132" fill="#0AFCFA" sketch:type="MSShapeGroup" transform="translate(259.035800, 355.661447) rotate(-156.000000) translate(-259.035800, -355.661447) " cx="259.0358" cy="355.661447" r="6"></circle>
            <circle id="Oval-1-Copy-134" fill="#1D59E7" sketch:type="MSShapeGroup" transform="translate(276.035800, 343.661447) rotate(-156.000000) translate(-276.035800, -343.661447) " cx="276.0358" cy="343.661447" r="6"></circle>
            <circle id="Oval-1-Copy-135" fill="#1D59E7" sketch:type="MSShapeGroup" transform="translate(288.035800, 363.661447) rotate(-156.000000) translate(-288.035800, -363.661447) " cx="288.0358" cy="363.661447" r="6"></circle>
            <circle id="Oval-1-Copy-136" fill="#1D59E7" sketch:type="MSShapeGroup" transform="translate(304.035800, 377.661447) rotate(-156.000000) translate(-304.035800, -377.661447) " cx="304.0358" cy="377.661447" r="6"></circle>
            <circle id="Oval-1-Copy-137" fill="#1D59E7" sketch:type="MSShapeGroup" transform="translate(300.035800, 401.661447) rotate(-156.000000) translate(-300.035800, -401.661447) " cx="300.0358" cy="401.661447" r="6"></circle>
            <circle id="Oval-1-Copy-138" fill="#97C1FF" sketch:type="MSShapeGroup" transform="translate(282.035800, 390.661447) rotate(-156.000000) translate(-282.035800, -390.661447) " cx="282.0358" cy="390.661447" r="6"></circle>
            <circle id="Oval-1-Copy-151" fill="#1D59E7" sketch:type="MSShapeGroup" transform="translate(272.035800, 411.661447) rotate(-156.000000) translate(-272.035800, -411.661447) " cx="272.0358" cy="411.661447" r="6"></circle>
            <circle id="Oval-1-Copy-152" fill="#1D59E7" sketch:type="MSShapeGroup" transform="translate(259.035800, 428.661447) rotate(-156.000000) translate(-259.035800, -428.661447) " cx="259.0358" cy="428.661447" r="6"></circle>
            <circle id="Oval-1-Copy-153" fill="#1D59E7" sketch:type="MSShapeGroup" transform="translate(243.035800, 443.661447) rotate(-156.000000) translate(-243.035800, -443.661447) " cx="243.0358" cy="443.661447" r="6"></circle>
            <circle id="Oval-1-Copy-154" fill="#97C1FF" sketch:type="MSShapeGroup" transform="translate(226.035800, 453.661447) rotate(-156.000000) translate(-226.035800, -453.661447) " cx="226.0358" cy="453.661447" r="6"></circle>
            <circle id="Oval-1-Copy-155" fill="#1D59E7" sketch:type="MSShapeGroup" transform="translate(206.035800, 462.661447) rotate(-156.000000) translate(-206.035800, -462.661447) " cx="206.0358" cy="462.661447" r="6"></circle>
            <circle id="Oval-1-Copy-156" fill="#1D59E7" sketch:type="MSShapeGroup" transform="translate(186.035800, 467.661447) rotate(-156.000000) translate(-186.035800, -467.661447) " cx="186.0358" cy="467.661447" r="6"></circle>
            <circle id="Oval-1-Copy-157" fill="#1D59E7" sketch:type="MSShapeGroup" transform="translate(164.035800, 470.661447) rotate(-156.000000) translate(-164.035800, -470.661447) " cx="164.0358" cy="470.661447" r="6"></circle>
            <circle id="Oval-1-Copy-158" fill="#1D59E7" sketch:type="MSShapeGroup" transform="translate(142.035800, 470.661447) rotate(-156.000000) translate(-142.035800, -470.661447) " cx="142.0358" cy="470.661447" r="6"></circle>
            <circle id="Oval-1-Copy-159" fill="#1D59E7" sketch:type="MSShapeGroup" transform="translate(119.035800, 466.661447) rotate(-156.000000) translate(-119.035800, -466.661447) " cx="119.0358" cy="466.661447" r="6"></circle>
            <circle id="Oval-1-Copy-160" fill="#1D59E7" sketch:type="MSShapeGroup" transform="translate(166.035800, 492.661447) rotate(-156.000000) translate(-166.035800, -492.661447) " cx="166.0358" cy="492.661447" r="6"></circle>
            <circle id="Oval-1-Copy-161" fill="#0AFCFA" sketch:type="MSShapeGroup" transform="translate(188.035800, 490.661447) rotate(-156.000000) translate(-188.035800, -490.661447) " cx="188.0358" cy="490.661447" r="6"></circle>
            <circle id="Oval-1-Copy-162" fill="#1D59E7" sketch:type="MSShapeGroup" transform="translate(210.035800, 485.661447) rotate(-156.000000) translate(-210.035800, -485.661447) " cx="210.0358" cy="485.661447" r="6"></circle>
            <circle id="Oval-1-Copy-163" fill="#0AFCFA" sketch:type="MSShapeGroup" transform="translate(230.035800, 478.661447) rotate(-156.000000) translate(-230.035800, -478.661447) " cx="230.0358" cy="478.661447" r="6"></circle>
            <circle id="Oval-1-Copy-164" fill="#1D59E7" sketch:type="MSShapeGroup" transform="translate(249.035800, 468.661447) rotate(-156.000000) translate(-249.035800, -468.661447) " cx="249.0358" cy="468.661447" r="6"></circle>
            <circle id="Oval-1-Copy-165" fill="#0AFCFA" sketch:type="MSShapeGroup" transform="translate(266.035800, 455.661447) rotate(-156.000000) translate(-266.035800, -455.661447) " cx="266.0358" cy="455.661447" r="6"></circle>
            <circle id="Oval-1-Copy-166" fill="#1D59E7" sketch:type="MSShapeGroup" transform="translate(281.035800, 440.661447) rotate(-156.000000) translate(-281.035800, -440.661447) " cx="281.0358" cy="440.661447" r="6"></circle>
            <circle id="Oval-1-Copy-167" fill="#0AFCFA" sketch:type="MSShapeGroup" transform="translate(292.035800, 422.661447) rotate(-156.000000) translate(-292.035800, -422.661447) " cx="292.0358" cy="422.661447" r="6"></circle>
            <circle id="Oval-1-Copy-133" fill="#1D59E7" sketch:type="MSShapeGroup" transform="translate(236.035800, 360.661447) rotate(-156.000000) translate(-236.035800, -360.661447) " cx="236.0358" cy="360.661447" r="6"></circle>
            <circle id="Oval-1-Copy-82" fill="#1D59E7" sketch:type="MSShapeGroup" transform="translate(273.325677, 148.850384) rotate(-156.000000) translate(-273.325677, -148.850384) " cx="273.325677" cy="148.850384" r="6"></circle>
            <circle id="Oval-1-Copy-83" fill="#1D59E7" sketch:type="MSShapeGroup" transform="translate(285.421256, 130.059049) rotate(-156.000000) translate(-285.421256, -130.059049) " cx="285.421256" cy="130.059049" r="6"></circle>
            <circle id="Oval-1-Copy-84" fill="#1D59E7" sketch:type="MSShapeGroup" transform="translate(299.789478, 114.090657) rotate(-156.000000) translate(-299.789478, -114.090657) " cx="299.789478" cy="114.090657" r="6"></circle>
            <circle id="Oval-1-Copy-85" fill="#0AFCFA" sketch:type="MSShapeGroup" transform="translate(316.814258, 101.345299) rotate(-156.000000) translate(-316.814258, -101.345299) " cx="316.814258" cy="101.345299" r="6"></circle>
            <circle id="Oval-1-Copy-86" fill="#1D59E7" sketch:type="MSShapeGroup" transform="translate(335.111681, 91.422885) rotate(-156.000000) translate(-335.111681, -91.422885) " cx="335.111681" cy="91.4228846" r="6"></circle>
            <circle id="Oval-1-Copy-87" fill="#1D59E7" sketch:type="MSShapeGroup" transform="translate(355.509176, 84.734298) rotate(-156.000000) translate(-355.509176, -84.734298) " cx="355.509176" cy="84.7342978" r="6"></circle>
            <circle id="Oval-1-Copy-88" fill="#1D59E7" sketch:type="MSShapeGroup" transform="translate(376.833834, 81.093012) rotate(-156.000000) translate(-376.833834, -81.093012) " cx="376.833834" cy="81.0930119" r="6"></circle>
            <circle id="Oval-1-Copy-89" fill="#1D59E7" sketch:type="MSShapeGroup" transform="translate(399.258564, 79.685554) rotate(-156.000000) translate(-399.258564, -79.685554) " cx="399.258564" cy="79.6855536" r="6"></circle>
            <circle id="Oval-1-Copy-90" fill="#1D59E7" sketch:type="MSShapeGroup" transform="translate(420.203720, 82.238942) rotate(-156.000000) translate(-420.203720, -82.238942) " cx="420.20372" cy="82.2389415" r="6"></circle>
            <circle id="Oval-1-Copy-64" fill="#97C1FF" sketch:type="MSShapeGroup" transform="translate(261.034182, 28.777510) rotate(-189.000000) translate(-261.034182, -28.777510) " cx="261.034182" cy="28.7775099" r="6"></circle>
            <circle id="Oval-1-Copy-65" fill="#1D59E7" sketch:type="MSShapeGroup" transform="translate(242.688326, 40.795394) rotate(-189.000000) translate(-242.688326, -40.795394) " cx="242.688326" cy="40.7953943" r="6"></circle>
            <circle id="Oval-1-Copy-66" fill="#1D59E7" sketch:type="MSShapeGroup" transform="translate(226.799461, 55.619909) rotate(-189.000000) translate(-226.799461, -55.619909) " cx="226.799461" cy="55.6199092" r="6"></circle>
            <circle id="Oval-1-Copy-67" fill="#1D59E7" sketch:type="MSShapeGroup" transform="translate(212.198841, 72.106932) rotate(-189.000000) translate(-212.198841, -72.106932) " cx="212.198841" cy="72.1069319" r="6"></circle>
            <circle id="Oval-1-Copy-68" fill="#1D59E7" sketch:type="MSShapeGroup" transform="translate(200.717722, 90.112340) rotate(-189.000000) translate(-200.717722, -90.112340) " cx="200.717722" cy="90.1123395" r="6"></circle>
            <circle id="Oval-1-Copy-69" fill="#1D59E7" sketch:type="MSShapeGroup" transform="translate(191.088019, 109.854398) rotate(-189.000000) translate(-191.088019, -109.854398) " cx="191.088019" cy="109.854398" r="6"></circle>
            <circle id="Oval-1-Copy-70" fill="#1D59E7" sketch:type="MSShapeGroup" transform="translate(186.171078, 129.028386) rotate(-189.000000) translate(-186.171078, -129.028386) " cx="186.171078" cy="129.028386" r="6"></circle>
            <circle id="Oval-1-Copy-71" fill="#1D59E7" sketch:type="MSShapeGroup" transform="translate(183.954589, 150.477871) rotate(-189.000000) translate(-183.954589, -150.477871) " cx="183.954589" cy="150.477871" r="6"></circle>
            <circle id="Oval-1-Copy-72" fill="#1D59E7" sketch:type="MSShapeGroup" transform="translate(186.852023, 173.279650) rotate(-189.000000) translate(-186.852023, -173.279650) " cx="186.852023" cy="173.27965" r="6"></circle>
            <circle id="Oval-1-Copy-73" fill="#1D59E7" sketch:type="MSShapeGroup" transform="translate(193.446233, 195.091857) rotate(-189.000000) translate(-193.446233, -195.091857) " cx="193.446233" cy="195.091857" r="6"></circle>
            <circle id="Oval-1-Copy-74" fill="#1D59E7" sketch:type="MSShapeGroup" transform="translate(207.810767, 218.934428) rotate(-189.000000) translate(-207.810767, -218.934428) " cx="207.810767" cy="218.934428" r="6"></circle>
            <circle id="Oval-1-Copy-75" fill="#1D59E7" sketch:type="MSShapeGroup" transform="translate(228.625321, 152.731649) rotate(-189.000000) translate(-228.625321, -152.731649) " cx="228.625321" cy="152.731649" r="6"></circle>
            <path d="M233.512608,136.920248 C236.826317,136.920248 239.512608,134.233957 239.512608,130.920248 C239.512608,127.60654 236.826317,124.920248 233.512608,124.920248 C230.1989,124.920248 227.512608,127.60654 227.512608,130.920248 C227.512608,134.233957 230.1989,136.920248 233.512608,136.920248 Z" id="Oval-1-Copy-92" fill="#1D59E7" sketch:type="MSShapeGroup" transform="translate(233.512608, 130.920248) rotate(-189.000000) translate(-233.512608, -130.920248) "></path>
            <path d="M242.528371,118.214028 C245.84208,118.214028 248.528371,115.527737 248.528371,112.214028 C248.528371,108.90032 245.84208,106.214028 242.528371,106.214028 C239.214663,106.214028 236.528371,108.90032 236.528371,112.214028 C236.528371,115.527737 239.214663,118.214028 242.528371,118.214028 Z" id="Oval-1-Copy-100" fill="#1D59E7" sketch:type="MSShapeGroup" transform="translate(242.528371, 112.214028) rotate(-189.000000) translate(-242.528371, -112.214028) "></path>
            <circle id="Oval-1-Copy-94" fill="#1D59E7" sketch:type="MSShapeGroup" transform="translate(254.336184, 94.771549) rotate(-189.000000) translate(-254.336184, -94.771549) " cx="254.336184" cy="94.7715488" r="6"></circle>
            <circle id="Oval-1-Copy-95" fill="#0AFCFA" sketch:type="MSShapeGroup" transform="translate(268.865735, 79.347796) rotate(-189.000000) translate(-268.865735, -79.347796) " cx="268.865735" cy="79.3477962" r="6"></circle>
            <circle id="Oval-1-Copy-96" fill="#1D59E7" sketch:type="MSShapeGroup" transform="translate(285.729186, 67.057799) rotate(-189.000000) translate(-285.729186, -67.057799) " cx="285.729186" cy="67.0577989" r="6"></circle>
            <circle id="Oval-1-Copy-97" fill="#1D59E7" sketch:type="MSShapeGroup" transform="translate(303.433345, 55.221839) rotate(-189.000000) translate(-303.433345, -55.221839) " cx="303.433345" cy="55.2218391" r="6"></circle>
            <circle id="Oval-1-Copy-98" fill="#1D59E7" sketch:type="MSShapeGroup" transform="translate(324.237576, 46.619707) rotate(-189.000000) translate(-324.237576, -46.619707) " cx="324.237576" cy="46.6197069" r="6"></circle>
            <circle id="Oval-1-Copy-99" fill="#1D59E7" sketch:type="MSShapeGroup" transform="translate(346.375708, 41.151330) rotate(-189.000000) translate(-346.375708, -41.151330) " cx="346.375708" cy="41.1513301" r="6"></circle>
            <circle id="Oval-1-Copy-80" fill="#1D59E7" sketch:type="MSShapeGroup" transform="translate(229.007968, 177.111691) rotate(-189.000000) translate(-229.007968, -177.111691) " cx="229.007968" cy="177.111691" r="6"></circle>
            <circle id="Oval-1-Copy-81" fill="#1D59E7" sketch:type="MSShapeGroup" transform="translate(213.731870, 196.802843) rotate(-189.000000) translate(-213.731870, -196.802843) " cx="213.73187" cy="196.802843" r="6"></circle>
            <circle id="Oval-1-Copy-82" fill="#0AFCFA" sketch:type="MSShapeGroup" transform="translate(207.787964, 172.185513) rotate(-189.000000) translate(-207.787964, -172.185513) " cx="207.787964" cy="172.185513" r="6"></circle>
            <circle id="Oval-1-Copy-83" fill="#1D59E7" sketch:type="MSShapeGroup" transform="translate(206.153036, 149.999378) rotate(-189.000000) translate(-206.153036, -149.999378) " cx="206.153036" cy="149.999378" r="6"></circle>
            <circle id="Oval-1-Copy-84" fill="#1D59E7" sketch:type="MSShapeGroup" transform="translate(210.344902, 128.237024) rotate(-189.000000) translate(-210.344902, -128.237024) " cx="210.344902" cy="128.237024" r="6"></circle>
            <circle id="Oval-1-Copy-85" fill="#1D59E7" sketch:type="MSShapeGroup" transform="translate(217.842794, 108.820147) rotate(-189.000000) translate(-217.842794, -108.820147) " cx="217.842794" cy="108.820147" r="6"></circle>
            <circle id="Oval-1-Copy-86" fill="#1D59E7" sketch:type="MSShapeGroup" transform="translate(228.167479, 90.827051) rotate(-189.000000) translate(-228.167479, -90.827051) " cx="228.167479" cy="90.8270507" r="6"></circle>
            <circle id="Oval-1-Copy-87" fill="#1D59E7" sketch:type="MSShapeGroup" transform="translate(240.792722, 73.652897) rotate(-189.000000) translate(-240.792722, -73.652897) " cx="240.792722" cy="73.6528969" r="6"></circle>
            <circle id="Oval-1-Copy-88" fill="#97C1FF" sketch:type="MSShapeGroup" transform="translate(256.693898, 58.984816) rotate(-189.000000) translate(-256.693898, -58.984816) " cx="256.693898" cy="58.9848165" r="6"></circle>
            <circle id="Oval-1-Copy-89" fill="#1D59E7" sketch:type="MSShapeGroup" transform="translate(274.895632, 46.135678) rotate(-189.000000) translate(-274.895632, -46.135678) " cx="274.895632" cy="46.1356782" r="6"></circle>
            <circle id="Oval-1-Copy-90" fill="#0AFCFA" sketch:type="MSShapeGroup" transform="translate(294.529734, 35.780302) rotate(-189.000000) translate(-294.529734, -35.780302) " cx="294.529734" cy="35.7803016" r="6"></circle>
            <circle id="Oval-1-Copy-64" fill="#97C1FF" sketch:type="MSShapeGroup" transform="translate(131.580734, 75.956583) rotate(-222.000000) translate(-131.580734, -75.956583) " cx="131.580734" cy="75.9565829" r="6"></circle>
            <circle id="Oval-1-Copy-65" fill="#1D59E7" sketch:type="MSShapeGroup" transform="translate(122.740013, 96.027498) rotate(-222.000000) translate(-122.740013, -96.027498) " cx="122.740013" cy="96.0274984" r="6"></circle>
            <circle id="Oval-1-Copy-66" fill="#1D59E7" sketch:type="MSShapeGroup" transform="translate(116.649829, 117.658718) rotate(-222.000000) translate(-116.649829, -117.658718) " cx="116.649829" cy="117.658718" r="6"></circle>
            <circle id="Oval-1-Copy-67" fill="#1D59E7" sketch:type="MSShapeGroup" transform="translate(113.384195, 139.437966) rotate(-222.000000) translate(-113.384195, -139.437966) " cx="113.384195" cy="139.437966" r="6"></circle>
            <circle id="Oval-1-Copy-68" fill="#1D59E7" sketch:type="MSShapeGroup" transform="translate(115.017127, 160.952967) rotate(-222.000000) translate(-115.017127, -160.952967) " cx="115.017127" cy="160.952967" r="6"></circle>
            <circle id="Oval-1-Copy-69" fill="#1D59E7" sketch:type="MSShapeGroup" transform="translate(117.987305, 182.371452) rotate(-222.000000) translate(-117.987305, -182.371452) " cx="117.987305" cy="182.371452" r="6"></circle>
            <circle id="Oval-1-Copy-70" fill="#1D59E7" sketch:type="MSShapeGroup" transform="translate(124.012483, 202.513380) rotate(-222.000000) translate(-124.012483, -202.513380) " cx="124.012483" cy="202.51338" r="6"></circle>
            <circle id="Oval-1-Copy-71" fill="#1D59E7" sketch:type="MSShapeGroup" transform="translate(134.835806, 220.709617) rotate(-222.000000) translate(-134.835806, -220.709617) " cx="134.835806" cy="220.709617" r="6"></circle>
            <circle id="Oval-1-Copy-72" fill="#1D59E7" sketch:type="MSShapeGroup" transform="translate(147.901643, 237.252942) rotate(-222.000000) translate(-147.901643, -237.252942) " cx="147.901643" cy="237.252942" r="6"></circle>
            <circle id="Oval-1-Copy-73" fill="#1D59E7" sketch:type="MSShapeGroup" transform="translate(166.933357, 252.411895) rotate(-222.000000) translate(-166.933357, -252.411895) " cx="166.933357" cy="252.411895" r="6"></circle>
            <circle id="Oval-1-Copy-74" fill="#1D59E7" sketch:type="MSShapeGroup" transform="translate(191.894012, 264.717174) rotate(-222.000000) translate(-191.894012, -264.717174) " cx="191.894012" cy="264.717174" r="6"></circle>
            <circle id="Oval-1-Copy-75" fill="#1D59E7" sketch:type="MSShapeGroup" transform="translate(173.071968, 199.109042) rotate(-222.000000) translate(-173.071968, -199.109042) " cx="173.071968" cy="199.109042" r="6"></circle>
            <path d="M163.836091,183.993324 C167.149799,183.993324 169.836091,181.307033 169.836091,177.993324 C169.836091,174.679616 167.149799,171.993324 163.836091,171.993324 C160.522382,171.993324 157.836091,174.679616 157.836091,177.993324 C157.836091,181.307033 160.522382,183.993324 163.836091,183.993324 Z" id="Oval-1-Copy-92" fill="#1D59E7" sketch:type="MSShapeGroup" transform="translate(163.836091, 177.993324) rotate(-222.000000) translate(-163.836091, -177.993324) "></path>
            <path d="M161.28126,163.26193 C164.594968,163.26193 167.28126,160.575638 167.28126,157.26193 C167.28126,153.948221 164.594968,151.26193 161.28126,151.26193 C157.967551,151.26193 155.28126,153.948221 155.28126,157.26193 C155.28126,160.575638 157.967551,163.26193 161.28126,163.26193 Z" id="Oval-1-Copy-100" fill="#1D59E7" sketch:type="MSShapeGroup" transform="translate(161.281260, 157.261930) rotate(-222.000000) translate(-161.281260, -157.261930) "></path>
            <circle id="Oval-1-Copy-94" fill="#0AFCFA" sketch:type="MSShapeGroup" transform="translate(161.228908, 136.041111) rotate(-222.000000) translate(-161.228908, -136.041111) " cx="161.228908" cy="136.041111" r="6"></circle>
            <circle id="Oval-1-Copy-95" fill="#1D59E7" sketch:type="MSShapeGroup" transform="translate(165.014038, 115.192302) rotate(-222.000000) translate(-165.014038, -115.192302) " cx="165.014038" cy="115.192302" r="6"></circle>
            <circle id="Oval-1-Copy-96" fill="#1D59E7" sketch:type="MSShapeGroup" transform="translate(171.918666, 94.861879) rotate(-222.000000) translate(-171.918666, -94.861879) " cx="171.918666" cy="94.8618793" r="6"></circle>
            <circle id="Oval-1-Copy-97" fill="#1D59E7" sketch:type="MSShapeGroup" transform="translate(182.086917, 75.881095) rotate(-222.000000) translate(-182.086917, -75.881095) " cx="182.086917" cy="75.881095" r="6"></circle>
            <circle id="Oval-1-Copy-98" fill="#0AFCFA" sketch:type="MSShapeGroup" transform="translate(194.555725, 58.719253) rotate(-222.000000) translate(-194.555725, -58.719253) " cx="194.555725" cy="58.7192529" r="6"></circle>
            <circle id="Oval-1-Copy-99" fill="#1D59E7" sketch:type="MSShapeGroup" transform="translate(210.144033, 42.075796) rotate(-222.000000) translate(-210.144033, -42.075796) " cx="210.144033" cy="42.0757958" r="6"></circle>
            <circle id="Oval-1-Copy-80" fill="#1D59E7" sketch:type="MSShapeGroup" transform="translate(186.377174, 220.730770) rotate(-222.000000) translate(-186.377174, -220.730770) " cx="186.377174" cy="220.73077" r="6"></circle>
            <circle id="Oval-1-Copy-81" fill="#1D59E7" sketch:type="MSShapeGroup" transform="translate(185.967472, 243.475841) rotate(-222.000000) translate(-185.967472, -243.475841) " cx="185.967472" cy="243.475841" r="6"></circle>
            <circle id="Oval-1-Copy-82" fill="#1D59E7" sketch:type="MSShapeGroup" transform="translate(166.352953, 226.317901) rotate(-222.000000) translate(-166.352953, -226.317901) " cx="166.352953" cy="226.317901" r="6"></circle>
            <circle id="Oval-1-Copy-83" fill="#97C1FF" sketch:type="MSShapeGroup" transform="translate(152.192384, 208.218179) rotate(-222.000000) translate(-152.192384, -208.218179) " cx="152.192384" cy="208.218179" r="6"></circle>
            <circle id="Oval-1-Copy-84" fill="#1D59E7" sketch:type="MSShapeGroup" transform="translate(143.855351, 187.683679) rotate(-222.000000) translate(-143.855351, -187.683679) " cx="143.855351" cy="187.683679" r="6"></circle>
            <circle id="Oval-1-Copy-85" fill="#1D59E7" sketch:type="MSShapeGroup" transform="translate(138.729752, 166.860310) rotate(-222.000000) translate(-138.729752, -166.860310) " cx="138.729752" cy="166.86031" r="6"></circle>
            <circle id="Oval-1-Copy-86" fill="#1D59E7" sketch:type="MSShapeGroup" transform="translate(136.427690, 145.602164) rotate(-222.000000) translate(-136.427690, -145.602164) " cx="136.42769" cy="145.602164" r="6"></circle>
            <circle id="Oval-1-Copy-87" fill="#0AFCFA" sketch:type="MSShapeGroup" transform="translate(138.207034, 125.161178) rotate(-222.000000) translate(-138.207034, -125.161178) " cx="138.207034" cy="125.161178" r="6"></circle>
            <circle id="Oval-1-Copy-88" fill="#1D59E7" sketch:type="MSShapeGroup" transform="translate(143.554073, 104.199089) rotate(-222.000000) translate(-143.554073, -104.199089) " cx="143.554073" cy="104.199089" r="6"></circle>
            <circle id="Oval-1-Copy-89" fill="#1D59E7" sketch:type="MSShapeGroup" transform="translate(150.982519, 84.054159) rotate(-222.000000) translate(-150.982519, -84.054159) " cx="150.982519" cy="84.0541591" r="6"></circle>
            <circle id="Oval-1-Copy-90" fill="#1D59E7" sketch:type="MSShapeGroup" transform="translate(162.647791, 64.131272) rotate(-222.000000) translate(-162.647791, -64.131272) " cx="162.647791" cy="64.131272" r="6"></circle>
            <circle id="Oval-1-Copy-91" fill="#1D59E7" sketch:type="MSShapeGroup" transform="translate(177.063600, 45.768689) rotate(-222.000000) translate(-177.063600, -45.768689) " cx="177.0636" cy="45.7686887" r="6"></circle>
            <circle id="Oval-1-Copy-64" fill="#1D59E7" sketch:type="MSShapeGroup" transform="translate(50.444154, 186.182449) rotate(-256.000000) translate(-50.444154, -186.182449) " cx="50.4441538" cy="186.182449" r="6"></circle>
            <circle id="Oval-1-Copy-65" fill="#1D59E7" sketch:type="MSShapeGroup" transform="translate(54.338377, 207.765660) rotate(-256.000000) translate(-54.338377, -207.765660) " cx="54.3383774" cy="207.76566" r="6"></circle>
            <circle id="Oval-1-Copy-66" fill="#97C1FF" sketch:type="MSShapeGroup" transform="translate(60.385410, 228.104342) rotate(-256.000000) translate(-60.385410, -228.104342) " cx="60.3854101" cy="228.104342" r="6"></circle>
            <circle id="Oval-1-Copy-67" fill="#1D59E7" sketch:type="MSShapeGroup" transform="translate(69.856878, 247.986276) rotate(-256.000000) translate(-69.856878, -247.986276) " cx="69.8568781" cy="247.986276" r="6"></circle>
            <circle id="Oval-1-Copy-68" fill="#1D59E7" sketch:type="MSShapeGroup" transform="translate(81.024407, 265.199245) rotate(-256.000000) translate(-81.024407, -265.199245) " cx="81.0244074" cy="265.199245" r="6"></circle>
            <circle id="Oval-1-Copy-69" fill="#97C1FF" sketch:type="MSShapeGroup" transform="translate(95.904669, 281.466034) rotate(-256.000000) translate(-95.904669, -281.466034) " cx="95.9046694" cy="281.466034" r="6"></circle>
            <circle id="Oval-1-Copy-70" fill="#1D59E7" sketch:type="MSShapeGroup" transform="translate(111.162991, 294.795211) rotate(-256.000000) translate(-111.162991, -294.795211) " cx="111.162991" cy="294.795211" r="6"></circle>
            <circle id="Oval-1-Copy-71" fill="#1D59E7" sketch:type="MSShapeGroup" transform="translate(130.041295, 304.216481) rotate(-256.000000) translate(-130.041295, -304.216481) " cx="130.041295" cy="304.216481" r="6"></circle>
            <circle id="Oval-1-Copy-72" fill="#1D59E7" sketch:type="MSShapeGroup" transform="translate(150.953312, 312.066003) rotate(-256.000000) translate(-150.953312, -312.066003) " cx="150.953312" cy="312.066003" r="6"></circle>
            <circle id="Oval-1-Copy-73" fill="#1D59E7" sketch:type="MSShapeGroup" transform="translate(175.208097, 312.990945) rotate(-256.000000) translate(-175.208097, -312.990945) " cx="175.208097" cy="312.990945" r="6"></circle>
            <circle id="Oval-1-Copy-74" fill="#1D59E7" sketch:type="MSShapeGroup" transform="translate(203.999711, 309.945314) rotate(-256.000000) translate(-203.999711, -309.945314) " cx="203.999711" cy="309.945314" r="6"></circle>
            <circle id="Oval-1-Copy-75" fill="#0AFCFA" sketch:type="MSShapeGroup" transform="translate(151.490659, 266.368209) rotate(-256.000000) translate(-151.490659, -266.368209) " cx="151.490659" cy="266.368209" r="6"></circle>
            <path d="M133.243278,259.737775 C136.556987,259.737775 139.243278,257.051483 139.243278,253.737775 C139.243278,250.424066 136.556987,247.737775 133.243278,247.737775 C129.92957,247.737775 127.243278,250.424066 127.243278,253.737775 C127.243278,257.051483 129.92957,259.737775 133.243278,259.737775 Z" id="Oval-1-Copy-92" fill="#1D59E7" sketch:type="MSShapeGroup" transform="translate(133.243278, 253.737775) rotate(-256.000000) translate(-133.243278, -253.737775) "></path>
            <path d="M118.31511,243.268661 C121.628819,243.268661 124.31511,240.58237 124.31511,237.268661 C124.31511,233.954953 121.628819,231.268661 118.31511,231.268661 C115.001402,231.268661 112.31511,233.954953 112.31511,237.268661 C112.31511,240.58237 115.001402,243.268661 118.31511,243.268661 Z" id="Oval-1-Copy-100" fill="#1D59E7" sketch:type="MSShapeGroup" transform="translate(118.315110, 237.268661) rotate(-256.000000) translate(-118.315110, -237.268661) "></path>
            <circle id="Oval-1-Copy-94" fill="#0AFCFA" sketch:type="MSShapeGroup" transform="translate(107.793408, 219.974924) rotate(-256.000000) translate(-107.793408, -219.974924) " cx="107.793408" cy="219.974924" r="6"></circle>
            <circle id="Oval-1-Copy-95" fill="#1D59E7" sketch:type="MSShapeGroup" transform="translate(99.272917, 200.573862) rotate(-256.000000) translate(-99.272917, -200.573862) " cx="99.2729169" cy="200.573862" r="6"></circle>
            <circle id="Oval-1-Copy-96" fill="#1D59E7" sketch:type="MSShapeGroup" transform="translate(93.628485, 179.858158) rotate(-256.000000) translate(-93.628485, -179.858158) " cx="93.628485" cy="179.858158" r="6"></circle>
            <circle id="Oval-1-Copy-97" fill="#0AFCFA" sketch:type="MSShapeGroup" transform="translate(92.273465, 157.877168) rotate(-256.000000) translate(-92.273465, -157.877168) " cx="92.2734647" cy="157.877168" r="6"></circle>
            <circle id="Oval-1-Copy-98" fill="#1D59E7" sketch:type="MSShapeGroup" transform="translate(93.013795, 136.676887) rotate(-256.000000) translate(-93.013795, -136.676887) " cx="93.0137949" cy="136.676887" r="6"></circle>
            <circle id="Oval-1-Copy-99" fill="#1D59E7" sketch:type="MSShapeGroup" transform="translate(96.630184, 114.161964) rotate(-256.000000) translate(-96.630184, -114.161964) " cx="96.6301844" cy="114.161964" r="6"></circle>
            <circle id="Oval-1-Copy-80" fill="#1D59E7" sketch:type="MSShapeGroup" transform="translate(174.611891, 275.853257) rotate(-256.000000) translate(-174.611891, -275.853257) " cx="174.611891" cy="275.853257" r="6"></circle>
            <circle id="Oval-1-Copy-81" fill="#1D59E7" sketch:type="MSShapeGroup" transform="translate(187.550308, 295.767916) rotate(-256.000000) translate(-187.550308, -295.767916) " cx="187.550308" cy="295.767916" r="6"></circle>
            <circle id="Oval-1-Copy-82" fill="#1D59E7" sketch:type="MSShapeGroup" transform="translate(160.865499, 293.070832) rotate(-256.000000) translate(-160.865499, -293.070832) " cx="160.865499" cy="293.070832" r="6"></circle>
            <circle id="Oval-1-Copy-83" fill="#1D59E7" sketch:type="MSShapeGroup" transform="translate(139.274463, 284.595741) rotate(-256.000000) translate(-139.274463, -284.595741) " cx="139.274463" cy="284.595741" r="6"></circle>
            <circle id="Oval-1-Copy-84" fill="#1D59E7" sketch:type="MSShapeGroup" transform="translate(120.880004, 272.233879) rotate(-256.000000) translate(-120.880004, -272.233879) " cx="120.880004" cy="272.233879" r="6"></circle>
            <circle id="Oval-1-Copy-85" fill="#1D59E7" sketch:type="MSShapeGroup" transform="translate(104.545602, 257.665760) rotate(-256.000000) translate(-104.545602, -257.665760) " cx="104.545602" cy="257.66576" r="6"></circle>
            <circle id="Oval-1-Copy-86" fill="#1D59E7" sketch:type="MSShapeGroup" transform="translate(93.407777, 241.210869) rotate(-256.000000) translate(-93.407777, -241.210869) " cx="93.4077773" cy="241.210869" r="6"></circle>
            <circle id="Oval-1-Copy-87" fill="#0AFCFA" sketch:type="MSShapeGroup" transform="translate(83.452466, 223.269527) rotate(-256.000000) translate(-83.452466, -223.269527) " cx="83.4524655" cy="223.269527" r="6"></circle>
            <circle id="Oval-1-Copy-88" fill="#1D59E7" sketch:type="MSShapeGroup" transform="translate(76.163511, 202.901141) rotate(-256.000000) translate(-76.163511, -202.901141) " cx="76.1635109" cy="202.901141" r="6"></circle>
            <circle id="Oval-1-Copy-89" fill="#1D59E7" sketch:type="MSShapeGroup" transform="translate(71.057070, 182.046303) rotate(-256.000000) translate(-71.057070, -182.046303) " cx="71.0570697" cy="182.046303" r="6"></circle>
            <circle id="Oval-1-Copy-90" fill="#1D59E7" sketch:type="MSShapeGroup" transform="translate(69.587281, 159.006344) rotate(-256.000000) translate(-69.587281, -159.006344) " cx="69.5872813" cy="159.006344" r="6"></circle>
            <circle id="Oval-1-Copy-91" fill="#1D59E7" sketch:type="MSShapeGroup" transform="translate(71.270302, 135.721855) rotate(-256.000000) translate(-71.270302, -135.721855) " cx="71.270302" cy="135.721855" r="6"></circle>
            <circle id="Oval-1-Copy-64" fill="#1D59E7" sketch:type="MSShapeGroup" transform="translate(37.771548, 319.789066) rotate(-289.000000) translate(-37.771548, -319.789066) " cx="37.7715484" cy="319.789066" r="6"></circle>
            <circle id="Oval-1-Copy-65" fill="#1D59E7" sketch:type="MSShapeGroup" transform="translate(52.792579, 336.769324) rotate(-289.000000) translate(-52.792579, -336.769324) " cx="52.7925787" cy="336.769324" r="6"></circle>
            <circle id="Oval-1-Copy-66" fill="#1D59E7" sketch:type="MSShapeGroup" transform="translate(70.324597, 349.827359) rotate(-289.000000) translate(-70.324597, -349.827359) " cx="70.3245965" cy="349.827359" r="6"></circle>
            <circle id="Oval-1-Copy-67" fill="#1D59E7" sketch:type="MSShapeGroup" transform="translate(88.096515, 362.343221) rotate(-289.000000) translate(-88.096515, -362.343221) " cx="88.0965152" cy="362.343221" r="6"></circle>
            <circle id="Oval-1-Copy-68" fill="#1D59E7" sketch:type="MSShapeGroup" transform="translate(107.837248, 370.696959) rotate(-289.000000) translate(-107.837248, -370.696959) " cx="107.837248" cy="370.696959" r="6"></circle>
            <circle id="Oval-1-Copy-69" fill="#0AFCFA" sketch:type="MSShapeGroup" transform="translate(127.793104, 376.941033) rotate(-289.000000) translate(-127.793104, -376.941033) " cx="127.793104" cy="376.941033" r="6"></circle>
            <circle id="Oval-1-Copy-70" fill="#1D59E7" sketch:type="MSShapeGroup" transform="translate(148.688071, 378.264905) rotate(-289.000000) translate(-148.688071, -378.264905) " cx="148.688071" cy="378.264905" r="6"></circle>
            <circle id="Oval-1-Copy-71" fill="#1D59E7" sketch:type="MSShapeGroup" transform="translate(170.196579, 376.723057) rotate(-289.000000) translate(-170.196579, -376.723057) " cx="170.196579" cy="376.723057" r="6"></circle>
            <circle id="Oval-1-Copy-72" fill="#1D59E7" sketch:type="MSShapeGroup" transform="translate(191.920750, 371.239377) rotate(-289.000000) translate(-191.920750, -371.239377) " cx="191.92075" cy="371.239377" r="6"></circle>
            <circle id="Oval-1-Copy-73" fill="#1D59E7" sketch:type="MSShapeGroup" transform="translate(213.310923, 358.643667) rotate(-289.000000) translate(-213.310923, -358.643667) " cx="213.310923" cy="358.643667" r="6"></circle>
            <circle id="Oval-1-Copy-74" fill="#1D59E7" sketch:type="MSShapeGroup" transform="translate(236.092864, 338.025040) rotate(-289.000000) translate(-236.092864, -338.025040) " cx="236.092864" cy="338.02504" r="6"></circle>
            <circle id="Oval-1-Copy-75" fill="#1D59E7" sketch:type="MSShapeGroup" transform="translate(167.643934, 333.165962) rotate(-289.000000) translate(-167.643934, -333.165962) " cx="167.643934" cy="333.165962" r="6"></circle>
            <path d="M146.300036,337.966785 C149.613744,337.966785 152.300036,335.280493 152.300036,331.966785 C152.300036,328.653076 149.613744,325.966785 146.300036,325.966785 C142.986327,325.966785 140.300036,328.653076 140.300036,331.966785 C140.300036,335.280493 142.986327,337.966785 146.300036,337.966785 Z" id="Oval-1-Copy-92" fill="#1D59E7" sketch:type="MSShapeGroup" transform="translate(146.300036, 331.966785) rotate(-289.000000) translate(-146.300036, -331.966785) "></path>
            <path d="M124.516467,333.668397 C127.830176,333.668397 130.516467,330.982105 130.516467,327.668397 C130.516467,324.354688 127.830176,321.668397 124.516467,321.668397 C121.202759,321.668397 118.516467,324.354688 118.516467,327.668397 C118.516467,330.982105 121.202759,333.668397 124.516467,333.668397 Z" id="Oval-1-Copy-100" fill="#1D59E7" sketch:type="MSShapeGroup" transform="translate(124.516467, 327.668397) rotate(-289.000000) translate(-124.516467, -327.668397) "></path>
            <circle id="Oval-1-Copy-94" fill="#1D59E7" sketch:type="MSShapeGroup" transform="translate(106.273381, 318.895178) rotate(-289.000000) translate(-106.273381, -318.895178) " cx="106.273381" cy="318.895178" r="6"></circle>
            <circle id="Oval-1-Copy-95" fill="#1D59E7" sketch:type="MSShapeGroup" transform="translate(88.560920, 307.264670) rotate(-289.000000) translate(-88.560920, -307.264670) " cx="88.5609199" cy="307.26467" r="6"></circle>
            <circle id="Oval-1-Copy-96" fill="#1D59E7" sketch:type="MSShapeGroup" transform="translate(72.544520, 292.965197) rotate(-289.000000) translate(-72.544520, -292.965197) " cx="72.5445201" cy="292.965197" r="6"></circle>
            <circle id="Oval-1-Copy-97" fill="#1D59E7" sketch:type="MSShapeGroup" transform="translate(59.436399, 275.268384) rotate(-289.000000) translate(-59.436399, -275.268384) " cx="59.4363993" cy="275.268384" r="6"></circle>
            <circle id="Oval-1-Copy-98" fill="#1D59E7" sketch:type="MSShapeGroup" transform="translate(48.510792, 257.085120) rotate(-289.000000) translate(-48.510792, -257.085120) " cx="48.5107918" cy="257.08512" r="6"></circle>
            <circle id="Oval-1-Copy-99" fill="#1D59E7" sketch:type="MSShapeGroup" transform="translate(39.281246, 236.232890) rotate(-289.000000) translate(-39.281246, -236.232890) " cx="39.2812458" cy="236.23289" r="6"></circle>
            <circle id="Oval-1-Copy-80" fill="#1D59E7" sketch:type="MSShapeGroup" transform="translate(193.745598, 328.366737) rotate(-289.000000) translate(-193.745598, -328.366737) " cx="193.745598" cy="328.366737" r="6"></circle>
            <circle id="Oval-1-Copy-81" fill="#0AFCFA" sketch:type="MSShapeGroup" transform="translate(214.442967, 338.021809) rotate(-289.000000) translate(-214.442967, -338.021809) " cx="214.442967" cy="338.021809" r="6"></circle>
            <circle id="Oval-1-Copy-82" fill="#0AFCFA" sketch:type="MSShapeGroup" transform="translate(189.594267, 350.293432) rotate(-289.000000) translate(-189.594267, -350.293432) " cx="189.594267" cy="350.293432" r="6"></circle>
            <circle id="Oval-1-Copy-83" fill="#1D59E7" sketch:type="MSShapeGroup" transform="translate(166.870635, 354.944944) rotate(-289.000000) translate(-166.870635, -354.944944) " cx="166.870635" cy="354.944944" r="6"></circle>
            <circle id="Oval-1-Copy-84" fill="#0AFCFA" sketch:type="MSShapeGroup" transform="translate(145.710991, 355.595755) rotate(-289.000000) translate(-145.710991, -355.595755) " cx="145.710991" cy="355.595755" r="6"></circle>
            <circle id="Oval-1-Copy-85" fill="#1D59E7" sketch:type="MSShapeGroup" transform="translate(124.460752, 351.568286) rotate(-289.000000) translate(-124.460752, -351.568286) " cx="124.460752" cy="351.568286" r="6"></circle>
            <circle id="Oval-1-Copy-86" fill="#1D59E7" sketch:type="MSShapeGroup" transform="translate(104.774501, 344.540117) rotate(-289.000000) translate(-104.774501, -344.540117) " cx="104.774501" cy="344.540117" r="6"></circle>
            <circle id="Oval-1-Copy-87" fill="#1D59E7" sketch:type="MSShapeGroup" transform="translate(85.653718, 333.915292) rotate(-289.000000) translate(-85.653718, -333.915292) " cx="85.6537183" cy="333.915292" r="6"></circle>
            <circle id="Oval-1-Copy-88" fill="#0AFCFA" sketch:type="MSShapeGroup" transform="translate(69.447269, 320.802776) rotate(-289.000000) translate(-69.447269, -320.802776) " cx="69.4472686" cy="320.802776" r="6"></circle>
            <circle id="Oval-1-Copy-89" fill="#1D59E7" sketch:type="MSShapeGroup" transform="translate(53.806288, 305.093604) rotate(-289.000000) translate(-53.806288, -305.093604) " cx="53.806288" cy="305.093604" r="6"></circle>
            <circle id="Oval-1-Copy-90" fill="#1D59E7" sketch:type="MSShapeGroup" transform="translate(41.025159, 288.571173) rotate(-289.000000) translate(-41.025159, -288.571173) " cx="41.0251585" cy="288.571173" r="6"></circle>
            <circle id="Oval-1-Copy-91" fill="#0AFCFA" sketch:type="MSShapeGroup" transform="translate(29.755017, 268.126518) rotate(-289.000000) translate(-29.755017, -268.126518) " cx="29.7550167" cy="268.126518" r="6"></circle>
            <circle id="Oval-1-Copy-65" fill="#1D59E7" sketch:type="MSShapeGroup" transform="translate(100.494273, 439.327071) rotate(-313.000000) translate(-100.494273, -439.327071) " cx="100.494273" cy="439.327071" r="6"></circle>
            <circle id="Oval-1-Copy-66" fill="#1D59E7" sketch:type="MSShapeGroup" transform="translate(122.228487, 445.038811) rotate(-313.000000) translate(-122.228487, -445.038811) " cx="122.228487" cy="445.038811" r="6"></circle>
            <circle id="Oval-1-Copy-67" fill="#1D59E7" sketch:type="MSShapeGroup" transform="translate(143.061411, 447.923847) rotate(-313.000000) translate(-143.061411, -447.923847) " cx="143.061411" cy="447.923847" r="6"></circle>
            <circle id="Oval-1-Copy-68" fill="#0AFCFA" sketch:type="MSShapeGroup" transform="translate(164.579693, 447.932824) rotate(-313.000000) translate(-164.579693, -447.932824) " cx="164.579693" cy="447.932824" r="6"></circle>
            <circle id="Oval-1-Copy-69" fill="#1D59E7" sketch:type="MSShapeGroup" transform="translate(185.943232, 444.606746) rotate(-313.000000) translate(-185.943232, -444.606746) " cx="185.943232" cy="444.606746" r="6"></circle>
            <circle id="Oval-1-Copy-70" fill="#1D59E7" sketch:type="MSShapeGroup" transform="translate(205.976938, 438.230960) rotate(-313.000000) translate(-205.976938, -438.230960) " cx="205.976938" cy="438.23096" r="6"></circle>
            <circle id="Oval-1-Copy-71" fill="#0AFCFA" sketch:type="MSShapeGroup" transform="translate(224.998812, 428.074113) rotate(-313.000000) translate(-224.998812, -428.074113) " cx="224.998812" cy="428.074113" r="6"></circle>
            <circle id="Oval-1-Copy-72" fill="#1D59E7" sketch:type="MSShapeGroup" transform="translate(241.294134, 414.721697) rotate(-313.000000) translate(-241.294134, -414.721697) " cx="241.294134" cy="414.721697" r="6"></circle>
            <circle id="Oval-1-Copy-73" fill="#0AFCFA" sketch:type="MSShapeGroup" transform="translate(256.118629, 397.428322) rotate(-313.000000) translate(-256.118629, -397.428322) " cx="256.118629" cy="397.428322" r="6"></circle>
            <circle id="Oval-1-Copy-74" fill="#1D59E7" sketch:type="MSShapeGroup" transform="translate(267.951353, 375.239564) rotate(-313.000000) translate(-267.951353, -375.239564) " cx="267.951353" cy="375.239564" r="6"></circle>
            <circle id="Oval-1-Copy-75" fill="#1D59E7" sketch:type="MSShapeGroup" transform="translate(197.716760, 391.220909) rotate(-313.000000) translate(-197.716760, -391.220909) " cx="197.71676" cy="391.220909" r="6"></circle>
            <path d="M177.73039,404.806752 C181.044098,404.806752 183.73039,402.12046 183.73039,398.806752 C183.73039,395.493043 181.044098,392.806752 177.73039,392.806752 C174.416681,392.806752 171.73039,395.493043 171.73039,398.806752 C171.73039,402.12046 174.416681,404.806752 177.73039,404.806752 Z" id="Oval-1-Copy-92" fill="#0AFCFA" sketch:type="MSShapeGroup" transform="translate(177.730390, 398.806752) rotate(-313.000000) translate(-177.730390, -398.806752) "></path>
            <path d="M157.081798,407.740155 C160.395506,407.740155 163.081798,405.053863 163.081798,401.740155 C163.081798,398.426446 160.395506,395.740155 157.081798,395.740155 C153.768089,395.740155 151.081798,398.426446 151.081798,401.740155 C151.081798,405.053863 153.768089,407.740155 157.081798,407.740155 Z" id="Oval-1-Copy-100" fill="#1D59E7" sketch:type="MSShapeGroup" transform="translate(157.081798, 401.740155) rotate(-313.000000) translate(-157.081798, -401.740155) "></path>
            <circle id="Oval-1-Copy-94" fill="#97C1FF" sketch:type="MSShapeGroup" transform="translate(134.847520, 401.145552) rotate(-313.000000) translate(-134.847520, -401.145552) " cx="134.84752" cy="401.145552" r="6"></circle>
            <circle id="Oval-1-Copy-95" fill="#1D59E7" sketch:type="MSShapeGroup" transform="translate(114.935827, 397.724861) rotate(-313.000000) translate(-114.935827, -397.724861) " cx="114.935827" cy="397.724861" r="6"></circle>
            <circle id="Oval-1-Copy-96" fill="#1D59E7" sketch:type="MSShapeGroup" transform="translate(94.487998, 390.176099) rotate(-313.000000) translate(-94.487998, -390.176099) " cx="94.4879984" cy="390.176099" r="6"></circle>
            <circle id="Oval-1-Copy-97" fill="#1D59E7" sketch:type="MSShapeGroup" transform="translate(75.315192, 380.340810) rotate(-313.000000) translate(-75.315192, -380.340810) " cx="75.3151921" cy="380.34081" r="6"></circle>
            <circle id="Oval-1-Copy-98" fill="#1D59E7" sketch:type="MSShapeGroup" transform="translate(56.938353, 368.173416) rotate(-313.000000) translate(-56.938353, -368.173416) " cx="56.9383531" cy="368.173416" r="6"></circle>
            <circle id="Oval-1-Copy-99" fill="#97C1FF" sketch:type="MSShapeGroup" transform="translate(40.025377, 352.877951) rotate(-313.000000) translate(-40.025377, -352.877951) " cx="40.0253774" cy="352.877951" r="6"></circle>
            <circle id="Oval-1-Copy-80" fill="#0AFCFA" sketch:type="MSShapeGroup" transform="translate(218.102988, 378.540378) rotate(-313.000000) translate(-218.102988, -378.540378) " cx="218.102988" cy="378.540378" r="6"></circle>
            <circle id="Oval-1-Copy-81" fill="#1D59E7" sketch:type="MSShapeGroup" transform="translate(243.851592, 380.535610) rotate(-313.000000) translate(-243.851592, -380.535610) " cx="243.851592" cy="380.53561" r="6"></circle>
            <circle id="Oval-1-Copy-82" fill="#1D59E7" sketch:type="MSShapeGroup" transform="translate(227.056039, 397.446436) rotate(-313.000000) translate(-227.056039, -397.446436) " cx="227.056039" cy="397.446436" r="6"></circle>
            <circle id="Oval-1-Copy-83" fill="#1D59E7" sketch:type="MSShapeGroup" transform="translate(209.188909, 409.938337) rotate(-313.000000) translate(-209.188909, -409.938337) " cx="209.188909" cy="409.938337" r="6"></circle>
            <circle id="Oval-1-Copy-84" fill="#1D59E7" sketch:type="MSShapeGroup" transform="translate(189.803038, 418.632476) rotate(-313.000000) translate(-189.803038, -418.632476) " cx="189.803038" cy="418.632476" r="6"></circle>
            <circle id="Oval-1-Copy-85" fill="#1D59E7" sketch:type="MSShapeGroup" transform="translate(169.072142, 424.103260) rotate(-313.000000) translate(-169.072142, -424.103260) " cx="169.072142" cy="424.10326" r="6"></circle>
            <circle id="Oval-1-Copy-86" fill="#1D59E7" sketch:type="MSShapeGroup" transform="translate(147.822506, 424.776282) rotate(-313.000000) translate(-147.822506, -424.776282) " cx="147.822506" cy="424.776282" r="6"></circle>
            <circle id="Oval-1-Copy-87" fill="#1D59E7" sketch:type="MSShapeGroup" transform="translate(127.353579, 423.353953) rotate(-313.000000) translate(-127.353579, -423.353953) " cx="127.353579" cy="423.353953" r="6"></circle>
            <circle id="Oval-1-Copy-88" fill="#1D59E7" sketch:type="MSShapeGroup" transform="translate(106.301364, 418.373567) rotate(-313.000000) translate(-106.301364, -418.373567) " cx="106.301364" cy="418.373567" r="6"></circle>
            <circle id="Oval-1-Copy-89" fill="#1D59E7" sketch:type="MSShapeGroup" transform="translate(85.029858, 411.297830) rotate(-313.000000) translate(-85.029858, -411.297830) " cx="85.029858" cy="411.29783" r="6"></circle>
            <circle id="Oval-1-Copy-90" fill="#0AFCFA" sketch:type="MSShapeGroup" transform="translate(64.906418, 399.982038) rotate(-313.000000) translate(-64.906418, -399.982038) " cx="64.9064181" cy="399.982038" r="6"></circle>
        </g>
    </g>
</svg>