<?xml version="1.0" encoding="UTF-8" standalone="no"?>
<svg width="111px" height="51px" viewBox="0 0 111 51" version="1.1" xmlns="http://www.w3.org/2000/svg" xmlns:xlink="http://www.w3.org/1999/xlink" xmlns:sketch="http://www.bohemiancoding.com/sketch/ns">
    <!-- Generator: Sketch 3.3.3 (12081) - http://www.bohemiancoding.com/sketch -->
    <title>perma-logo-orange copy 7</title>
    <desc>Created with Sketch.</desc>
    <defs></defs>
    <g id="Page-1" stroke="none" stroke-width="1" fill="none" fill-rule="evenodd" sketch:type="MSPage">
        <path d="M85.434,50.386 C79.97,50.386 74.472,48.392 68.626,44.29 C62.975,40.335 57.661,34.869 52.521,29.583 C46.932,23.834 41.153,17.89 35.173,14.151 C31.462,11.832 28.117,10.704 24.949,10.704 C18.966,10.704 14.438,13.349 12.198,18.154 C11.223,20.262 10.704,22.755 10.704,25.352 C10.704,27.431 11.006,29.37 11.6,31.115 C13.488,36.726 18.086,39.682 24.901,39.682 C28.044,39.682 31.425,38.374 35.236,35.683 C37.765,33.89 40.567,31.436 44.044,27.968 L51.603,35.547 C47.639,39.501 44.498,42.238 41.419,44.421 C35.731,48.437 30.331,50.386 24.901,50.386 C13.561,50.386 4.799,44.465 1.462,34.548 C0.494,31.708 0,28.608 0,25.352 C0,21.155 0.838,17.216 2.49,13.645 C6.535,4.969 14.718,0 24.949,0 C30.182,0 35.383,1.66 40.847,5.075 C47.925,9.501 54.163,15.917 60.196,22.121 C65.208,27.277 69.942,32.146 74.769,35.524 C78.758,38.323 82.245,39.682 85.434,39.682 C92.397,39.682 97.037,36.728 98.853,31.139 C99.389,29.484 99.662,27.639 99.662,25.662 C99.662,22.865 99.11,20.224 98.066,18.023 C95.799,13.233 91.432,10.704 85.434,10.704 C81.909,10.704 78.293,11.885 74.382,14.314 C71.921,15.846 69.295,17.903 66.358,20.601 C66.17,20.774 65.988,20.943 65.805,21.113 L58.501,13.288 C58.707,13.096 58.914,12.904 59.121,12.715 C62.549,9.565 65.694,7.114 68.731,5.224 C74.391,1.708 79.854,0 85.434,0 C95.567,0 103.697,4.898 107.739,13.44 C109.457,17.062 110.366,21.289 110.366,25.662 C110.366,28.759 109.918,31.713 109.035,34.441 C105.79,44.428 96.968,50.386 85.434,50.386" id="perma-logo-orange-copy-7" fill="#FFFFFF" sketch:type="MSShapeGroup"></path>
    </g>
</svg>