<?xml version="1.0" encoding="UTF-8" standalone="no"?>
<svg width="84px" height="84px" viewBox="0 0 84 84" version="1.1" xmlns="http://www.w3.org/2000/svg" xmlns:xlink="http://www.w3.org/1999/xlink" xmlns:sketch="http://www.bohemiancoding.com/sketch/ns">
    <!-- Generator: Sketch 3.4.2 (15855) - http://www.bohemiancoding.com/sketch -->
    <title>Courts</title>
    <desc>Created with Sketch.</desc>
    <defs>
        <circle id="path-1" cx="41" cy="41" r="41"></circle>
    </defs>
    <g id="Page-1" stroke="none" stroke-width="1" fill="none" fill-rule="evenodd" sketch:type="MSPage">
        <g id="Courts" sketch:type="MSLayerGroup" transform="translate(1.000000, 1.000000)">
            <path d="M41,14 L72,29 L72,35 L11,34 L11,29 L41,14 Z" id="Path-Copy-6" stroke="#333333" fill="#FFFFFF" sketch:type="MSShapeGroup"></path>
            <mask id="mask-2" sketch:name="Mask" fill="white">
                <use xlink:href="#path-1"></use>
            </mask>
            <use id="Mask" stroke="#333333" sketch:type="MSShapeGroup" xlink:href="#path-1"></use>
            <path d="M-15.5,55.5 L95.518013,55.5" id="Line" stroke="#333333" stroke-linecap="square" sketch:type="MSShapeGroup" mask="url(#mask-2)"></path>
            <rect id="Path-Copy" stroke="#333333" fill="#FFFFFF" sketch:type="MSShapeGroup" mask="url(#mask-2)" x="8" y="41" width="67" height="33"></rect>
            <rect id="Path-Copy-5" stroke="#333333" fill="#FFFFFF" sketch:type="MSShapeGroup" mask="url(#mask-2)" x="8" y="34" width="67" height="4"></rect>
            <rect id="Rectangle-1-Copy-4" stroke="#333333" fill="#FFFFFF" sketch:type="MSShapeGroup" mask="url(#mask-2)" x="33" y="32" width="16" height="42"></rect>
            <path d="M12.5,70.5 L77.5076904,70.5" id="Line" stroke="#333333" stroke-linecap="square" sketch:type="MSShapeGroup" mask="url(#mask-2)"></path>
            <path d="M4.5,67.5 L94.5055542,67.5" id="Line-Copy-3" stroke="#333333" stroke-linecap="square" sketch:type="MSShapeGroup" mask="url(#mask-2)"></path>
            <path d="M33.5,64.5 L48.5,64.5" id="Line-Copy-4" stroke="#333333" stroke-linecap="square" sketch:type="MSShapeGroup" mask="url(#mask-2)"></path>
            <rect id="Rectangle-12" stroke="#333333" sketch:type="MSShapeGroup" mask="url(#mask-2)" x="38" y="53" width="6" height="12"></rect>
            <path d="M41,18 L75,35 L8,35 L41,18 Z" id="Path-Copy-2" stroke="#333333" fill="#FFFFFF" sketch:type="MSShapeGroup" mask="url(#mask-2)"></path>
            <path d="M41,25 L61,35 L22,35 L41,25 Z" id="Path-Copy-7" stroke="#333333" fill="#FFFFFF" sketch:type="MSShapeGroup" mask="url(#mask-2)"></path>
            <g id="Group" mask="url(#mask-2)" stroke="#333333" fill="#FFFFFF" sketch:type="MSShapeGroup">
                <g transform="translate(12.000000, 37.000000)">
                    <rect id="Rectangle-12-Copy" x="0" y="0" width="6" height="31"></rect>
                    <rect id="Rectangle-12-Copy-2" x="10" y="0" width="6" height="31"></rect>
                    <rect id="Rectangle-12-Copy-3" x="41" y="0" width="6" height="31"></rect>
                    <rect id="Rectangle-12-Copy-4" x="51.5" y="0" width="6" height="31"></rect>
                </g>
            </g>
            <path d="M8.5,36.5 L8.5,44.5" id="Line" stroke="#333333" stroke-linecap="square" sketch:type="MSShapeGroup" mask="url(#mask-2)"></path>
            <path d="M74.5,36.5 L74.5,44.5" id="Line-Copy-6" stroke="#333333" stroke-linecap="square" sketch:type="MSShapeGroup" mask="url(#mask-2)"></path>
            <path d="M40.5,7.5 L40.5,14.5" id="Line" stroke="#333333" stroke-linecap="square" sketch:type="MSShapeGroup" mask="url(#mask-2)"></path>
            <path d="M40,6.5 C40,6.5 41,5.5 43,5.5 C45,5.5 45,6.5 47,6.5 C49,6.5 49,5.5 49,5.5 L49,11.5 C49,11.5 48.9158437,12.5 47,12.5 C45.0841563,12.5 44.3198649,11.5 43,11.5 C41,11.5 40,12.5 40,12.5 L40,6.5 Z" id="Rectangle-32" stroke="#333333" fill="#FFFFFF" sketch:type="MSShapeGroup" mask="url(#mask-2)"></path>
            <circle id="Oval-3-Copy-4" stroke="#333333" fill="#FFFFFF" sketch:type="MSShapeGroup" mask="url(#mask-2)" cx="41" cy="41" r="4"></circle>
            <path d="M33.5,47.5 L48.0602198,47.5" id="Line" stroke="#333333" stroke-linecap="square" sketch:type="MSShapeGroup" mask="url(#mask-2)"></path>
        </g>
    </g>
</svg>