<?xml version="1.0" encoding="UTF-8" standalone="no"?>
<svg width="84px" height="84px" viewBox="0 0 84 84" version="1.1" xmlns="http://www.w3.org/2000/svg" xmlns:xlink="http://www.w3.org/1999/xlink" xmlns:sketch="http://www.bohemiancoding.com/sketch/ns">
    <!-- Generator: Sketch 3.4.2 (15855) - http://www.bohemiancoding.com/sketch -->
    <title>signup-libraries-bg@1x</title>
    <desc>Created with Sketch.</desc>
    <defs>
        <circle id="path-1" cx="41" cy="41" r="41"></circle>
        <circle id="path-3" cx="41" cy="41" r="41"></circle>
    </defs>
    <g id="Page-1" stroke="none" stroke-width="1" fill="none" fill-rule="evenodd" sketch:type="MSPage">
        <g id="signup-libraries-bg" sketch:type="MSLayerGroup" transform="translate(1.000000, 1.000000)">
            <circle id="Oval-18" stroke="#333333" fill="#FFFFFF" sketch:type="MSShapeGroup" cx="41.5" cy="12.5" r="5.5"></circle>
            <mask id="mask-2" sketch:name="Mask" fill="white">
                <use xlink:href="#path-1"></use>
            </mask>
            <use id="Mask" sketch:type="MSShapeGroup" xlink:href="#path-1"></use>
            <path d="M-15.5,55.5 L95.518013,55.5" id="Line" stroke="#333333" stroke-linecap="square" sketch:type="MSShapeGroup" mask="url(#mask-2)"></path>
            <path d="M-15.5,42.5 L95.518013,42.5" id="Line-Copy" stroke="#333333" stroke-linecap="square" sketch:type="MSShapeGroup" mask="url(#mask-2)"></path>
            <rect id="Path-Copy" stroke="#333333" fill="#F6F8F1" sketch:type="MSShapeGroup" mask="url(#mask-2)" x="8" y="41" width="67" height="33"></rect>
            <rect id="Rectangle-1-Copy-5" stroke="#333333" fill="#FFFFFF" sketch:type="MSShapeGroup" mask="url(#mask-2)" x="33" y="22" width="4" height="17"></rect>
            <rect id="Rectangle-1-Copy-7" stroke="#333333" fill="#FFFFFF" sketch:type="MSShapeGroup" mask="url(#mask-2)" x="39" y="22" width="4" height="19"></rect>
            <rect id="Rectangle-1-Copy-8" stroke="#333333" fill="#FFFFFF" sketch:type="MSShapeGroup" mask="url(#mask-2)" x="45" y="22" width="4" height="17"></rect>
            <path d="M12.5,70.5 L77.5076904,70.5" id="Line" stroke="#333333" stroke-linecap="square" sketch:type="MSShapeGroup" mask="url(#mask-2)"></path>
            <path d="M4.5,67.5 L94.5055542,67.5" id="Line-Copy-3" stroke="#333333" stroke-linecap="square" sketch:type="MSShapeGroup" mask="url(#mask-2)"></path>
            <path d="M9.38478556,64.5 L74.5307083,64.5" id="Line-Copy-4" stroke="#333333" stroke-linecap="square" sketch:type="MSShapeGroup" mask="url(#mask-2)"></path>
            <rect id="Rectangle-12-Copy-5" stroke="#333333" sketch:type="MSShapeGroup" mask="url(#mask-2)" x="34" y="49" width="14" height="16"></rect>
            <rect id="Rectangle-12" stroke="#333333" sketch:type="MSShapeGroup" mask="url(#mask-2)" x="38" y="53" width="6" height="12"></rect>
            <path d="M33.5,19.5 L48.0602198,19.5" id="Line" stroke="#333333" stroke-linecap="square" sketch:type="MSShapeGroup" mask="url(#mask-2)"></path>
            <path d="M17,28.3157895 C17,28.3157895 17,23.8947369 22,22 C27,23.8947369 27,28.3157895 27,28.3157895 L27,34 L22,37 L17,34 L17,28.3157895 Z" id="Rectangle-1-Copy-9" stroke="#333333" fill="#FFFFFF" sketch:type="MSShapeGroup" mask="url(#mask-2)"></path>
            <path d="M56,28.3157895 C56,28.3157895 56,23.8947369 61,22 C66,23.8947369 66,28.3157895 66,28.3157895 L66,34 L61,37 L56,34 L56,28.3157895 Z" id="Rectangle-1-Copy-10" stroke="#333333" fill="#FFFFFF" sketch:type="MSShapeGroup" mask="url(#mask-2)"></path>
            <path d="M17.5,28.5 L25.5622578,28.5" id="Line" stroke="#333333" stroke-linecap="square" sketch:type="MSShapeGroup" mask="url(#mask-2)"></path>
            <path d="M57,28.5 L65.0622578,28.5" id="Line-Copy-5" stroke="#333333" stroke-linecap="square" sketch:type="MSShapeGroup" mask="url(#mask-2)"></path>
            <g id="Group" mask="url(#mask-2)" stroke="#333333" sketch:type="MSShapeGroup">
                <g transform="translate(8.000000, 10.000000)">
                    <path d="M67,33.5 C67,14.9984609 52.0015391,0 33.5,0 C14.9984609,0 0,14.9984609 0,33.5 L67,33.5 Z" id="Oval-3-Copy" fill="#F6F8F1" fill-rule="evenodd"></path>
                    <path d="M57,33.5 C57,14.9984609 48,0 33.5,0 C19,0 10,14.9984609 10,33.5 L57,33.5 Z" id="Oval-3-Copy-2" fill="#F6F8F1" fill-rule="evenodd"></path>
                    <path d="M47,33.5 C47,14.9984609 42.0000001,0 33.5,0 C24.9999999,0 20,14.9984609 20,33.5 L47,33.5 Z" id="Oval-3-Copy-3" fill="#F6F8F1" fill-rule="evenodd"></path>
                    <path d="M33.5,0.5 L33.5,32.6360817" id="Line" stroke-linecap="square" fill="none"></path>
                </g>
            </g>
            <rect id="Path-Copy-3" stroke="#333333" fill="#F6F8F1" sketch:type="MSShapeGroup" mask="url(#mask-2)" x="8" y="42" width="67" height="5"></rect>
            <rect id="Rectangle-51" stroke="#333333" fill="#FFFFFF" sketch:type="MSShapeGroup" mask="url(#mask-2)" x="17" y="59" width="4" height="15"></rect>
            <rect id="Rectangle-51-Copy" stroke="#333333" fill="#F6F8F1" sketch:type="MSShapeGroup" mask="url(#mask-2)" x="61" y="59" width="4" height="15"></rect>
            <path d="M16,53 C14.3431458,53 13,54.3431458 13,56 C13,57.6568542 14.3431458,59 16,59 C16,60.6568542 17.3431458,62 19,62 C20.6568542,62 22,60.6568542 22,59 C23.6568542,59 25,57.6568542 25,56 C25,54.3431458 23.6568542,53 22,53 C22,51.3431458 20.6568542,50 19,50 C17.3431458,50 16,51.3431458 16,53 Z" id="Oval-10" stroke="#333333" fill="#F6F8F1" sketch:type="MSShapeGroup" mask="url(#mask-2)"></path>
            <path d="M60,53 C58.3431458,53 57,54.3431458 57,56 C57,57.6568542 58.3431458,59 60,59 C60,60.6568542 61.3431458,62 63,62 C64.6568542,62 66,60.6568542 66,59 C67.6568542,59 69,57.6568542 69,56 C69,54.3431458 67.6568542,53 66,53 C66,51.3431458 64.6568542,50 63,50 C61.3431458,50 60,51.3431458 60,53 Z" id="Oval-10-Copy" stroke="#333333" fill="#F6F8F1" sketch:type="MSShapeGroup" mask="url(#mask-2)"></path>
            <path d="M13.5,42.5 L13.5,46.5" id="Line" stroke="#333333" stroke-linecap="square" sketch:type="MSShapeGroup" mask="url(#mask-2)"></path>
            <path d="M23.5,42.5 L23.5,46.5" id="Line-Copy-2" stroke="#333333" stroke-linecap="square" sketch:type="MSShapeGroup" mask="url(#mask-2)"></path>
            <path d="M59.5,42.5 L59.5,46.5" id="Line-Copy-9" stroke="#333333" stroke-linecap="square" sketch:type="MSShapeGroup" mask="url(#mask-2)"></path>
            <path d="M69.5,42.5 L69.5,46.5" id="Line-Copy-10" stroke="#333333" stroke-linecap="square" sketch:type="MSShapeGroup" mask="url(#mask-2)"></path>
            <path d="M35.5,42.5 L35.5,46.5" id="Line-Copy-7" stroke="#333333" stroke-linecap="square" sketch:type="MSShapeGroup" mask="url(#mask-2)"></path>
            <path d="M48.5,42.5 L48.5,46.5" id="Line-Copy-8" stroke="#333333" stroke-linecap="square" sketch:type="MSShapeGroup" mask="url(#mask-2)"></path>
            <mask id="mask-4" sketch:name="Mask" fill="white">
                <use xlink:href="#path-3"></use>
            </mask>
            <use id="Mask" stroke="#333333" sketch:type="MSShapeGroup" xlink:href="#path-3"></use>
        </g>
    </g>
</svg>