<svg viewBox="0 0 83 83" xmlns="http://www.w3.org/2000/svg"><g fill="#333"><path d="m41.5 0c-11.7489 0-22.365 4.9159-29.9224 12.7891h-.0249v.0261c-7.1471 7.4585-11.5527 17.5638-11.5527 28.6848 0 22.8828 18.6172 41.5 41.5 41.5s41.5-18.6172 41.5-41.5-18.6172-41.5-41.5-41.5zm16.9678 4.7394c4.3182 2.0011 8.23 4.734 11.5662 8.0497h-11.5662zm0 9.0497h12.5278c5.3145 5.6533 9.0229 12.8257 10.4006 20.791h-11.1628v-4.2344h-.1238c.8582-.4971 1.5098-1.3264 1.7527-2.3252 1.6338-.3975 2.8262-1.8818 2.8262-3.5908s-1.1924-3.1934-2.8262-3.5908c-.3975-1.6338-1.8818-2.8262-3.5908-2.8262s-3.1934 1.1924-3.5908 2.8262c-1.6338.3975-2.8252 1.8809-2.8252 3.5908s1.1914 3.1934 2.8252 3.5908c.2429.9988.8945 1.8281 1.7528 2.3252h-.1239v4.2344h-7.8418zm9.8037 16.0566c-1.3359 0-2.4834-.998-2.6689-2.3213l-.0527-.373-.373-.0527c-1.3232-.1855-2.3213-1.333-2.3213-2.6689s.998-2.4834 2.3213-2.6689l.373-.0527.0527-.373c.1855-1.3242 1.333-2.3223 2.6689-2.3223s2.4834.998 2.6689 2.3223l.0527.373.373.0527c1.3242.1855 2.3223 1.333 2.3223 2.6689s-.998 2.4834-2.3223 2.6689l-.373.0527-.0527.373c-.1855 1.3232-1.333 2.3213-2.6689 2.3213zm0 1c.3328 0 .6526-.0573.9619-.1421v3.8765h-1.9238v-3.8765c.3093.0848.6292.1421.9619.1421zm13.2915 4.7344c.0858.5835.1638 1.1696.2245 1.7607h-24.6332l-.4443-1.7607zm-33.231-31.9932c0 3.7676-3.0645 6.832-6.832 6.832s-6.833-3.0645-6.833-6.832c0-.7026.1167-1.3926.3269-2.0574 1.959-.3177 3.9646-.4919 6.0061-.5168v2.7812l2.4248 2.4248.707-.707-2.1318-2.1318v-2.3672c2.0413.0249 4.0466.199 6.0054.5167.21.6637.3267 1.3534.3267 2.0575zm-22.0429 31.9932-.4443 1.7607h-24.6323c.0607-.5912.1387-1.1772.2245-1.7607zm-24.6853-1c.0815-.4717.1636-.943.2615-1.4089l12.8916-6.2708 9.6436 4.6913v2.9884zm22.7966-20.791v16.6914l-9.1436-4.4482v-2.3733c.8774-.288 1.7898-.0806 2.751.1428.6729.1553 1.3574.3135 2.0586.3135.5332 0 1.0752-.0918 1.627-.3467l.29-.1348v-5.4258l-.71.3281c-.9668.4473-1.9736.2139-3.04-.0332-1.1865-.2744-2.4121-.5557-3.6865.0332l-.29.1348v7.3613l-12.1019 5.8867c1.681-6.902 5.1337-13.1134 9.8495-18.1299h12.396zm-9.1436 7.0263v-1.4854c.877-.2871 1.791-.0752 2.751.1475.9629.2227 1.9512.4521 2.9756.2119v3.2852c-.877.2852-1.79.0742-2.75-.1475-.6729-.1553-1.3574-.3145-2.0576-.3145-.3037 0-.6094.0303-.9189.1025v-1.7998zm9.1436-16.0163v7.99h-11.4343c3.3024-3.282 7.1682-5.9943 11.4343-7.99zm-12.9326 44.3454v-.4297h3.1064v19.2988h-3.1064zm-1 7.8838v10.4587c-1.7195-2.0499-3.2434-4.2688-4.5352-6.6332v-10.7094h4.5352v6.8838zm-5.5352-7.8838v9.75c-1.7157-3.5923-2.9141-7.4757-3.5057-11.5537h3.5057zm11.3035 23.9756h50.5278c-6.9318 5.5497-15.7139 8.8799-25.2639 8.8799s-18.3322-3.3302-25.2639-8.8799zm51.7267-1h-52.9256c-1.129-.9771-2.2059-2.0121-3.2211-3.1064h59.3677c-1.0151 1.0944-2.092 2.1294-3.2211 3.1064zm-42.9384-5.4092-2.4395-19c-.0547-.4258.0762-.8545.3594-1.1758.2832-.3223.6914-.5068 1.1211-.5068h34.8691c.4287 0 .8369.1846 1.1201.5059.2832.3223.415.751.3604 1.1768l-2.4395 19c-.0957.7422-.7324 1.3027-1.4805 1.3027h-29.9912c-.749 0-1.3848-.5596-1.4795-1.3027zm9.5479-42.166c0-2.3906 2.4434-3.2031 2.5469-3.2363l.2373-.0762.082-.2334c.0098-.0254.9531-2.583 4.0273-2.583 3.5049 0 4.9229 2.3955 6.2949 4.7119.4863.8213.9482 1.6025 1.4883 2.2285-.2285.5952-.5435 1.0415-.9988 1.4409-.2263-.9332-.7491-2.4502-1.8665-3.2749-.6865-.5059-1.4893-.6807-2.3828-.5215-3.9727.7109-5.5908-.4297-5.6006-.4375l-.5801-.4453-.2051.7021c-.208.7139-.9092 1.2793-1.5273 1.7773-.3398.2744-.6602.5332-.8955.8086-.189.2219-.3213.469-.4216.718-.1111-.4207-.1985-.9453-.1985-1.5793zm.582 3.4561.2571-.1926.1072-.0125c-.0002-.0015-.0026-.0261-.005-.064l.0372-.0278-.0408-.0565c-.011-.3159.012-1.0848.4441-1.5929.1738-.2041.459-.4346.7617-.6777.5605-.4521 1.2314-.9932 1.626-1.7158.8428.373 2.6914.8877 5.835.3242.6221-.1094 1.1484 0 1.6113.3408 1.3066.9609 1.6211 3.3682 1.624 3.3926l.0631-.0078.4291.2812c.0361.0244.8926.6025.6582 1.8564-.1523.8135-.7119 1.3398-1.1445 1.5439l-.2227.1055-.0518.2412c-.5898 2.7275-2.9775 4.708-5.6777 4.708-2.7432 0-5.0771-1.9355-5.6768-4.707l-.0527-.2471-.2314-.1035c-.5781-.2588-.9629-.8105-1.0547-1.5137-.1426-1.0752.3799-1.6357.7041-1.875zm3.0713 8.6115c.9672.5348 2.0714.8347 3.2402.8347 1.1858 0 2.3167-.3287 3.3076-.9009v1.2886c0 .901.3816 1.729 1.0093 2.3099-2.5093 1.9635-6.0596 1.9628-8.5659-.0001.6273-.5808 1.0088-1.4089 1.0088-2.3098zm-1.8855 4.1045c1.4817 1.2661 3.319 1.905 5.1599 1.905 1.84 0 3.677-.6396 5.1595-1.905.1564.0684.3192.1257.4889.1687l7.6992 1.9492c.9541.2412 1.6201 1.0977 1.6201 2.082v.1113h-29.9365v-.1113c0-.9844.666-1.8408 1.6211-2.082l7.6992-1.9492c.1696-.043.3323-.1003.4885-.1687zm31.2068 17.6502v-3.1113h12.0442c-.3844 1.0613-.8186 2.0981-1.2871 3.1162h-2.2639v-.0049zm2.0879-4.1113v-1.7852h10.843c-.1694.6008-.3516 1.1959-.5476 1.7852zm8.1966 5.1162c-.5243 1.0615-1.0876 2.1006-1.6998 3.1074h-11.5701v-3.1074zm-11.4252 4.1074h9.084c-1.0331 1.592-2.1743 3.1062-3.4142 4.5342h-5.6698zm14.2852-11.7595v-.2493h-12.0566v2.7852h-2.0879v4.1162h-2.9854v5.1074h1.8447v4.5342h-6.9235c.2529-.3356.4281-.7349.485-1.1758l2.4395-19c.0908-.7109-.1289-1.4268-.6016-1.9639-.4736-.5371-1.1553-.8457-1.8711-.8457h-1.4668v-.1113c0-1.4434-.9766-2.6973-2.374-3.0508l-7.6992-1.9492c-.9541-.2422-1.6211-1.0986-1.6211-2.082v-1.9999c1.0957-.9252 1.9252-2.1864 2.2939-3.6554.751-.4434 1.3086-1.2441 1.4775-2.1465.2275-1.2158-.2412-2.0264-.6377-2.4717.6016-.5234 1.0098-1.1279 1.2998-1.9131l.1934-.5244-.2168-.2256c-.5537-.5762-1.0439-1.4033-1.5625-2.2803-1.3721-2.3174-3.0801-5.2021-7.1553-5.2021-3.1709 0-4.5137 2.2725-4.8682 3.0166-1.1582.4463-3.0254 1.7627-3.0254 4.1123 0 1.4355.3828 2.4346.6455 2.9502-.6152.6299-.8896 1.5215-.7598 2.5117.125.9473.6445 1.7441 1.4082 2.1787.3831 1.5287 1.229 2.8213 2.3594 3.7451v1.9043c0 .9834-.666 1.8398-1.6201 2.082l-7.6982 1.9492c-1.3994.3535-2.376 1.6074-2.376 3.0508v.1113h-1.4658c-.7168 0-1.3994.3086-1.8721.8467-.4727.5371-.6914 1.2529-.6006 1.9629l2.4395 19c.0563.4409.231.8402.4836 1.1758h-8.9417v-20.2988h-5.1064v1.4297h-4.5352v-2.8037h-4.633c-.1902-1.5886-.2994-3.2018-.2994-4.8408 0-1.0642.054-2.1155.135-3.1592h25.489l.9482-3.7607h-2.1719v-30.2339c2.7-1.1744 5.5518-2.0598 8.5173-2.6239-.1497.6102-.2507 1.2311-.2507 1.8646 0 4.3184 3.5137 7.832 7.833 7.832s7.832-3.5137 7.832-7.832c0-.6351-.1008-1.2556-.2502-1.8647 2.917.5549 5.7252 1.4182 8.386 2.5645v30.2935h-2.041l.9482 3.7607h25.49c.0811 1.0437.135 2.095.135 3.1592 0 3.5294-.4563 6.9539-1.3086 10.22z"/><path d="m41.5 53.5078c-1.9375 0-3.5137 1.5762-3.5137 3.5127 0 1.9375 1.5762 3.5137 3.5137 3.5137 1.9365 0 3.5127-1.5762 3.5127-3.5137 0-1.9365-1.5762-3.5127-3.5127-3.5127zm0 6.0264c-1.3857 0-2.5137-1.1279-2.5137-2.5137s1.1279-2.5127 2.5137-2.5127 2.5127 1.127 2.5127 2.5127-1.127 2.5137-2.5127 2.5137z"/></g></svg>