<?xml version="1.0" encoding="UTF-8" standalone="no"?>
<svg width="416px" height="416px" viewBox="0 0 416 416" version="1.1" xmlns="http://www.w3.org/2000/svg" xmlns:xlink="http://www.w3.org/1999/xlink" xmlns:sketch="http://www.bohemiancoding.com/sketch/ns">
    <!-- Generator: Sketch 3.4.2 (15855) - http://www.bohemiancoding.com/sketch -->
    <title>websites-change-square</title>
    <desc>Created with Sketch.</desc>
    <defs>
        <rect id="path-1" x="0" y="0" width="76" height="76" rx="2"></rect>
        <rect id="path-3" x="33" y="18" width="38" height="25"></rect>
        <rect id="path-5" x="0" y="0" width="76" height="76" rx="2"></rect>
        <rect id="path-7" x="0" y="0" width="76" height="76" rx="2"></rect>
        <rect id="path-9" x="33" y="18" width="38" height="25"></rect>
        <rect id="path-11" x="0" y="0" width="76" height="76" rx="2"></rect>
        <rect id="path-13" x="0" y="0" width="76" height="76" rx="2"></rect>
        <rect id="path-15" x="0" y="0" width="76" height="76" rx="2"></rect>
        <rect id="path-17" x="0" y="0" width="76" height="76" rx="2"></rect>
        <rect id="path-19" x="0" y="0" width="76" height="76" rx="2"></rect>
        <rect id="path-21" x="0" y="0" width="76" height="76" rx="2"></rect>
        <rect id="path-23" x="0" y="0" width="76" height="76" rx="2"></rect>
        <rect id="path-25" x="33" y="18" width="38" height="25"></rect>
    </defs>
    <g id="Page-1" stroke="none" stroke-width="1" fill="none" fill-rule="evenodd" sketch:type="MSPage">
        <g id="websites-change-square" sketch:type="MSArtboardGroup">
            <g id="Group-Copy-10" sketch:type="MSLayerGroup" transform="translate(2.000000, 338.000000)">
                <mask id="mask-2" sketch:name="Mask" fill="white">
                    <use xlink:href="#path-1"></use>
                </mask>
                <use id="Mask" stroke="#2672F2" stroke-width="2" fill="#FFFFFF" sketch:type="MSShapeGroup" xlink:href="#path-1"></use>
                <rect id="Rectangle-323" fill="#2672F2" sketch:type="MSShapeGroup" mask="url(#mask-2)" x="5" y="5" width="66" height="10"></rect>
                <rect id="Rectangle-323-Copy-6" fill="#2672F2" sketch:type="MSShapeGroup" mask="url(#mask-2)" x="5" y="54" width="38" height="33"></rect>
                <g id="Group" mask="url(#mask-2)" fill="#2672F2" sketch:type="MSShapeGroup">
                    <g transform="translate(5.000000, 18.000000)">
                        <rect id="Rectangle-323-Copy-2" x="0" y="0" width="25" height="4"></rect>
                        <rect id="Rectangle-323-Copy-3" x="0" y="7" width="25" height="4"></rect>
                        <rect id="Rectangle-323-Copy-4" x="0" y="14" width="25" height="4"></rect>
                        <rect id="Rectangle-323-Copy-5" x="0" y="21" width="25" height="4"></rect>
                    </g>
                </g>
                <path d="M5.5,48.5 L70.5,48.5" id="Line" stroke="#2672F2" stroke-linecap="square" sketch:type="MSShapeGroup" mask="url(#mask-2)"></path>
                <g id="Group-Copy-2" mask="url(#mask-2)" fill="#2672F2" sketch:type="MSShapeGroup">
                    <g transform="translate(46.000000, 54.000000)">
                        <rect id="Rectangle-323-Copy-2" x="0" y="0" width="25" height="4"></rect>
                        <rect id="Rectangle-323-Copy-3" x="0" y="7" width="25" height="4"></rect>
                        <rect id="Rectangle-323-Copy-4" x="0" y="14" width="25" height="4"></rect>
                    </g>
                </g>
                <mask id="mask-4" sketch:name="Mask" fill="white">
                    <use xlink:href="#path-3"></use>
                </mask>
                <use id="Mask" fill="#2672F2" sketch:type="MSShapeGroup" xlink:href="#path-3"></use>
                <g id="Oval-197-Copy-+-Oval-197-Copy-2-+-Oval-197" mask="url(#mask-4)" stroke="#FFFFFF" fill="#2672F2" sketch:type="MSShapeGroup">
                    <g transform="translate(34.000000, 22.000000)">
                        <path d="M10.1280595,12.3470985 C11.1455116,11.47606 11.7894737,10.1876129 11.7894737,8.75 C11.7894737,6.12664744 9.64515328,4 7,4 C4.35484672,4 2.21052632,6.12664744 2.21052632,8.75 C2.21052632,10.1876129 2.85448839,11.47606 3.87194052,12.3470985 C0,15.1568952 0,23 0,23 L14,23 C14,23 14,15.1568952 10.1280595,12.3470985 Z" id="Oval-197-Copy"></path>
                        <path d="M31.6811938,13.4684566 C32.5532957,12.6891063 33.1052632,11.5362852 33.1052632,10.25 C33.1052632,7.90278981 31.2672742,6 29,6 C26.7327258,6 24.8947368,7.90278981 24.8947368,10.25 C24.8947368,11.5362852 25.4467043,12.6891063 26.3188062,13.4684566 C23,15.9824852 23,23 23,23 L35,23 C35,23 35,15.9824852 31.6811938,13.4684566 Z" id="Oval-197-Copy-2"></path>
                        <path d="M24.7452236,11.4223453 C26.1260515,10.2303979 27,8.46725978 27,6.5 C27,2.91014913 24.0898509,0 20.5,0 C16.9101491,0 14,2.91014913 14,6.5 C14,8.46725978 14.8739485,10.2303979 16.2547764,11.4223453 C11,15.2673303 11,26 11,26 L30,26 C30,26 30,15.2673303 24.7452236,11.4223453 Z" id="Oval-197"></path>
                    </g>
                </g>
                <mask id="mask-6" sketch:name="Mask Copy 2" fill="white">
                    <use xlink:href="#path-5"></use>
                </mask>
                <use id="Mask-Copy-2" stroke="#2672F2" stroke-width="2" sketch:type="MSShapeGroup" xlink:href="#path-5"></use>
            </g>
            <g id="Group-Copy-11" sketch:type="MSLayerGroup" transform="translate(339.000000, 338.000000)">
                <mask id="mask-8" sketch:name="Mask" fill="white">
                    <use xlink:href="#path-7"></use>
                </mask>
                <use id="Mask" stroke="#2672F2" stroke-width="2" fill="#FFFFFF" sketch:type="MSShapeGroup" xlink:href="#path-7"></use>
                <rect id="Rectangle-323" fill="#2672F2" sketch:type="MSShapeGroup" mask="url(#mask-8)" x="5" y="5" width="66" height="10"></rect>
                <rect id="Rectangle-323-Copy-6" fill="#2672F2" sketch:type="MSShapeGroup" mask="url(#mask-8)" x="5" y="54" width="38" height="33"></rect>
                <g id="Group" mask="url(#mask-8)" fill="#2672F2" sketch:type="MSShapeGroup">
                    <g transform="translate(5.000000, 18.000000)">
                        <rect id="Rectangle-323-Copy-2" x="0" y="0" width="25" height="4"></rect>
                        <rect id="Rectangle-323-Copy-3" x="0" y="7" width="25" height="4"></rect>
                        <rect id="Rectangle-323-Copy-4" x="0" y="14" width="25" height="4"></rect>
                        <rect id="Rectangle-323-Copy-5" x="0" y="21" width="25" height="4"></rect>
                    </g>
                </g>
                <path d="M5.5,48.5 L70.5,48.5" id="Line" stroke="#2672F2" stroke-linecap="square" sketch:type="MSShapeGroup" mask="url(#mask-8)"></path>
                <g id="Group-Copy-2" mask="url(#mask-8)" fill="#2672F2" sketch:type="MSShapeGroup">
                    <g transform="translate(46.000000, 54.000000)">
                        <rect id="Rectangle-323-Copy-2" x="0" y="0" width="25" height="4"></rect>
                        <rect id="Rectangle-323-Copy-3" x="0" y="7" width="25" height="4"></rect>
                        <rect id="Rectangle-323-Copy-4" x="0" y="14" width="25" height="4"></rect>
                    </g>
                </g>
                <mask id="mask-10" sketch:name="Mask" fill="white">
                    <use xlink:href="#path-9"></use>
                </mask>
                <use id="Mask" fill="#2672F2" sketch:type="MSShapeGroup" xlink:href="#path-9"></use>
                <g id="Oval-197-Copy-+-Oval-197-Copy-2-+-Oval-197" mask="url(#mask-10)" stroke="#FFFFFF" fill="#2672F2" sketch:type="MSShapeGroup">
                    <g transform="translate(34.000000, 22.000000)">
                        <path d="M10.1280595,12.3470985 C11.1455116,11.47606 11.7894737,10.1876129 11.7894737,8.75 C11.7894737,6.12664744 9.64515328,4 7,4 C4.35484672,4 2.21052632,6.12664744 2.21052632,8.75 C2.21052632,10.1876129 2.85448839,11.47606 3.87194052,12.3470985 C0,15.1568952 0,23 0,23 L14,23 C14,23 14,15.1568952 10.1280595,12.3470985 Z" id="Oval-197-Copy"></path>
                        <path d="M31.6811938,13.4684566 C32.5532957,12.6891063 33.1052632,11.5362852 33.1052632,10.25 C33.1052632,7.90278981 31.2672742,6 29,6 C26.7327258,6 24.8947368,7.90278981 24.8947368,10.25 C24.8947368,11.5362852 25.4467043,12.6891063 26.3188062,13.4684566 C23,15.9824852 23,23 23,23 L35,23 C35,23 35,15.9824852 31.6811938,13.4684566 Z" id="Oval-197-Copy-2"></path>
                        <path d="M24.7452236,11.4223453 C26.1260515,10.2303979 27,8.46725978 27,6.5 C27,2.91014913 24.0898509,0 20.5,0 C16.9101491,0 14,2.91014913 14,6.5 C14,8.46725978 14.8739485,10.2303979 16.2547764,11.4223453 C11,15.2673303 11,26 11,26 L30,26 C30,26 30,15.2673303 24.7452236,11.4223453 Z" id="Oval-197"></path>
                    </g>
                </g>
                <mask id="mask-12" sketch:name="Mask Copy 2" fill="white">
                    <use xlink:href="#path-11"></use>
                </mask>
                <use id="Mask-Copy-2" stroke="#2672F2" stroke-width="2" sketch:type="MSShapeGroup" xlink:href="#path-11"></use>
            </g>
            <g id="Group-Copy-7" sketch:type="MSLayerGroup" transform="translate(226.000000, 2.000000)">
                <mask id="mask-14" sketch:name="Mask" fill="white">
                    <use xlink:href="#path-13"></use>
                </mask>
                <use id="Mask" fill="#FFFFFF" sketch:type="MSShapeGroup" xlink:href="#path-13"></use>
                <g id="Group-Copy-2" mask="url(#mask-14)">
                    <g transform="translate(5.000000, 16.000000)">
                        <g id="Group" stroke="none" fill-rule="evenodd" sketch:type="MSLayerGroup" transform="translate(0.000000, 7.000000)">
                            <rect id="Rectangle-323-Copy-2" fill="#9B9B9B" sketch:type="MSShapeGroup" x="0" y="7" width="25" height="4"></rect>
                            <rect id="Rectangle-323-Copy-7" fill="#9B9B9B" sketch:type="MSShapeGroup" x="0" y="0" width="36" height="4"></rect>
                            <rect id="Rectangle-323-Copy-3" fill="#9B9B9B" sketch:type="MSShapeGroup" x="0" y="14" width="25" height="4"></rect>
                            <rect id="Rectangle-323-Copy-4" fill="#9B9B9B" sketch:type="MSShapeGroup" x="0" y="21" width="25" height="4"></rect>
                        </g>
                        <path d="M0.5,39.5 L65.5,39.5" id="Line" stroke="#9B9B9B" stroke-linecap="square" sketch:type="MSShapeGroup"></path>
                        <path d="M0.5,1.5 L65.5,1.5" id="Line-Copy-33" stroke="#9B9B9B" stroke-linecap="square" sketch:type="MSShapeGroup"></path>
                    </g>
                </g>
                <g id="Group-Copy-9" mask="url(#mask-14)" fill="#9B9B9B" sketch:type="MSShapeGroup">
                    <g transform="translate(5.000000, 60.000000)">
                        <rect id="Rectangle-323-Copy-2" x="0" y="0" width="15" height="4"></rect>
                        <rect id="Rectangle-323-Copy-3" x="0" y="7" width="15" height="4"></rect>
                    </g>
                </g>
                <rect id="Rectangle-323" fill="#9B9B9B" sketch:type="MSShapeGroup" mask="url(#mask-14)" x="5" y="5" width="56" height="8"></rect>
                <rect id="Rectangle-323-Copy-9" fill="#9B9B9B" sketch:type="MSShapeGroup" mask="url(#mask-14)" x="64" y="5" width="8" height="8"></rect>
                <rect id="Rectangle-323-Copy-8" fill="#9B9B9B" sketch:type="MSShapeGroup" mask="url(#mask-14)" x="26" y="60" width="45" height="22"></rect>
                <g id="Oval-197-Copy-+-Oval-197-Copy-2-+-Oval-197" mask="url(#mask-14)" stroke="#FFFFFF" fill="#9B9B9B" sketch:type="MSShapeGroup">
                    <g transform="translate(33.000000, 66.000000)">
                        <path d="M8.97056697,10.9224333 C9.87173886,10.1518993 10.4421053,9.01211912 10.4421053,7.74038462 C10.4421053,5.41972658 8.54285004,3.53846154 6.2,3.53846154 C3.85714996,3.53846154 1.95789474,5.41972658 1.95789474,7.74038462 C1.95789474,9.01211912 2.52826114,10.1518993 3.42943303,10.9224333 C0,13.4080227 0,20.3461538 0,20.3461538 L12.4,20.3461538 C12.4,20.3461538 12.4,13.4080227 8.97056697,10.9224333 Z" id="Oval-197-Copy"></path>
                        <path d="M28.060486,11.9144039 C28.832919,11.2249787 29.3218045,10.2051754 29.3218045,9.06730769 C29.3218045,6.99092945 27.6938715,5.30769231 25.6857143,5.30769231 C23.6775571,5.30769231 22.0496241,6.99092945 22.0496241,9.06730769 C22.0496241,10.2051754 22.5385096,11.2249787 23.3109426,11.9144039 C20.3714286,14.1383523 20.3714286,20.3461538 20.3714286,20.3461538 L31,20.3461538 C31,20.3461538 31,14.1383523 28.060486,11.9144039 Z" id="Oval-197-Copy-2"></path>
                        <path d="M21.917198,10.1043824 C23.140217,9.04996741 23.9142857,7.49026827 23.9142857,5.75 C23.9142857,2.57436269 21.3367251,0 18.1571429,0 C14.9775607,0 12.4,2.57436269 12.4,5.75 C12.4,7.49026827 13.1740687,9.04996741 14.3970877,10.1043824 C9.74285714,13.5057153 9.74285714,23 9.74285714,23 L26.5714286,23 C26.5714286,23 26.5714286,13.5057153 21.917198,10.1043824 Z" id="Oval-197"></path>
                    </g>
                </g>
                <mask id="mask-16" sketch:name="Mask" fill="white">
                    <use xlink:href="#path-15"></use>
                </mask>
                <use id="Mask" stroke="#9B9B9B" stroke-width="2" sketch:type="MSShapeGroup" xlink:href="#path-15"></use>
                <polygon id="Star-5" fill="#9B9B9B" sketch:type="MSShapeGroup" mask="url(#mask-16)" points="58.5 46.1104452 56.061371 48.759816 54.8222418 45.3788936 51.5553721 46.8933702 51.704389 43.295611 48.1066298 43.4446279 49.6211064 40.1777582 46.240184 38.938629 48.8895548 36.5 46.240184 34.061371 49.6211064 32.8222418 48.1066298 29.5553721 51.704389 29.704389 51.5553721 26.1066298 54.8222418 27.6211064 56.061371 24.240184 58.5 26.8895548 60.938629 24.240184 62.1777582 27.6211064 65.4446279 26.1066298 65.295611 29.704389 68.8933702 29.5553721 67.3788936 32.8222418 70.759816 34.061371 68.1104452 36.5 70.759816 38.938629 67.3788936 40.1777582 68.8933702 43.4446279 65.295611 43.295611 65.4446279 46.8933702 62.1777582 45.3788936 60.938629 48.759816 "></polygon>
            </g>
            <g id="Group-Copy-8" sketch:type="MSLayerGroup" transform="translate(339.000000, 2.000000)">
                <mask id="mask-18" sketch:name="Mask" fill="white">
                    <use xlink:href="#path-17"></use>
                </mask>
                <use id="Mask" stroke="#9B9B9B" stroke-width="2" fill="#FFFFFF" sketch:type="MSShapeGroup" xlink:href="#path-17"></use>
                <path d="M25.921875,39.5878906 L29.0253906,39.5878906 L29.0253906,40.96875 L25.921875,40.96875 L25.921875,46 L24.28125,46 L24.28125,40.96875 L14.9160156,40.96875 L14.9160156,40.0390625 L24.1308594,26.09375 L25.921875,26.09375 L25.921875,39.5878906 Z M16.9257812,39.5878906 L24.28125,39.5878906 L24.28125,28.2128906 L23.5566406,29.4707031 L16.9257812,39.5878906 Z M43.3945312,37.7011719 C43.3945312,40.5084776 42.8795624,42.6389901 41.8496094,44.0927734 C40.8196563,45.5465567 39.3020934,46.2734375 37.296875,46.2734375 C35.3281152,46.2734375 33.8196667,45.5602285 32.7714844,44.1337891 C31.7233021,42.7073496 31.185547,40.631524 31.1582031,37.90625 L31.1582031,34.3378906 C31.1582031,31.5396996 31.6777292,29.4205801 32.7167969,27.9804688 C33.7558646,26.5403574 35.2734275,25.8203125 37.2695312,25.8203125 C39.2382911,25.8203125 40.7421823,26.5152925 41.78125,27.9052734 C42.8203177,29.2952543 43.3580727,31.3437365 43.3945312,34.0507812 L43.3945312,37.7011719 Z M41.7539062,34.1328125 C41.7539062,31.8541553 41.3824907,30.1315162 40.6396484,28.9648438 C39.8968062,27.7981713 38.773445,27.2148438 37.2695312,27.2148438 C35.7929614,27.2148438 34.6809933,27.7844995 33.9335938,28.9238281 C33.1861942,30.0631567 32.8033855,31.7447805 32.7851562,33.96875 L32.7851562,37.8789062 C32.7851562,40.1484488 33.1702435,41.8847596 33.9404297,43.0878906 C34.7106158,44.2910216 35.8294197,44.8925781 37.296875,44.8925781 C38.7552156,44.8925781 39.8603478,44.3046934 40.6123047,43.1289062 C41.3642616,41.9531191 41.7447916,40.2304801 41.7539062,37.9609375 L41.7539062,34.1328125 Z M56.9570312,39.5878906 L60.0605469,39.5878906 L60.0605469,40.96875 L56.9570312,40.96875 L56.9570312,46 L55.3164062,46 L55.3164062,40.96875 L45.9511719,40.96875 L45.9511719,40.0390625 L55.1660156,26.09375 L56.9570312,26.09375 L56.9570312,39.5878906 Z M47.9609375,39.5878906 L55.3164062,39.5878906 L55.3164062,28.2128906 L54.5917969,29.4707031 L47.9609375,39.5878906 Z" id="404" fill="#9B9B9B" sketch:type="MSShapeGroup" mask="url(#mask-18)"></path>
                <rect id="Rectangle-323-Copy-2" fill="#9B9B9B" sketch:type="MSShapeGroup" mask="url(#mask-18)" x="26" y="58" width="25" height="4"></rect>
            </g>
            <g id="Shape-Copy-11" sketch:type="MSLayerGroup" transform="translate(87.000000, 32.000000)" fill="#9B9B9B">
                <path d="M10.6234388,16.8164063 L19.8425293,8.40820313 L10.6234384,7.10542736e-15 L10.6234384,4.16577844 L13.5195313,6.98133919 L1.75692794e-14,6.98133926 L1.77635684e-14,10.0439453 L13.5195316,10.0439455 L10.6234384,12.6030367 L10.6234388,16.8164063 Z" id="Path-241" sketch:type="MSShapeGroup"></path>
            </g>
            <g id="Shape-Copy-12" sketch:type="MSLayerGroup" transform="translate(199.000000, 32.000000)" fill="#9B9B9B">
                <path d="M10.6234388,16.8164063 L19.8425293,8.40820313 L10.6234384,7.10542736e-15 L10.6234384,4.16577844 L13.5195313,6.98133919 L1.75692794e-14,6.98133926 L1.77635684e-14,10.0439453 L13.5195316,10.0439455 L10.6234384,12.6030367 L10.6234388,16.8164063 Z" id="Path-241" sketch:type="MSShapeGroup"></path>
            </g>
            <g id="Shape-Copy-13" sketch:type="MSLayerGroup" transform="translate(312.000000, 32.000000)" fill="#9B9B9B">
                <path d="M10.6234388,16.8164063 L19.8425293,8.40820313 L10.6234384,7.10542736e-15 L10.6234384,4.16577844 L13.5195313,6.98133919 L1.75692794e-14,6.98133926 L1.77635684e-14,10.0439453 L13.5195316,10.0439455 L10.6234384,12.6030367 L10.6234388,16.8164063 Z" id="Path-241" sketch:type="MSShapeGroup"></path>
            </g>
            <g id="Group-Copy-4" sketch:type="MSLayerGroup" transform="translate(114.000000, 2.000000)">
                <mask id="mask-20" sketch:name="Mask" fill="white">
                    <use xlink:href="#path-19"></use>
                </mask>
                <use id="Mask" fill="#FFFFFF" sketch:type="MSShapeGroup" xlink:href="#path-19"></use>
                <rect id="Rectangle-323-Copy" fill="#9B9B9B" sketch:type="MSShapeGroup" mask="url(#mask-20)" x="5" y="52" width="66" height="44"></rect>
                <rect id="Rectangle-323-Copy-2" fill="#9B9B9B" sketch:type="MSShapeGroup" mask="url(#mask-20)" x="5" y="24" width="32" height="4"></rect>
                <rect id="Rectangle-323-Copy-10" fill="#9B9B9B" sketch:type="MSShapeGroup" mask="url(#mask-20)" x="22" y="11" width="32" height="4"></rect>
                <rect id="Rectangle-323-Copy-3" fill="#9B9B9B" sketch:type="MSShapeGroup" mask="url(#mask-20)" x="5" y="31" width="32" height="4"></rect>
                <rect id="Rectangle-323-Copy-4" fill="#9B9B9B" sketch:type="MSShapeGroup" mask="url(#mask-20)" x="5" y="38" width="32" height="4"></rect>
                <rect id="Rectangle-323-Copy-5" fill="#9B9B9B" sketch:type="MSShapeGroup" mask="url(#mask-20)" x="5" y="45" width="32" height="4"></rect>
                <rect id="Rectangle-323-Copy-2" fill="#9B9B9B" sketch:type="MSShapeGroup" mask="url(#mask-20)" x="40" y="24" width="31" height="4"></rect>
                <rect id="Rectangle-323-Copy-3" fill="#9B9B9B" sketch:type="MSShapeGroup" mask="url(#mask-20)" x="40" y="31" width="31" height="4"></rect>
                <rect id="Rectangle-323-Copy-4" fill="#9B9B9B" sketch:type="MSShapeGroup" mask="url(#mask-20)" x="40" y="38" width="31" height="4"></rect>
                <rect id="Rectangle-323-Copy-5" fill="#9B9B9B" sketch:type="MSShapeGroup" mask="url(#mask-20)" x="40" y="45" width="31" height="4"></rect>
                <g id="Oval-197-Copy-+-Oval-197-Copy-2-+-Oval-197" mask="url(#mask-20)" stroke="#FFFFFF" fill="#9B9B9B" sketch:type="MSShapeGroup">
                    <g transform="translate(23.000000, 57.000000)">
                        <path d="M8.97056697,10.9224333 C9.87173886,10.1518993 10.4421053,9.01211912 10.4421053,7.74038462 C10.4421053,5.41972658 8.54285004,3.53846154 6.2,3.53846154 C3.85714996,3.53846154 1.95789474,5.41972658 1.95789474,7.74038462 C1.95789474,9.01211912 2.52826114,10.1518993 3.42943303,10.9224333 C0,13.4080227 0,20.3461538 0,20.3461538 L12.4,20.3461538 C12.4,20.3461538 12.4,13.4080227 8.97056697,10.9224333 Z" id="Oval-197-Copy"></path>
                        <path d="M28.060486,11.9144039 C28.832919,11.2249787 29.3218045,10.2051754 29.3218045,9.06730769 C29.3218045,6.99092945 27.6938715,5.30769231 25.6857143,5.30769231 C23.6775571,5.30769231 22.0496241,6.99092945 22.0496241,9.06730769 C22.0496241,10.2051754 22.5385096,11.2249787 23.3109426,11.9144039 C20.3714286,14.1383523 20.3714286,20.3461538 20.3714286,20.3461538 L31,20.3461538 C31,20.3461538 31,14.1383523 28.060486,11.9144039 Z" id="Oval-197-Copy-2"></path>
                        <path d="M21.917198,10.1043824 C23.140217,9.04996741 23.9142857,7.49026827 23.9142857,5.75 C23.9142857,2.57436269 21.3367251,0 18.1571429,0 C14.9775607,0 12.4,2.57436269 12.4,5.75 C12.4,7.49026827 13.1740687,9.04996741 14.3970877,10.1043824 C9.74285714,13.5057153 9.74285714,23 9.74285714,23 L26.5714286,23 C26.5714286,23 26.5714286,13.5057153 21.917198,10.1043824 Z" id="Oval-197"></path>
                    </g>
                </g>
                <mask id="mask-22" sketch:name="Mask" fill="white">
                    <use xlink:href="#path-21"></use>
                </mask>
                <use id="Mask" stroke="#9B9B9B" stroke-width="2" sketch:type="MSShapeGroup" xlink:href="#path-21"></use>
                <polygon id="Star-5" fill="#9B9B9B" sketch:type="MSShapeGroup" mask="url(#mask-22)" points="11 18.3818493 9.0278721 19.7164508 8.09035259 17.5274997 5.70975298 17.5840251 6.10449767 15.235701 4.07124991 13.9962039 5.67293015 12.234083 4.63257603 10.0920949 6.93266967 9.47563821 7.21551428 7.11122527 9.48375783 7.8361534 11 6 12.5162422 7.8361534 14.7844857 7.11122527 15.0673303 9.47563821 17.367424 10.0920949 16.3270698 12.234083 17.9287501 13.9962039 15.8955023 15.235701 16.290247 17.5840251 13.9096474 17.5274997 12.9721279 19.7164508 "></polygon>
                <path d="M48.0849609,-4.78613281 L79.2949219,26.5371094 L77.8095703,13.5898438 L51.1923828,-12.9707031 L48.0849609,-4.78613281 Z" id="Path-291" fill="#9B9B9B" sketch:type="MSShapeGroup" mask="url(#mask-22)"></path>
            </g>
            <g id="Mask-+-Mask-+-Mask-+-Group-+-Group-Copy-2" sketch:type="MSLayerGroup" transform="translate(140.000000, 120.000000)">
                <g id="Mask-+-Mask-+-Mask" stroke="#222222" stroke-width="2" fill="#FFFFFF" sketch:type="MSShapeGroup">
                    <rect id="Mask" x="6" y="6" width="132" height="170" rx="2"></rect>
                    <rect id="Mask" x="3" y="3" width="132" height="170" rx="2"></rect>
                    <rect id="Mask" x="0" y="0" width="132" height="170" rx="2"></rect>
                </g>
                <g id="Group" transform="translate(18.000000, 19.000000)" sketch:type="MSShapeGroup">
                    <rect id="Rectangle-323-Copy-3" fill="#222222" x="0" y="0" width="98" height="4"></rect>
                    <rect id="Rectangle-323-Copy-4" fill="#222222" x="0" y="7" width="98" height="4"></rect>
                    <rect id="Rectangle-323-Copy-5" fill="#222222" x="0" y="14" width="98" height="4"></rect>
                    <rect id="Rectangle-323-Copy-2" fill="#222222" x="0" y="21" width="98" height="4"></rect>
                    <rect id="Rectangle-323-Copy-3" fill="#222222" x="0" y="28" width="98" height="4"></rect>
                    <rect id="Rectangle-323-Copy-4" fill="#222222" x="0" y="35" width="66" height="4"></rect>
                    <rect id="Rectangle-323-Copy-14" fill="#9B9B9B" x="0" y="43" width="37" height="8"></rect>
                    <rect id="Rectangle-323-Copy-15" fill="#2672F2" x="0" y="55" width="37" height="8"></rect>
                </g>
                <g id="Group-Copy" transform="translate(19.000000, 96.000000)" fill="#222222" sketch:type="MSShapeGroup">
                    <rect id="Rectangle-323-Copy-2" x="0" y="7" width="98" height="4"></rect>
                    <rect id="Rectangle-323-Copy-11" x="0" y="0" width="98" height="4"></rect>
                    <rect id="Rectangle-323-Copy-3" x="0" y="14" width="98" height="4"></rect>
                    <rect id="Rectangle-323-Copy-4" x="0" y="21" width="98" height="4"></rect>
                    <rect id="Rectangle-323-Copy-5" x="0" y="28" width="98" height="4"></rect>
                    <rect id="Rectangle-323-Copy-2" x="0" y="35" width="98" height="4"></rect>
                    <rect id="Rectangle-323-Copy-3" x="0" y="42" width="98" height="4"></rect>
                    <rect id="Rectangle-323-Copy-4" x="0" y="49" width="98" height="4"></rect>
                    <rect id="Rectangle-323-Copy-5" x="0" y="56" width="76" height="4"></rect>
                </g>
            </g>
            <path d="M94.5896788,379 L82,379" id="Line-Copy-10" stroke="#2672F2" stroke-width="3" stroke-linecap="round" stroke-dasharray="1,5" sketch:type="MSShapeGroup"></path>
            <path d="M335.589679,379 L323,379" id="Line-Copy-11" stroke="#2672F2" stroke-width="3" stroke-linecap="round" stroke-dasharray="1,5" sketch:type="MSShapeGroup"></path>
            <g id="Group" sketch:type="MSLayerGroup" transform="translate(2.000000, 2.000000)">
                <mask id="mask-24" sketch:name="Mask" fill="white">
                    <use xlink:href="#path-23"></use>
                </mask>
                <use id="Mask" stroke="#9B9B9B" stroke-width="2" fill="#FFFFFF" sketch:type="MSShapeGroup" xlink:href="#path-23"></use>
                <rect id="Rectangle-323" fill="#9B9B9B" sketch:type="MSShapeGroup" mask="url(#mask-24)" x="5" y="5" width="66" height="10"></rect>
                <rect id="Rectangle-323-Copy-6" fill="#9B9B9B" sketch:type="MSShapeGroup" mask="url(#mask-24)" x="5" y="54" width="38" height="33"></rect>
                <g mask="url(#mask-24)" fill="#9B9B9B" sketch:type="MSShapeGroup">
                    <g transform="translate(5.000000, 18.000000)">
                        <rect id="Rectangle-323-Copy-2" x="0" y="0" width="25" height="4"></rect>
                        <rect id="Rectangle-323-Copy-3" x="0" y="7" width="25" height="4"></rect>
                        <rect id="Rectangle-323-Copy-4" x="0" y="14" width="25" height="4"></rect>
                        <rect id="Rectangle-323-Copy-5" x="0" y="21" width="25" height="4"></rect>
                    </g>
                </g>
                <path d="M5.5,48.5 L70.5,48.5" id="Line" stroke="#9B9B9B" stroke-linecap="square" sketch:type="MSShapeGroup" mask="url(#mask-24)"></path>
                <g id="Group-Copy-2" mask="url(#mask-24)" fill="#9B9B9B" sketch:type="MSShapeGroup">
                    <g transform="translate(46.000000, 54.000000)">
                        <rect id="Rectangle-323-Copy-2" x="0" y="0" width="25" height="4"></rect>
                        <rect id="Rectangle-323-Copy-3" x="0" y="7" width="25" height="4"></rect>
                        <rect id="Rectangle-323-Copy-4" x="0" y="14" width="25" height="4"></rect>
                    </g>
                </g>
                <mask id="mask-26" sketch:name="Mask" fill="white">
                    <use xlink:href="#path-25"></use>
                </mask>
                <use id="Mask" fill="#9B9B9B" sketch:type="MSShapeGroup" xlink:href="#path-25"></use>
                <g id="Oval-197-Copy-+-Oval-197-Copy-2-+-Oval-197" mask="url(#mask-26)" stroke="#FFFFFF" fill="#9B9B9B" sketch:type="MSShapeGroup">
                    <g transform="translate(34.000000, 22.000000)">
                        <path d="M10.1280595,12.3470985 C11.1455116,11.47606 11.7894737,10.1876129 11.7894737,8.75 C11.7894737,6.12664744 9.64515328,4 7,4 C4.35484672,4 2.21052632,6.12664744 2.21052632,8.75 C2.21052632,10.1876129 2.85448839,11.47606 3.87194052,12.3470985 C0,15.1568952 0,23 0,23 L14,23 C14,23 14,15.1568952 10.1280595,12.3470985 Z" id="Oval-197-Copy"></path>
                        <path d="M31.6811938,13.4684566 C32.5532957,12.6891063 33.1052632,11.5362852 33.1052632,10.25 C33.1052632,7.90278981 31.2672742,6 29,6 C26.7327258,6 24.8947368,7.90278981 24.8947368,10.25 C24.8947368,11.5362852 25.4467043,12.6891063 26.3188062,13.4684566 C23,15.9824852 23,23 23,23 L35,23 C35,23 35,15.9824852 31.6811938,13.4684566 Z" id="Oval-197-Copy-2"></path>
                        <path d="M24.7452236,11.4223453 C26.1260515,10.2303979 27,8.46725978 27,6.5 C27,2.91014913 24.0898509,0 20.5,0 C16.9101491,0 14,2.91014913 14,6.5 C14,8.46725978 14.8739485,10.2303979 16.2547764,11.4223453 C11,15.2673303 11,26 11,26 L30,26 C30,26 30,15.2673303 24.7452236,11.4223453 Z" id="Oval-197"></path>
                    </g>
                </g>
            </g>
            <g id="Rectangle-368-+-perma-logo-orange-copy-10-+-Rectangle-423-+-perma.cc/NG87-3RTY-Copy" sketch:type="MSLayerGroup" transform="translate(99.000000, 364.000000)">
                <g id="Rectangle-368-+-perma-logo-orange-copy-10" transform="translate(8.000000, 8.000000)" fill="#2D76EE" sketch:type="MSShapeGroup">
                    <path d="M23.9449876,13.4762531 C22.4326305,13.4762531 20.9108626,12.9574221 19.2927734,11.8900978 C17.7286573,10.8610223 16.257818,9.43879044 14.8351394,8.06339393 C13.2881841,6.56752662 11.6886394,5.02092108 10.0334609,4.0480479 C9.00630907,3.44465318 8.08046085,3.15115199 7.20360371,3.15115199 C5.54759478,3.15115199 4.29430907,3.83937064 3.67430907,5.08961284 C3.40444299,5.63810619 3.26079121,6.28677504 3.26079121,6.96250428 C3.26079121,7.50345195 3.34438049,8.00797216 3.50879121,8.46201433 C4.03136264,9.92197458 5.30402335,10.6911142 7.19031799,10.6911142 C8.06025549,10.6911142 8.99606799,10.3507777 10.0508984,9.65059006 C10.7508894,9.18405847 11.526443,8.54553728 12.4888269,7.64317724 L14.5810501,9.61520339 C13.4838716,10.6440187 12.6144876,11.3561754 11.7622644,11.9241835 C10.1879073,12.969131 8.69326442,13.4762531 7.19031799,13.4762531 C4.05156799,13.4762531 1.62637157,11.9356321 0.702737637,9.3552675 C0.434809066,8.61631061 0.298076923,7.80970274 0.298076923,6.96250428 C0.298076923,5.8704613 0.530023352,4.84554891 0.987273352,3.91638868 C2.10687157,1.65892743 4.37180907,0.366013072 7.20360371,0.366013072 C8.65202335,0.366013072 10.0915859,0.797938577 11.603943,1.68650822 C13.5630323,2.8381361 15.2896216,4.5075542 16.9594698,6.12181072 C18.3467198,7.46338175 19.6570234,8.7302765 20.993068,9.60921888 C22.0971662,10.3375077 23.062318,10.6911142 23.9449876,10.6911142 C25.8722466,10.6911142 27.1565323,9.92249497 27.6591751,8.46825904 C27.8075323,8.03763451 27.8830948,7.55757273 27.8830948,7.04316507 C27.8830948,6.31539661 27.7303091,5.62821874 27.4413448,5.05552716 C26.8138716,3.8091879 25.6051484,3.15115199 23.9449876,3.15115199 C22.969318,3.15115199 21.9684609,3.45844357 20.8859519,4.09045987 C20.2047823,4.48908027 19.477943,5.02430362 18.6650234,5.72631267 C18.6129876,5.77132659 18.5626126,5.81529973 18.5119609,5.85953307 L16.490318,3.82349868 C16.5473359,3.77354103 16.6046305,3.72358338 16.6619251,3.67440632 C17.6107466,2.85478865 18.4812376,2.21704804 19.3218359,1.72527743 C20.888443,0.810427989 22.4005234,0.366013072 23.9449876,0.366013072 C26.7496573,0.366013072 28.9999251,1.64045351 30.118693,3.86304849 C30.5942109,4.80547872 30.8458091,5.90532758 30.8458091,7.04316507 C30.8458091,7.84899235 30.7218091,8.61761159 30.4774073,9.32742652 C29.5792376,11.9260048 27.1374341,13.4762531 23.9449876,13.4762531" id="perma-logo-orange-copy-8"></path>
                </g>
                <rect id="Rectangle-423" stroke="#2672F2" stroke-width="2" sketch:type="MSShapeGroup" x="0" y="0" width="220" height="30" rx="3"></rect>
                <path d="M52.8565625,15.621289 C52.8565625,17.0037569 52.5426204,18.1066853 51.9147266,18.9301074 C51.2868328,19.7535295 50.4441459,20.1652344 49.3866406,20.1652344 C48.4062451,20.1652344 47.6213897,19.8430306 47.0320508,19.1986133 L47.0320508,23.436875 L45.0244531,23.436875 L45.0244531,11.0608203 L46.8750781,11.0608203 L46.9576953,11.9696093 C47.5470342,11.2535901 48.3484129,10.8955859 49.3618555,10.8955859 C50.4524078,10.8955859 51.3074872,11.301783 51.9271192,12.1141894 C52.5467512,12.9265958 52.8565625,14.0543092 52.8565625,15.4973633 L52.8565625,15.621289 Z M50.8572266,15.4477929 C50.8572266,14.5555229 50.6796014,13.847776 50.3243457,13.3245312 C49.96909,12.8012864 49.4609994,12.5396679 48.8000586,12.5396679 C47.9793904,12.5396679 47.3900604,12.878395 47.0320508,13.5558593 L47.0320508,17.5214844 C47.3955682,18.2154722 47.990406,18.5624609 48.8165821,18.5624609 C49.4554915,18.5624609 49.9553205,18.3049733 50.316084,17.7899902 C50.6768475,17.2750072 50.8572266,16.4942826 50.8572266,15.4477929 L50.8572266,15.4477929 Z M58.4910548,20.1652344 C57.2187437,20.1652344 56.1874161,19.764545 55.3970411,18.9631543 C54.606666,18.1617636 54.2114844,17.0946356 54.2114844,15.7617383 L54.2114844,15.5138867 C54.2114844,14.6216166 54.3836018,13.8243687 54.7278418,13.1221191 C55.0720818,12.4198695 55.5553876,11.8732246 56.1777735,11.4821679 C56.8001594,11.0911113 57.4941369,10.8955859 58.2597266,10.8955859 C59.4769593,10.8955859 60.4174089,11.2838828 61.0811036,12.0604882 C61.7447983,12.8370937 62.0766407,13.9358913 62.0766407,15.356914 L62.0766407,16.1665625 L56.2356055,16.1665625 C56.2961918,16.9046131 56.5426639,17.4884353 56.9750294,17.9180469 C57.4073948,18.3476584 57.9512858,18.5624609 58.6067188,18.5624609 C59.5265281,18.5624609 60.2755831,18.1906873 60.8539063,17.4471289 L61.9361915,18.4798437 C61.5781819,19.0141042 61.1003839,19.428563 60.5027833,19.7232324 C59.9051826,20.0179019 59.2346132,20.1652344 58.4910548,20.1652344 L58.4910548,20.1652344 Z M58.2514649,12.5066211 C57.7006809,12.5066211 57.2559295,12.6993926 56.9171973,13.0849414 C56.5784652,13.4704902 56.3622857,14.0074965 56.2686524,14.6959765 L60.0938282,14.6959765 L60.0938282,14.5472656 C60.0497655,13.8753091 59.8707634,13.3672185 59.5568165,13.0229785 C59.2428696,12.6787385 58.8077568,12.5066211 58.2514649,12.5066211 L58.2514649,12.5066211 Z M68.3142384,12.8949218 C68.0498621,12.8508591 67.7772281,12.8288281 67.4963282,12.8288281 C66.5765189,12.8288281 65.9568962,13.1813246 65.6374415,13.8863281 L65.6374415,20 L63.6298438,20 L63.6298438,11.0608203 L65.5465626,11.0608203 L65.5961329,12.0604882 C66.0808228,11.2838828 66.7527692,10.8955859 67.6119923,10.8955859 C67.8984,10.8955859 68.1352335,10.9341402 68.3225001,11.01125 L68.3142384,12.8949218 Z M71.470215,11.0608203 L71.528047,11.9943945 C72.1559408,11.2618518 73.0151509,10.8955859 74.1057033,10.8955859 C75.3009046,10.8955859 76.1188065,11.3527298 76.5594337,12.2670312 C77.2093589,11.3527298 78.1236466,10.8955859 79.3023244,10.8955859 C80.2882277,10.8955859 81.0221364,11.1682199 81.5040724,11.7134961 C81.9860084,12.2587722 82.2324806,13.0629048 82.2434963,14.1259179 L82.2434963,20 L80.2358986,20 L80.2358986,14.18375 C80.2358986,13.6164424 80.1119741,13.2006068 79.8641213,12.9362304 C79.6162685,12.6718541 79.2059405,12.5396679 78.6331252,12.5396679 C78.1759744,12.5396679 77.8028239,12.6622155 77.5136623,12.9073144 C77.2245007,13.1524133 77.0220906,13.4732402 76.9064259,13.8698047 L76.9146876,20 L74.90709,20 L74.90709,14.1176562 C74.8795508,13.0656588 74.3425444,12.5396679 73.2960548,12.5396679 C72.4919102,12.5396679 71.9218573,12.8673795 71.585879,13.5228125 L71.585879,20 L69.5782814,20 L69.5782814,11.0608203 L71.470215,11.0608203 Z M89.6459963,20 C89.5578709,19.829257 89.4807623,19.5511152 89.4146682,19.1655664 C88.7757587,19.8320151 87.9936572,20.1652344 87.06834,20.1652344 C86.1705621,20.1652344 85.4380304,19.9091237 84.8707228,19.3968945 C84.3034153,18.8846654 84.0197658,18.2512733 84.0197658,17.4966992 C84.0197658,16.5438429 84.3736392,15.8126881 85.0813967,15.3032129 C85.7891541,14.7937377 86.8012045,14.5390039 88.1175783,14.5390039 L89.3485744,14.5390039 L89.3485744,13.9524218 C89.3485744,13.4897633 89.2191421,13.1193666 88.9602736,12.8412207 C88.7014052,12.5630747 88.3076005,12.4240039 87.7788479,12.4240039 C87.3216971,12.4240039 86.9471696,12.5382898 86.6552541,12.7668652 C86.3633386,12.9954406 86.217383,13.2859748 86.217383,13.6384765 L84.2097853,13.6384765 C84.2097853,13.1482788 84.3722642,12.689758 84.6972267,12.2629004 C85.0221893,11.8360428 85.4641868,11.5014465 86.0232326,11.2591015 C86.5822784,11.0167566 87.2060319,10.8955859 87.8945119,10.8955859 C88.9410015,10.8955859 89.7754268,11.1585813 90.3978127,11.68458 C91.0201986,12.2105788 91.3396486,12.9499952 91.3561721,13.9028515 L91.3561721,17.9345703 C91.3561721,18.738715 91.4690811,19.3803687 91.6949026,19.8595508 L91.6949026,20 L89.6459963,20 Z M87.4401174,18.5541992 C87.8366819,18.5541992 88.2098324,18.4578135 88.5595803,18.2650391 C88.9093281,18.0722647 89.1723235,17.8134001 89.3485744,17.4884375 L89.3485744,15.8030469 L88.2662893,15.8030469 C87.5227309,15.8030469 86.9636935,15.9324792 86.5891603,16.1913476 C86.2146272,16.4502161 86.0273635,16.816482 86.0273635,17.2901562 C86.0273635,17.675705 86.1554188,17.9827625 86.4115334,18.2113379 C86.667648,18.4399132 87.0105059,18.5541992 87.4401174,18.5541992 L87.4401174,18.5541992 Z M94.7104299,17.885 C95.084963,17.885 95.3741203,17.9910243 95.5779104,18.2030762 C95.7817005,18.415128 95.883594,18.6808773 95.883594,19.000332 C95.883594,19.3142789 95.7817005,19.5745204 95.5779104,19.7810645 C95.3741203,19.9876085 95.084963,20.0908789 94.7104299,20.0908789 C94.3524203,20.0908789 94.0687708,19.9889854 93.8594729,19.7851953 C93.650175,19.5814052 93.5455276,19.3197868 93.5455276,19.000332 C93.5455276,18.6808773 93.6474211,18.415128 93.8512112,18.2030762 C94.0550012,17.9910243 94.3414046,17.885 94.7104299,17.885 L94.7104299,17.885 Z M101.856817,18.5624609 C102.35803,18.5624609 102.773866,18.4165054 103.104336,18.1245898 C103.434807,17.8326743 103.611055,17.4719162 103.633086,17.0423047 L105.52502,17.0423047 C105.502988,17.5985965 105.329494,18.1177027 105.004532,18.5996387 C104.679569,19.0815747 104.238948,19.4629869 103.682657,19.7438867 C103.126365,20.0247866 102.526019,20.1652344 101.881602,20.1652344 C100.631322,20.1652344 99.6399258,19.7604142 98.9073831,18.9507617 C98.1748403,18.1411092 97.8085745,17.0230345 97.8085745,15.5965039 L97.8085745,15.3899609 C97.8085745,14.0295244 98.1720865,12.9403654 98.8991213,12.1224511 C99.6261562,11.3045369 100.617553,10.8955859 101.87334,10.8955859 C102.936353,10.8955859 103.802448,11.2053973 104.471651,11.8250293 C105.140853,12.4446613 105.491973,13.2584324 105.52502,14.2663672 L103.633086,14.2663672 C103.611055,13.754138 103.436184,13.3327946 103.108467,13.0023242 C102.780751,12.6718538 102.363538,12.5066211 101.856817,12.5066211 C101.206892,12.5066211 100.705686,12.7420777 100.353184,13.212998 C100.000682,13.6839183 99.82168,14.3985499 99.8161721,15.356914 L99.8161721,15.6791211 C99.8161721,16.6485009 99.9910434,17.3713941 100.340791,17.8478223 C100.690539,18.3242504 101.195876,18.5624609 101.856817,18.5624609 L101.856817,18.5624609 Z M110.713379,18.5624609 C111.214593,18.5624609 111.630428,18.4165054 111.960899,18.1245898 C112.291369,17.8326743 112.467617,17.4719162 112.489649,17.0423047 L114.381582,17.0423047 C114.359551,17.5985965 114.186057,18.1177027 113.861094,18.5996387 C113.536132,19.0815747 113.095511,19.4629869 112.539219,19.7438867 C111.982927,20.0247866 111.382582,20.1652344 110.738164,20.1652344 C109.487885,20.1652344 108.496488,19.7604142 107.763946,18.9507617 C107.031403,18.1411092 106.665137,17.0230345 106.665137,15.5965039 L106.665137,15.3899609 C106.665137,14.0295244 107.028649,12.9403654 107.755684,12.1224511 C108.482719,11.3045369 109.474115,10.8955859 110.729903,10.8955859 C111.792916,10.8955859 112.659011,11.2053973 113.328213,11.8250293 C113.997416,12.4446613 114.348535,13.2584324 114.381582,14.2663672 L112.489649,14.2663672 C112.467617,13.754138 112.292746,13.3327946 111.96503,13.0023242 C111.637313,12.6718538 111.2201,12.5066211 110.713379,12.5066211 C110.063454,12.5066211 109.562248,12.7420777 109.209746,13.212998 C108.857245,13.6839183 108.678243,14.3985499 108.672735,15.356914 L108.672735,15.6791211 C108.672735,16.6485009 108.847606,17.3713941 109.197354,17.8478223 C109.547102,18.3242504 110.052438,18.5624609 110.713379,18.5624609 L110.713379,18.5624609 Z M116.463535,21.0327148 L114.885547,21.0327148 L119.619512,7.97093745 L121.1975,7.97093745 L116.463535,21.0327148 Z M132.326036,20 L130.235821,20 L124.873965,11.4656445 L124.873965,20 L122.78375,20 L122.78375,7.97093745 L124.873965,7.97093745 L130.252344,16.5383398 L130.252344,7.97093745 L132.326036,7.97093745 L132.326036,20 Z M144.016368,18.4385351 C143.581248,19.0058427 142.978149,19.4354478 142.207051,19.7273633 C141.435954,20.0192788 140.56022,20.1652344 139.579825,20.1652344 C138.57189,20.1652344 137.679633,19.9366624 136.903028,19.4795117 C136.126422,19.022361 135.527454,18.3683148 135.106104,17.5173535 C134.684754,16.6663922 134.465821,15.6736189 134.449297,14.5390039 L134.449297,13.5971679 C134.449297,11.7795807 134.88441,10.3599562 135.754649,9.33825191 C136.624888,8.31654757 137.839348,7.80570307 139.398067,7.80570307 C140.736472,7.80570307 141.799469,8.13616852 142.58709,8.79710932 C143.374711,9.45805013 143.848379,10.4108922 144.008106,11.655664 L141.9592,11.655664 C141.72787,10.2071021 140.887937,9.48283198 139.439375,9.48283198 C138.503043,9.48283198 137.791165,9.82018213 137.303721,10.4948925 C136.816277,11.1696029 136.564297,12.1596223 136.547774,13.4649804 L136.547774,14.3902929 C136.547774,15.6901432 136.821785,16.6994398 137.369815,17.4182129 C137.917845,18.136986 138.679292,18.4963672 139.65418,18.4963672 C140.722701,18.4963672 141.482772,18.2540259 141.934415,17.7693359 L141.934415,15.4147461 L139.455899,15.4147461 L139.455899,13.8284961 L144.016368,13.8284961 L144.016368,18.4385351 Z M153.566915,11.1434375 C153.566915,11.7327763 153.415451,12.2573902 153.11252,12.7172949 C152.809589,13.1771995 152.396507,13.5393346 151.873262,13.8037109 C152.501156,14.0956264 152.984462,14.4949388 153.323194,15.0016601 C153.661926,15.5083814 153.83129,16.0811882 153.83129,16.7200976 C153.83129,17.7776029 153.473285,18.616159 152.757266,19.235791 C152.041247,19.855423 151.088405,20.1652344 149.898711,20.1652344 C148.70351,20.1652344 147.746537,19.8540461 147.027764,19.2316602 C146.308991,18.6092742 145.94961,17.7720951 145.94961,16.7200976 C145.94961,16.0756804 146.12035,15.4973658 146.461836,14.9851367 C146.803322,14.4729076 147.282497,14.0791029 147.899375,13.8037109 C147.381639,13.5393346 146.972688,13.1771995 146.67251,12.7172949 C146.372333,12.2573902 146.222247,11.7327763 146.222247,11.1434375 C146.222247,10.1189792 146.552712,9.30658498 147.213653,8.70623042 C147.874594,8.10587585 148.76685,7.80570307 149.89045,7.80570307 C151.019557,7.80570307 151.914567,8.10587585 152.575508,8.70623042 C153.236449,9.30658498 153.566915,10.1189792 153.566915,11.1434375 L153.566915,11.1434375 Z M151.823692,16.620957 C151.823692,16.0261103 151.646067,15.5455585 151.290811,15.1792871 C150.935555,14.8130157 150.466019,14.6298828 149.882188,14.6298828 C149.298357,14.6298828 148.831574,14.8116388 148.481827,15.1751562 C148.132079,15.5386737 147.957208,16.0206024 147.957208,16.620957 C147.957208,17.2102959 148.129325,17.6812092 148.473565,18.0337109 C148.817805,18.3862127 149.292849,18.5624609 149.898711,18.5624609 C150.504574,18.5624609 150.976864,18.3917205 151.315596,18.0502344 C151.654328,17.7087483 151.823692,17.2323273 151.823692,16.620957 L151.823692,16.620957 Z M151.567579,11.2177929 C151.567579,10.6945481 151.416115,10.2635661 151.113184,9.92483394 C150.810253,9.58610178 150.402679,9.41673823 149.89045,9.41673823 C149.378221,9.41673823 148.9734,9.57784014 148.675977,9.90004878 C148.378554,10.2222574 148.229844,10.6615011 148.229844,11.2177929 C148.229844,11.7685769 148.379931,12.2064437 148.680108,12.5314062 C148.980285,12.8563688 149.386482,13.0188476 149.898711,13.0188476 C150.410941,13.0188476 150.817138,12.8563688 151.117315,12.5314062 C151.417492,12.2064437 151.567579,11.7685769 151.567579,11.2177929 L151.567579,11.2177929 Z M163.613165,9.08626948 L158.804844,20 L156.698106,20 L161.498165,9.58197261 L155.27709,9.58197261 L155.27709,7.97093745 L163.613165,7.97093745 L163.613165,9.08626948 Z M169.247657,15.6956445 L164.910254,15.6956445 L164.910254,14.0763476 L169.247657,14.0763476 L169.247657,15.6956445 Z M173.097618,13.0684179 L174.320352,13.0684179 C174.93723,13.0629101 175.426044,12.9031851 175.786807,12.5892382 C176.147571,12.2752914 176.32795,11.8209014 176.32795,11.2260546 C176.32795,10.6532393 176.177863,10.2084879 175.877686,9.89178706 C175.577509,9.57508626 175.118988,9.41673823 174.50211,9.41673823 C173.962342,9.41673823 173.518967,9.57233238 173.171973,9.88352535 C172.824979,10.1947183 172.651485,10.6009154 172.651485,11.1021289 L170.643887,11.1021289 C170.643887,10.4852508 170.807743,9.92345952 171.13546,9.41673823 C171.463176,8.91001695 171.92032,8.51483535 172.506905,8.23118159 C173.09349,7.94752782 173.75029,7.80570307 174.477325,7.80570307 C175.678034,7.80570307 176.621237,8.10725279 177.306963,8.71036128 C177.99269,9.31346976 178.335547,10.1520258 178.335547,11.2260546 C178.335547,11.765823 178.16343,12.2739136 177.81919,12.7503418 C177.47495,13.2267699 177.030199,13.5861511 176.484922,13.8284961 C177.145863,14.0543175 177.648446,14.4095679 177.992686,14.8942578 C178.336926,15.3789477 178.509044,15.9572622 178.509044,16.6292187 C178.509044,17.7087554 178.138647,18.5679655 177.397842,19.206875 C176.657038,19.8457844 175.683542,20.1652344 174.477325,20.1652344 C173.320678,20.1652344 172.373344,19.8568 171.635294,19.2399219 C170.897243,18.6230438 170.528223,17.8023879 170.528223,16.7779297 L172.535821,16.7779297 C172.535821,17.3066823 172.713446,17.7362874 173.068702,18.0667578 C173.423957,18.3972282 173.901755,18.5624609 174.50211,18.5624609 C175.124496,18.5624609 175.614686,18.3972282 175.972696,18.0667578 C176.330706,17.7362874 176.509708,17.2571125 176.509708,16.6292187 C176.509708,15.9958171 176.322444,15.5083806 175.947911,15.1668945 C175.573378,14.8254084 175.017094,14.6546679 174.279044,14.6546679 L173.097618,14.6546679 L173.097618,13.0684179 Z M185.134942,15.3651758 L182.805137,15.3651758 L182.805137,20 L180.714922,20 L180.714922,7.97093745 L184.944923,7.97093745 C186.332898,7.97093745 187.404157,8.28212574 188.158731,8.90451167 C188.913305,9.5268976 189.290587,10.4274159 189.290587,11.6060937 C189.290587,12.4102384 189.096438,13.0835617 188.708135,13.626084 C188.319833,14.1686062 187.778696,14.5858188 187.084708,14.8777344 L189.78629,19.8925977 L189.78629,20 L187.547364,20 L185.134942,15.3651758 Z M182.805137,13.6880468 L184.953184,13.6880468 C185.658188,13.6880468 186.208964,13.5104217 186.605528,13.155166 C187.002092,12.7999103 187.200372,12.3138507 187.200372,11.6969726 C187.200372,11.0525553 187.017239,10.5541033 186.650967,10.2016015 C186.284696,9.84909975 185.738051,9.66734376 185.011016,9.65632808 L182.805137,9.65632808 L182.805137,13.6880468 Z M199.551641,9.65632808 L195.800821,9.65632808 L195.800821,20 L193.72713,20 L193.72713,9.65632808 L190.009356,9.65632808 L190.009356,7.97093745 L199.551641,7.97093745 L199.551641,9.65632808 Z M205.186134,13.6715234 L207.953809,7.97093745 L210.267091,7.97093745 L206.235372,15.5717187 L206.235372,20 L204.136895,20 L204.136895,15.5717187 L200.096915,7.97093745 L202.418458,7.97093745 L205.186134,13.6715234 Z" id="perma.cc/NG87-3RTY" fill="#2672F2" sketch:type="MSShapeGroup"></path>
            </g>
            <path d="M153.294922,186.009766 L35.7935355,186.009766 L35.7935355,72.5984837" id="Path-260" stroke="#9B9B9B" stroke-width="2" sketch:type="MSShapeGroup"></path>
            <path d="M153.501386,339.490235 L36,339.490235 L36,198" id="Path-260-Copy" stroke="#2672F2" stroke-width="2" sketch:type="MSShapeGroup" transform="translate(94.750693, 268.745117) scale(1, -1) translate(-94.750693, -268.745117) "></path>
        </g>
    </g>
</svg>