<?xml version="1.0" encoding="UTF-8" standalone="no"?>
<svg width="416px" height="416px" viewBox="0 0 416 416" version="1.1" xmlns="http://www.w3.org/2000/svg" xmlns:xlink="http://www.w3.org/1999/xlink" xmlns:sketch="http://www.bohemiancoding.com/sketch/ns" preserveAspectRatio="xMidYMid meet">
    <!-- Generator: Sketch 3.4.2 (15855) - http://www.bohemiancoding.com/sketch -->
    <title>websites-change-square</title>
    <desc>Created with Sketch.</desc>
    <defs>
        <rect id="path-1" x="0" y="0" width="76" height="100" rx="2"></rect>
        <rect id="path-3" x="0" y="0" width="76" height="100" rx="2"></rect>
        <rect id="path-5" x="0" y="0" width="61" height="85" rx="2"></rect>
        <rect id="path-7" x="0" y="0" width="61" height="85" rx="2"></rect>
        <rect id="path-9" x="0" y="0" width="87" height="111" rx="2"></rect>
        <rect id="path-11" x="0" y="0" width="87" height="111" rx="2"></rect>
        <rect id="path-13" x="0" y="1" width="96" height="119" rx="2"></rect>
        <rect id="path-15" x="41.6842105" y="46.7368421" width="48" height="31.5789474"></rect>
        <rect id="path-17" x="0" y="0" width="96" height="120" rx="2"></rect>
        <rect id="path-19" x="0" y="0" width="100" height="123" rx="2"></rect>
        <rect id="path-21" x="43.4210526" y="46.6842105" width="50" height="32.8947368"></rect>
        <rect id="path-23" x="0" y="-1" width="100" height="124" rx="2"></rect>
        <rect id="path-25" x="0" y="0" width="100" height="123" rx="2"></rect>
        <rect id="path-27" x="43.4210526" y="46.6842105" width="50" height="32.8947368"></rect>
        <rect id="path-29" x="0" y="-1" width="100" height="124" rx="2"></rect>
    </defs>
    <g id="Page-1" stroke="none" stroke-width="1" fill="none" fill-rule="evenodd" sketch:type="MSPage">
        <g id="websites-change-square" sketch:type="MSArtboardGroup">
            <g id="Group-Copy-7" sketch:type="MSLayerGroup" transform="translate(247.000000, 0.000000)">
                <mask id="mask-2" sketch:name="Mask" fill="white">
                    <use xlink:href="#path-1"></use>
                </mask>
                <use id="Mask" fill="#FFFFFF" sketch:type="MSShapeGroup" xlink:href="#path-1"></use>
                <g id="Group-Copy-2" mask="url(#mask-2)">
                    <g transform="translate(5.000000, 40.000000)">
                        <g id="Group" stroke="none" fill-rule="evenodd" sketch:type="MSLayerGroup" transform="translate(0.000000, 7.000000)">
                            <rect id="Rectangle-323-Copy-2" fill="#9B9B9B" sketch:type="MSShapeGroup" x="0" y="7" width="25" height="4"></rect>
                            <rect id="Rectangle-323-Copy-7" fill="#9B9B9B" sketch:type="MSShapeGroup" x="0" y="0" width="36" height="4"></rect>
                            <rect id="Rectangle-323-Copy-3" fill="#9B9B9B" sketch:type="MSShapeGroup" x="0" y="14" width="25" height="4"></rect>
                            <rect id="Rectangle-323-Copy-4" fill="#9B9B9B" sketch:type="MSShapeGroup" x="0" y="21" width="25" height="4"></rect>
                        </g>
                        <path d="M0.5,39.5 L65.5,39.5" id="Line" stroke="#9B9B9B" stroke-linecap="square" sketch:type="MSShapeGroup"></path>
                        <path d="M0.5,1.5 L65.5,1.5" id="Line-Copy-33" stroke="#9B9B9B" stroke-linecap="square" sketch:type="MSShapeGroup"></path>
                    </g>
                </g>
                <g id="Group-Copy-9" mask="url(#mask-2)" fill="#9B9B9B" sketch:type="MSShapeGroup">
                    <g transform="translate(5.000000, 84.000000)">
                        <rect id="Rectangle-323-Copy-2" x="0" y="0" width="15" height="4"></rect>
                        <rect id="Rectangle-323-Copy-3" x="0" y="7" width="15" height="4"></rect>
                    </g>
                </g>
                <rect id="Rectangle-323" fill="#9B9B9B" sketch:type="MSShapeGroup" mask="url(#mask-2)" x="5" y="29" width="56" height="8"></rect>
                <rect id="Rectangle-323-Copy-9" fill="#9B9B9B" sketch:type="MSShapeGroup" mask="url(#mask-2)" x="63" y="29" width="8" height="8"></rect>
                <rect id="Rectangle-323-Copy-8" fill="#9B9B9B" sketch:type="MSShapeGroup" mask="url(#mask-2)" x="26" y="84" width="45" height="22"></rect>
                <g id="Oval-197-Copy-+-Oval-197-Copy-2-+-Oval-197" mask="url(#mask-2)" stroke="#FFFFFF" fill="#9B9B9B" sketch:type="MSShapeGroup">
                    <g transform="translate(33.000000, 90.000000)">
                        <path d="M8.97056697,10.9224333 C9.87173886,10.1518993 10.4421053,9.01211912 10.4421053,7.74038462 C10.4421053,5.41972658 8.54285004,3.53846154 6.2,3.53846154 C3.85714996,3.53846154 1.95789474,5.41972658 1.95789474,7.74038462 C1.95789474,9.01211912 2.52826114,10.1518993 3.42943303,10.9224333 C0,13.4080227 0,20.3461538 0,20.3461538 L12.4,20.3461538 C12.4,20.3461538 12.4,13.4080227 8.97056697,10.9224333 Z" id="Oval-197-Copy"></path>
                        <path d="M28.060486,11.9144039 C28.832919,11.2249787 29.3218045,10.2051754 29.3218045,9.06730769 C29.3218045,6.99092945 27.6938715,5.30769231 25.6857143,5.30769231 C23.6775571,5.30769231 22.0496241,6.99092945 22.0496241,9.06730769 C22.0496241,10.2051754 22.5385096,11.2249787 23.3109426,11.9144039 C20.3714286,14.1383523 20.3714286,20.3461538 20.3714286,20.3461538 L31,20.3461538 C31,20.3461538 31,14.1383523 28.060486,11.9144039 Z" id="Oval-197-Copy-2"></path>
                        <path d="M21.917198,10.1043824 C23.140217,9.04996741 23.9142857,7.49026827 23.9142857,5.75 C23.9142857,2.57436269 21.3367251,0 18.1571429,0 C14.9775607,0 12.4,2.57436269 12.4,5.75 C12.4,7.49026827 13.1740687,9.04996741 14.3970877,10.1043824 C9.74285714,13.5057153 9.74285714,23 9.74285714,23 L26.5714286,23 C26.5714286,23 26.5714286,13.5057153 21.917198,10.1043824 Z" id="Oval-197"></path>
                    </g>
                </g>
                <rect id="Rectangle-692-Copy-3" fill="#F2F2F2" sketch:type="MSShapeGroup" mask="url(#mask-2)" x="-15" y="-10" width="106" height="34"></rect>
                <polygon id="Star-5" fill="#9B9B9B" sketch:type="MSShapeGroup" mask="url(#mask-2)" points="58.5 70.1104452 56.061371 72.759816 54.8222418 69.3788936 51.5553721 70.8933702 51.704389 67.295611 48.1066298 67.4446279 49.6211064 64.1777582 46.240184 62.938629 48.8895548 60.5 46.240184 58.061371 49.6211064 56.8222418 48.1066298 53.5553721 51.704389 53.704389 51.5553721 50.1066298 54.8222418 51.6211064 56.061371 48.240184 58.5 50.8895548 60.938629 48.240184 62.1777582 51.6211064 65.4446279 50.1066298 65.295611 53.704389 68.8933702 53.5553721 67.3788936 56.8222418 70.759816 58.061371 68.1104452 60.5 70.759816 62.938629 67.3788936 64.1777582 68.8933702 67.4446279 65.295611 67.295611 65.4446279 70.8933702 62.1777582 69.3788936 60.938629 72.759816 "></polygon>
                <mask id="mask-4" sketch:name="Mask" fill="white">
                    <use xlink:href="#path-3"></use>
                </mask>
                <use id="Mask" stroke="#9B9B9B" stroke-width="2" sketch:type="MSShapeGroup" xlink:href="#path-3"></use>
            </g>
            <g id="Group-Copy-8" sketch:type="MSLayerGroup" transform="translate(354.000000, 0.000000)">
                <mask id="mask-6" sketch:name="Mask" fill="white">
                    <use xlink:href="#path-5"></use>
                </mask>
                <use id="Mask" stroke="#9B9B9B" stroke-width="2" fill="#FFFFFF" sketch:type="MSShapeGroup" xlink:href="#path-5"></use>
                <path d="M20.8057155,51.7744912 L23.2966951,51.7744912 L23.2966951,52.8828125 L20.8057155,52.8828125 L20.8057155,56.9210526 L19.488898,56.9210526 L19.488898,52.8828125 L11.9720652,52.8828125 L11.9720652,52.136616 L19.3681898,40.9436678 L20.8057155,40.9436678 L20.8057155,51.7744912 Z M13.5851665,51.7744912 L19.488898,51.7744912 L19.488898,42.6445569 L18.9073037,43.654117 L13.5851665,51.7744912 Z M34.8298211,50.2601511 C34.8298211,52.5133833 34.4164909,54.2234 33.5898181,55.3902524 C32.7631452,56.5571048 31.5451012,57.1405222 29.9356497,57.1405222 C28.3554608,57.1405222 27.1447325,56.5680781 26.3034282,55.4231728 C25.462124,54.2782675 25.0305048,52.6121443 25.0085578,50.4247533 L25.0085578,47.5606754 C25.0085578,45.3147588 25.4255458,43.6138867 26.2595343,42.4580078 C27.0935229,41.302129 28.3115668,40.7241982 29.9137027,40.7241982 C31.4938915,40.7241982 32.7009621,41.2820111 33.5349507,42.3976537 C34.3689392,43.5132963 34.8005584,45.1574727 34.8298211,47.3302323 L34.8298211,50.2601511 Z M33.5130037,47.3960732 C33.5130037,45.5671509 33.2148938,44.1845065 32.6186652,43.2480983 C32.0224365,42.3116901 31.1207914,41.843493 29.9137027,41.843493 C28.7285611,41.843493 27.8360604,42.3007167 27.2361739,43.2151778 C26.6362874,44.129639 26.3290331,45.4793633 26.3144017,47.2643914 L26.3144017,50.4028063 C26.3144017,52.2244129 26.623485,53.6180307 27.2416607,54.5837017 C27.8598364,55.5493726 28.7578237,56.0322009 29.9356497,56.0322009 C31.1061599,56.0322009 31.9931739,55.560346 32.5967182,54.6166221 C33.2002626,53.6728982 33.505688,52.2902538 33.5130037,50.4686472 L33.5130037,47.3960732 Z M45.7155119,51.7744912 L48.2064916,51.7744912 L48.2064916,52.8828125 L45.7155119,52.8828125 L45.7155119,56.9210526 L44.3986945,56.9210526 L44.3986945,52.8828125 L36.8818616,52.8828125 L36.8818616,52.136616 L44.2779862,40.9436678 L45.7155119,40.9436678 L45.7155119,51.7744912 Z M38.494963,51.7744912 L44.3986945,51.7744912 L44.3986945,42.6445569 L43.8171001,43.654117 L38.494963,51.7744912 Z" id="404" fill="#9B9B9B" sketch:type="MSShapeGroup" mask="url(#mask-6)"></path>
                <rect id="Rectangle-692-Copy-2" fill="#F1F1F1" sketch:type="MSShapeGroup" mask="url(#mask-6)" x="-22" y="-10" width="106" height="34"></rect>
                <rect id="Rectangle-323-Copy-2" fill="#9B9B9B" sketch:type="MSShapeGroup" mask="url(#mask-6)" x="20.8684211" y="66.5526316" width="20.0657895" height="3.21052632"></rect>
                <mask id="mask-8" sketch:name="Mask Copy 3" fill="white">
                    <use xlink:href="#path-7"></use>
                </mask>
                <use id="Mask-Copy-3" stroke="#9B9B9B" stroke-width="2" sketch:type="MSShapeGroup" xlink:href="#path-7"></use>
            </g>
            <g id="Shape-Copy-11" sketch:type="MSLayerGroup" transform="translate(105.000000, 54.000000)" fill="#9B9B9B">
                <path d="M10.6234388,16.8164063 L19.8425293,8.40820313 L10.6234384,7.10542736e-15 L10.6234384,4.16577844 L13.5195313,6.98133919 L1.75692794e-14,6.98133926 L1.77635684e-14,10.0439453 L13.5195316,10.0439455 L10.6234384,12.6030367 L10.6234388,16.8164063 Z" id="Path-241" sketch:type="MSShapeGroup"></path>
            </g>
            <g id="Shape-Copy-12" sketch:type="MSLayerGroup" transform="translate(222.000000, 54.000000)" fill="#9B9B9B">
                <path d="M10.6234388,16.8164063 L19.8425293,8.40820313 L10.6234384,7.10542736e-15 L10.6234384,4.16577844 L13.5195313,6.98133919 L1.75692794e-14,6.98133926 L1.77635684e-14,10.0439453 L13.5195316,10.0439455 L10.6234384,12.6030367 L10.6234388,16.8164063 Z" id="Path-241" sketch:type="MSShapeGroup"></path>
            </g>
            <g id="Shape-Copy-13" sketch:type="MSLayerGroup" transform="translate(329.000000, 54.000000)" fill="#9B9B9B">
                <path d="M10.6234388,16.8164063 L19.8425293,8.40820313 L10.6234384,7.10542736e-15 L10.6234384,4.16577844 L13.5195313,6.98133919 L1.75692794e-14,6.98133926 L1.77635684e-14,10.0439453 L13.5195316,10.0439455 L10.6234384,12.6030367 L10.6234388,16.8164063 Z" id="Path-241" sketch:type="MSShapeGroup"></path>
            </g>
            <g id="Group-Copy-4" sketch:type="MSLayerGroup" transform="translate(129.000000, 0.000000)">
                <mask id="mask-10" sketch:name="Mask" fill="white">
                    <use xlink:href="#path-9"></use>
                </mask>
                <use id="Mask" fill="#FFFFFF" sketch:type="MSShapeGroup" xlink:href="#path-9"></use>
                <rect id="Rectangle-323-Copy" fill="#9B9B9B" sketch:type="MSShapeGroup" mask="url(#mask-10)" x="5.72368421" y="83.5263158" width="75.5526316" height="50.3684211"></rect>
                <rect id="Rectangle-323-Copy-2" fill="#9B9B9B" sketch:type="MSShapeGroup" mask="url(#mask-10)" x="5.72368421" y="51.4736842" width="36.6315789" height="4.57894737"></rect>
                <rect id="Rectangle-323-Copy-10" fill="#9B9B9B" sketch:type="MSShapeGroup" mask="url(#mask-10)" x="25.1842105" y="36.5921053" width="36.6315789" height="4.57894737"></rect>
                <rect id="Rectangle-323-Copy-3" fill="#9B9B9B" sketch:type="MSShapeGroup" mask="url(#mask-10)" x="5.72368421" y="59.4868421" width="36.6315789" height="4.57894737"></rect>
                <rect id="Rectangle-323-Copy-4" fill="#9B9B9B" sketch:type="MSShapeGroup" mask="url(#mask-10)" x="5.72368421" y="67.5" width="36.6315789" height="4.57894737"></rect>
                <rect id="Rectangle-323-Copy-5" fill="#9B9B9B" sketch:type="MSShapeGroup" mask="url(#mask-10)" x="5.72368421" y="75.5131579" width="36.6315789" height="4.57894737"></rect>
                <rect id="Rectangle-323-Copy-2" fill="#9B9B9B" sketch:type="MSShapeGroup" mask="url(#mask-10)" x="45.7894737" y="51.4736842" width="35.4868421" height="4.57894737"></rect>
                <rect id="Rectangle-323-Copy-3" fill="#9B9B9B" sketch:type="MSShapeGroup" mask="url(#mask-10)" x="45.7894737" y="59.4868421" width="35.4868421" height="4.57894737"></rect>
                <rect id="Rectangle-323-Copy-4" fill="#9B9B9B" sketch:type="MSShapeGroup" mask="url(#mask-10)" x="45.7894737" y="67.5" width="35.4868421" height="4.57894737"></rect>
                <rect id="Rectangle-323-Copy-5" fill="#9B9B9B" sketch:type="MSShapeGroup" mask="url(#mask-10)" x="45.7894737" y="75.5131579" width="35.4868421" height="4.57894737"></rect>
                <g id="Oval-197-Copy-+-Oval-197-Copy-2-+-Oval-197" mask="url(#mask-10)" stroke="#FFFFFF" fill="#9B9B9B" sketch:type="MSShapeGroup">
                    <g transform="translate(26.328947, 89.250000)">
                        <path d="M10.2689385,12.5033118 C11.3005432,11.6212531 11.9534626,10.3165048 11.9534626,8.86070344 C11.9534626,6.20416069 9.77931518,4.05060729 7.09736842,4.05060729 C4.41542166,4.05060729 2.24127424,6.20416069 2.24127424,8.86070344 C2.24127424,10.3165048 2.89419368,11.6212531 3.92579834,12.5033118 C0,15.3486576 0,23.2909919 0,23.2909919 L14.1947368,23.2909919 C14.1947368,23.2909919 14.1947368,15.3486576 10.2689385,12.5033118 Z" id="Oval-197-Copy"></path>
                        <path d="M32.1218721,13.6388571 C33.0061047,12.8496467 33.5657499,11.6822403 33.5657499,10.3796812 C33.5657499,8.0027745 31.702195,6.07591093 29.4033835,6.07591093 C27.1045719,6.07591093 25.241017,8.0027745 25.241017,10.3796812 C25.241017,11.6822403 25.8006623,12.8496467 26.6848948,13.6388571 C23.3199248,16.1846928 23.3199248,23.2909919 23.3199248,23.2909919 L35.4868421,23.2909919 C35.4868421,23.2909919 35.4868421,16.1846928 32.1218721,13.6388571 Z" id="Oval-197-Copy-2"></path>
                        <path d="M25.0894241,11.5668588 C26.489459,10.3598311 27.3755639,8.57438604 27.3755639,6.58223684 C27.3755639,2.94696781 24.4249353,0 20.7851504,0 C17.1453655,0 14.1947368,2.94696781 14.1947368,6.58223684 C14.1947368,8.57438604 15.0808418,10.3598311 16.4808767,11.5668588 C11.1530075,15.4604899 11.1530075,26.3289474 11.1530075,26.3289474 L30.4172932,26.3289474 C30.4172932,26.3289474 30.4172932,15.4604899 25.0894241,11.5668588 Z" id="Oval-197"></path>
                    </g>
                </g>
                <polygon id="Star-5" fill="#9B9B9B" sketch:type="MSShapeGroup" mask="url(#mask-10)" points="12.5921053 45.0423801 10.3345378 46.5701476 9.26132467 44.0643747 6.53616459 44.1290814 6.98804338 41.4408683 4.66050976 40.0219702 6.49401215 38.0048055 5.30308046 35.5527929 7.93608239 34.8471122 8.25986503 32.1404816 10.856407 32.9703335 12.5921053 30.8684211 14.3278035 32.9703335 16.9243455 32.1404816 17.2481281 34.8471122 19.8811301 35.5527929 18.6901984 38.0048055 20.5237008 40.0219702 18.1961671 41.4408683 18.6480459 44.1290814 15.9228859 44.0643747 14.8496727 46.5701476 "></polygon>
                <path d="M55.0446263,18.5211374 L90.7718185,54.3780068 L89.0714818,39.5567948 L58.6018066,9.15195826 L55.0446263,18.5211374 Z" id="Path-291" fill="#9B9B9B" sketch:type="MSShapeGroup" mask="url(#mask-10)"></path>
                <rect id="Rectangle-692-Copy" fill="#F2F2F2" sketch:type="MSShapeGroup" mask="url(#mask-10)" x="-3" y="-10" width="106" height="34"></rect>
                <mask id="mask-12" sketch:name="Mask" fill="white">
                    <use xlink:href="#path-11"></use>
                </mask>
                <use id="Mask" stroke="#9B9B9B" stroke-width="2" sketch:type="MSShapeGroup" xlink:href="#path-11"></use>
            </g>
            <g id="Mask-+-Mask-+-Mask-+-Group-+-Group-Copy-2" sketch:type="MSLayerGroup" transform="translate(140.000000, 130.000000)">
                <g id="Mask-+-Mask-+-Mask" stroke="#222222" stroke-width="2" fill="#FFFFFF" sketch:type="MSShapeGroup">
                    <rect id="Mask" x="8" y="8" width="132" height="170" rx="2"></rect>
                    <rect id="Mask" x="4" y="4" width="132" height="170" rx="2"></rect>
                    <rect id="Mask" x="0" y="0" width="132" height="170" rx="2"></rect>
                </g>
                <g id="Group" transform="translate(18.000000, 19.000000)" sketch:type="MSShapeGroup">
                    <rect id="Rectangle-323-Copy-3" fill="#222222" x="0" y="0" width="98" height="4"></rect>
                    <rect id="Rectangle-323-Copy-4" fill="#222222" x="0" y="7" width="98" height="4"></rect>
                    <rect id="Rectangle-323-Copy-5" fill="#222222" x="0" y="14" width="98" height="4"></rect>
                    <rect id="Rectangle-323-Copy-2" fill="#222222" x="0" y="21" width="98" height="4"></rect>
                    <rect id="Rectangle-323-Copy-3" fill="#222222" x="0" y="28" width="98" height="4"></rect>
                    <rect id="Rectangle-323-Copy-4" fill="#222222" x="0" y="35" width="66" height="4"></rect>
                    <rect id="Rectangle-323-Copy-14" fill="#9B9B9B" x="0" y="43" width="37" height="8"></rect>
                    <rect id="Rectangle-323-Copy-15" fill="#2672F2" x="0" y="55" width="37" height="8"></rect>
                </g>
                <g id="Group-Copy" transform="translate(19.000000, 96.000000)" fill="#222222" sketch:type="MSShapeGroup">
                    <rect id="Rectangle-323-Copy-2" x="0" y="7" width="98" height="4"></rect>
                    <rect id="Rectangle-323-Copy-11" x="0" y="0" width="98" height="4"></rect>
                    <rect id="Rectangle-323-Copy-3" x="0" y="14" width="98" height="4"></rect>
                    <rect id="Rectangle-323-Copy-4" x="0" y="21" width="98" height="4"></rect>
                    <rect id="Rectangle-323-Copy-5" x="0" y="28" width="98" height="4"></rect>
                    <rect id="Rectangle-323-Copy-2" x="0" y="35" width="98" height="4"></rect>
                    <rect id="Rectangle-323-Copy-3" x="0" y="42" width="98" height="4"></rect>
                    <rect id="Rectangle-323-Copy-4" x="0" y="49" width="98" height="4"></rect>
                    <rect id="Rectangle-323-Copy-5" x="0" y="56" width="76" height="4"></rect>
                </g>
            </g>
            <path d="M118.589679,359 L106,359" id="Line-Copy-10" stroke="#2672F2" stroke-width="3" stroke-linecap="round" stroke-dasharray="1,5" sketch:type="MSShapeGroup"></path>
            <path d="M309.589679,359 L297,359" id="Line-Copy-11" stroke="#2672F2" stroke-width="3" stroke-linecap="round" stroke-dasharray="1,5" sketch:type="MSShapeGroup"></path>
            <g id="Rectangle-368-+-perma-logo-orange-copy-10-+-Rectangle-423-+-perma.cc/NG87-3RTY-Copy" sketch:type="MSLayerGroup" transform="translate(126.000000, 342.000000)">
                <rect id="Rectangle-423" stroke="#2672F2" stroke-width="2" sketch:type="MSShapeGroup" x="0" y="0" width="164" height="31" rx="3"></rect>
                <path d="M16.0021601,16.7820551 C16.0021601,18.0531962 15.7214856,19.0673084 15.1601282,19.8244223 C14.5987708,20.5815362 13.8453814,20.9600875 12.8999373,20.9600875 C12.0234318,20.9600875 11.3217456,20.66383 10.7948575,20.0713061 L10.7948575,23.9682708 L9,23.9682708 L9,12.5888299 L10.6545188,12.5888299 L10.7283813,13.4244363 C11.2552694,12.7660764 11.971728,12.4369014 12.8777785,12.4369014 C13.8527677,12.4369014 14.6172364,12.8103884 15.1712076,13.5573737 C15.7251787,14.304359 16.0021601,15.3412603 16.0021601,16.6681088 L16.0021601,16.7820551 Z M14.2146889,16.6225302 C14.2146889,15.8021125 14.0558862,15.1513588 13.7382761,14.6702496 C13.420666,14.1891405 12.9664164,13.9485895 12.3755139,13.9485895 C11.6418099,13.9485895 11.1149297,14.2600397 10.7948575,14.8829495 L10.7948575,18.5292323 C11.1198539,19.167335 11.6516582,19.4863815 12.3902864,19.4863815 C12.9614922,19.4863815 13.4083555,19.2496287 13.7308898,18.776116 C14.0534241,18.3026033 14.2146889,17.5847486 14.2146889,16.6225302 L14.2146889,16.6225302 Z M21.0395791,20.9600875 C19.9020917,20.9600875 18.9800514,20.5916647 18.2734304,19.854808 C17.5668095,19.1179514 17.2135043,18.1367566 17.2135043,16.9111943 L17.2135043,16.6833016 C17.2135043,15.8628839 17.3673828,15.1298364 17.6751446,14.4841373 C17.9829063,13.8384381 18.4149973,13.3358132 18.9714306,12.9762474 C19.5278638,12.6166816 20.1483021,12.4369014 20.8327643,12.4369014 C21.9210098,12.4369014 22.7618022,12.7939297 23.3551669,13.507997 C23.9485315,14.2220643 24.2452094,15.2323784 24.2452094,16.5389696 L24.2452094,17.283419 L19.0231343,17.283419 C19.0773003,17.9620361 19.2976544,18.4988446 19.6842032,18.8938606 C20.0707519,19.2888765 20.5570082,19.4863815 21.1429865,19.4863815 C21.9653259,19.4863815 22.6350054,19.1445459 23.1520451,18.4608645 L24.1196432,19.4104173 C23.799571,19.9016551 23.3724041,20.2827385 22.8381297,20.5536789 C22.3038554,20.8246193 21.7043445,20.9600875 21.0395791,20.9600875 L21.0395791,20.9600875 Z M20.825378,13.9182038 C20.3329592,13.9182038 19.935337,14.0954519 19.6324995,14.4499534 C19.3296619,14.8044549 19.1363904,15.2982174 19.0526792,15.9312558 L22.4725106,15.9312558 L22.4725106,15.7945202 C22.4331171,15.1766747 22.2730834,14.7094994 21.9924047,14.3929802 C21.711726,14.076461 21.322721,13.9182038 20.825378,13.9182038 L20.825378,13.9182038 Z M29.8218242,14.2752357 C29.5854632,14.2347212 29.3417196,14.2144643 29.090586,14.2144643 C28.2682466,14.2144643 27.7142838,14.5385751 27.4286809,15.1868064 L27.4286809,20.8081591 L25.6338234,20.8081591 L25.6338234,12.5888299 L27.3474322,12.5888299 L27.3917497,13.507997 C27.8250782,12.7939297 28.4258201,12.4369014 29.1939934,12.4369014 C29.4500512,12.4369014 29.6617881,12.472351 29.8292105,12.5432513 L29.8218242,14.2752357 Z M32.6433698,12.5888299 L32.6950735,13.4472256 C33.2564309,12.7736728 34.0245927,12.4369014 34.9995819,12.4369014 C36.0681307,12.4369014 36.7993616,12.8572326 37.1932966,13.6979076 C37.7743508,12.8572326 38.5917537,12.4369014 39.6455299,12.4369014 C40.5269595,12.4369014 41.1830977,12.6875808 41.6139642,13.1889472 C42.0448306,13.6903136 42.2651847,14.4296914 42.2750331,15.4071026 L42.2750331,20.8081591 L40.4801756,20.8081591 L40.4801756,15.4602776 C40.4801756,14.938654 40.369383,14.5563045 40.1477946,14.3132178 C39.9262061,14.070131 39.5593596,13.9485895 39.0472441,13.9485895 C38.6385365,13.9485895 38.3049278,14.0612686 38.0464079,14.2866303 C37.787888,14.511992 37.6069268,14.8069834 37.5035189,15.1716135 L37.5109051,20.8081591 L35.7160476,20.8081591 L35.7160476,15.3995062 C35.6914267,14.4322236 35.2113256,13.9485895 34.2757299,13.9485895 C33.5567985,13.9485895 33.0471527,14.2499112 32.7467772,14.8525638 L32.7467772,20.8081591 L30.9519197,20.8081591 L30.9519197,12.5888299 L32.6433698,12.5888299 Z M48.8931085,20.8081591 C48.8143215,20.6511655 48.7453839,20.3954219 48.6862936,20.0409204 C48.1150878,20.6537015 47.4158636,20.9600875 46.5886001,20.9600875 C45.7859574,20.9600875 45.1310503,20.7246008 44.6238589,20.2536202 C44.1166676,19.7826397 43.8630757,19.2002531 43.8630757,18.506443 C43.8630757,17.6303179 44.17945,16.9580412 44.8122082,16.4895928 C45.4449663,16.0211444 46.3497723,15.7869238 47.5266532,15.7869238 L48.6272036,15.7869238 L48.6272036,15.2475778 C48.6272036,14.822176 48.511487,14.4816064 48.2800501,14.2258589 C48.0486133,13.9701114 47.6965392,13.8422396 47.2238171,13.8422396 C46.8151095,13.8422396 46.4802698,13.9473224 46.2192878,14.1574911 C45.9583059,14.3676599 45.8278168,14.634798 45.8278168,14.9589137 L44.0329593,14.9589137 C44.0329593,14.5081904 44.1782207,14.0865931 44.4687478,13.6941093 C44.7592749,13.3016255 45.154435,12.9939735 45.6542401,12.771144 C46.1540452,12.5483145 46.7117011,12.4369014 47.3272246,12.4369014 C48.2628202,12.4369014 49.0088235,12.6787184 49.5652567,13.1623598 C50.12169,13.6460011 50.4072886,14.3258741 50.4220611,15.2019992 L50.4220611,18.9090534 C50.4220611,19.6484422 50.5230055,20.2384252 50.7248972,20.6790199 L50.7248972,20.8081591 L48.8931085,20.8081591 Z M46.9209811,19.4787851 C47.2755226,19.4787851 47.6091313,19.3901611 47.9218173,19.2129103 C48.2345032,19.0356596 48.4696296,18.7976407 48.6272036,18.4988466 L48.6272036,16.9491764 L47.6596056,16.9491764 C46.9948402,16.9491764 46.4950426,17.0681858 46.1601979,17.3062083 C45.8253531,17.5442307 45.6579332,17.8810021 45.6579332,18.3165325 C45.6579332,18.671034 45.7724189,18.9533648 46.0013936,19.1635336 C46.2303683,19.3737023 46.5368944,19.4787851 46.9209811,19.4787851 L46.9209811,19.4787851 Z M53.4208766,18.8634749 C53.7557213,18.8634749 54.0142373,18.9609613 54.1964323,19.1559372 C54.3786272,19.350913 54.4697233,19.5952621 54.4697233,19.8889919 C54.4697233,20.1776574 54.3786272,20.4169424 54.1964323,20.6068539 C54.0142373,20.7967654 53.7557213,20.8917197 53.4208766,20.8917197 C53.1008043,20.8917197 52.8472125,20.7980314 52.6600933,20.6106521 C52.4729742,20.4232727 52.379416,20.1827217 52.379416,19.8889919 C52.379416,19.5952621 52.4705121,19.350913 52.6527071,19.1559372 C52.834902,18.9609613 53.090956,18.8634749 53.4208766,18.8634749 L53.4208766,18.8634749 Z M59.8099784,19.4863815 C60.2580795,19.4863815 60.6298501,19.3521794 60.9253013,19.0837711 C61.2207526,18.8153629 61.3783243,18.4836557 61.398021,18.0886398 L63.0894711,18.0886398 C63.0697743,18.6001348 62.9146647,19.0774386 62.6241376,19.5205654 C62.3336106,19.9636923 61.9396814,20.3143903 61.4423385,20.57267 C60.9449955,20.8309496 60.4082671,20.9600875 59.8321371,20.9600875 C58.7143465,20.9600875 57.8280059,20.5878665 57.1730889,19.8434134 C56.518172,19.0989603 56.1907184,18.0709214 56.1907184,16.7592658 L56.1907184,16.5693553 C56.1907184,15.3184714 56.5157099,14.3170197 57.1657027,13.5649702 C57.8156955,12.8129206 58.702036,12.4369014 59.8247508,12.4369014 C60.7751191,12.4369014 61.549436,12.7217644 62.1477249,13.2914989 C62.7460137,13.8612335 63.0599259,14.6094736 63.0894711,15.5362418 L61.398021,15.5362418 C61.3783243,15.0652613 61.2219836,14.6778476 60.9289945,14.3739892 C60.6360053,14.0701307 60.2630036,13.9182038 59.8099784,13.9182038 C59.2289242,13.9182038 58.7808298,14.1346997 58.4656818,14.5676979 C58.1505338,15.0006962 57.9905001,15.6577802 57.9855759,16.5389696 L57.9855759,16.8352301 C57.9855759,17.7265481 58.1419165,18.3912284 58.4546024,18.829291 C58.7672884,19.2673535 59.2190758,19.4863815 59.8099784,19.4863815 L59.8099784,19.4863815 Z M67.7280328,19.4863815 C68.1761339,19.4863815 68.5479045,19.3521794 68.8433558,19.0837711 C69.1388071,18.8153629 69.2963787,18.4836557 69.3160755,18.0886398 L71.0075256,18.0886398 C70.9878288,18.6001348 70.8327192,19.0774386 70.5421921,19.5205654 C70.2516651,19.9636923 69.8577359,20.3143903 69.360393,20.57267 C68.86305,20.8309496 68.3263216,20.9600875 67.7501916,20.9600875 C66.6324009,20.9600875 65.7460604,20.5878665 65.0911434,19.8434134 C64.4362264,19.0989603 64.1087729,18.0709214 64.1087729,16.7592658 L64.1087729,16.5693553 C64.1087729,15.3184714 64.4337644,14.3170197 65.0837572,13.5649702 C65.73375,12.8129206 66.6200905,12.4369014 67.7428053,12.4369014 C68.6931736,12.4369014 69.4674905,12.7217644 70.0657793,13.2914989 C70.6640682,13.8612335 70.9779804,14.6094736 71.0075256,15.5362418 L69.3160755,15.5362418 C69.2963787,15.0652613 69.1400381,14.6778476 68.8470489,14.3739892 C68.5540598,14.0701307 68.1810581,13.9182038 67.7280328,13.9182038 C67.1469787,13.9182038 66.6988843,14.1346997 66.3837363,14.5676979 C66.0685883,15.0006962 65.9085546,15.6577802 65.9036304,16.5389696 L65.9036304,16.8352301 C65.9036304,17.7265481 66.059971,18.3912284 66.3726569,18.829291 C66.6853428,19.2673535 67.1371303,19.4863815 67.7280328,19.4863815 L67.7280328,19.4863815 Z M72.8688593,21.7577119 L71.4580865,21.7577119 L75.6904048,9.74776782 L77.1011776,9.74776782 L72.8688593,21.7577119 Z M87.0504494,20.8081591 L85.1817294,20.8081591 L80.3880565,12.9610546 L80.3880565,20.8081591 L78.5193366,20.8081591 L78.5193366,9.74776782 L80.3880565,9.74776782 L85.1965019,17.625258 L85.1965019,9.74776782 L87.0504494,9.74776782 L87.0504494,20.8081591 Z M97.5019859,19.3724352 C97.112975,19.8940588 96.5737845,20.2890688 95.8843982,20.5574771 C95.1950119,20.8258854 94.4120778,20.9600875 93.5355724,20.9600875 C92.634446,20.9600875 91.8367395,20.7499219 91.142429,20.3295844 C90.4481185,19.909247 89.9126212,19.3078695 89.5359208,18.5254341 C89.1592204,17.7429986 88.9634869,16.830171 88.9487143,15.7869238 L88.9487143,14.9209316 C88.9487143,13.2497103 89.3377193,11.9444047 90.115741,11.0049758 C90.8937627,10.0655468 91.9795298,9.59583937 93.373075,9.59583937 C94.5696526,9.59583937 95.5200066,9.89969324 96.2241655,10.5074101 C96.9283244,11.1151269 97.3517982,11.9912389 97.4945996,13.1357723 L95.6628109,13.1357723 C95.455995,11.8038595 94.7050676,11.1379132 93.4100062,11.1379132 C92.5728943,11.1379132 91.9364525,11.4480973 91.5006619,12.0684749 C91.0648713,12.6888525 90.8395931,13.5991481 90.8248205,14.7993888 L90.8248205,15.6501881 C90.8248205,16.8453646 91.0697952,17.7733849 91.5597519,18.434277 C92.0497086,19.0951691 92.7304673,19.4256102 93.6020486,19.4256102 C94.557341,19.4256102 95.2368687,19.202784 95.6406522,18.757125 L95.6406522,16.5921445 L93.4247787,16.5921445 L93.4247787,15.1336314 L97.5019859,15.1336314 L97.5019859,19.3724352 Z M106.040485,12.6647941 C106.040485,13.2066749 105.905072,13.6890429 105.634241,14.1119126 C105.363411,14.5347822 104.994103,14.8677554 104.526305,15.1108421 C105.087662,15.3792504 105.519753,15.7464072 105.822591,16.2123234 C106.125428,16.6782397 106.276845,17.2049197 106.276845,17.7923793 C106.276845,18.7647263 105.956777,19.5357554 105.316633,20.10549 C104.676488,20.6752245 103.824617,20.9600875 102.760992,20.9600875 C101.692443,20.9600875 100.836879,20.6739585 100.194272,20.1016918 C99.5516656,19.5294251 99.2303672,18.759662 99.2303672,17.7923793 C99.2303672,17.1998554 99.3830147,16.6681111 99.6883143,16.1971306 C99.993614,15.72615 100.422012,15.3640575 100.973521,15.1108421 C100.510647,14.8677554 100.145032,14.5347822 99.8766636,14.1119126 C99.6082953,13.6890429 99.4741132,13.2066749 99.4741132,12.6647941 C99.4741132,11.722833 99.7695601,10.9758589 100.360463,10.4238494 C100.951365,9.87183996 101.749072,9.59583937 102.753606,9.59583937 C103.763064,9.59583937 104.563233,9.87183996 105.154136,10.4238494 C105.745038,10.9758589 106.040485,11.722833 106.040485,12.6647941 L106.040485,12.6647941 Z M104.481987,17.7012222 C104.481987,17.1542771 104.323185,16.7124229 104.005574,16.3756465 C103.687964,16.0388701 103.268184,15.8704844 102.74622,15.8704844 C102.224256,15.8704844 101.806937,16.037604 101.494251,16.3718483 C101.181565,16.7060926 101.025225,17.1492128 101.025225,17.7012222 C101.025225,18.2431031 101.179103,18.6760948 101.486865,19.0002105 C101.794627,19.3243261 102.219332,19.4863815 102.760992,19.4863815 C103.302653,19.4863815 103.724896,19.3293904 104.027733,19.0154033 C104.330571,18.7014163 104.481987,18.2633603 104.481987,17.7012222 L104.481987,17.7012222 Z M104.253014,12.7331619 C104.253014,12.2520527 104.117601,11.8557766 103.84677,11.5443218 C103.57594,11.2328669 103.211555,11.0771418 102.753606,11.0771418 C102.295656,11.0771418 101.933734,11.2252705 101.667828,11.5215325 C101.401922,11.8177945 101.268971,12.2216669 101.268971,12.7331619 C101.268971,13.2395926 101.403153,13.642199 101.671521,13.9409931 C101.939889,14.2397872 102.303043,14.389182 102.760992,14.389182 C103.218942,14.389182 103.582095,14.2397872 103.850463,13.9409931 C104.118832,13.642199 104.253014,13.2395926 104.253014,12.7331619 L104.253014,12.7331619 Z M115.022159,10.7732849 L110.723364,20.8081591 L108.839872,20.8081591 L113.13128,11.2290702 L107.569438,11.2290702 L107.569438,9.74776782 L115.022159,9.74776782 L115.022159,10.7732849 Z M120.059578,16.8504229 L116.181799,16.8504229 L116.181799,15.3615241 L120.059578,15.3615241 L120.059578,16.8504229 Z M123.501568,14.4347605 L124.594732,14.4347605 C125.146241,14.4296962 125.583256,14.2828335 125.90579,13.994168 C126.228325,13.7055025 126.389589,13.2877035 126.389589,12.7407583 C126.389589,12.2140704 126.255407,11.8051337 125.987039,11.5139361 C125.718671,11.2227384 125.308738,11.0771418 124.757229,11.0771418 C124.274659,11.0771418 123.878268,11.2202063 123.568044,11.5063396 C123.25782,11.792473 123.102711,12.16596 123.102711,12.626812 L121.307853,12.626812 C121.307853,12.0596096 121.454345,11.543058 121.747335,11.0771418 C122.040324,10.6112255 122.449025,10.2478669 122.973451,9.98705513 C123.497877,9.72624332 124.085078,9.59583937 124.735071,9.59583937 C125.808544,9.59583937 126.651798,9.87310602 127.26486,10.4276476 C127.877921,10.9821893 128.184447,11.7532184 128.184447,12.7407583 C128.184447,13.2370604 128.030568,13.7042357 127.722807,14.1422983 C127.415045,14.5803608 127.017423,14.9108019 126.529928,15.1336314 C127.120831,15.341268 127.570156,15.6679109 127.877918,16.1135699 C128.18568,16.5592289 128.339558,17.0909732 128.339558,17.7088187 C128.339558,18.7014228 128.008411,19.4914429 127.346108,20.0789025 C126.683805,20.6663621 125.813468,20.9600875 124.735071,20.9600875 C123.700991,20.9600875 122.854044,20.6764906 122.194202,20.1092882 C121.534361,19.5420858 121.204446,18.7875154 121.204446,17.8455543 L122.999303,17.8455543 C122.999303,18.3317277 123.158106,18.7267378 123.475716,19.0305962 C123.793326,19.3344546 124.220493,19.4863815 124.757229,19.4863815 C125.313663,19.4863815 125.751909,19.3344546 126.071981,19.0305962 C126.392053,18.7267378 126.552087,18.2861497 126.552087,17.7088187 C126.552087,17.1264234 126.384667,16.6782389 126.049822,16.3642519 C125.714977,16.0502648 125.217642,15.8932737 124.557801,15.8932737 L123.501568,15.8932737 L123.501568,14.4347605 Z M134.263327,16.546566 L132.180405,16.546566 L132.180405,20.8081591 L130.311686,20.8081591 L130.311686,9.74776782 L134.093443,9.74776782 C135.334338,9.74776782 136.292078,10.0338969 136.966692,10.6061636 C137.641306,11.1784303 137.978608,12.006432 137.978608,13.0901937 C137.978608,13.8295826 137.805033,14.4486848 137.457877,14.9475191 C137.110722,15.4463533 136.626928,15.8299688 136.00648,16.0983771 L138.421782,20.7094056 L138.421782,20.8081591 L136.42011,20.8081591 L134.263327,16.546566 Z M132.180405,15.0044922 L134.100829,15.0044922 C134.731125,15.0044922 135.223537,14.8411708 135.578078,14.514523 C135.93262,14.1878752 136.109888,13.7409568 136.109888,13.1737544 C136.109888,12.5812305 135.946161,12.1229176 135.618702,11.7988019 C135.291244,11.4746863 134.802526,11.3075666 134.152533,11.297438 L132.180405,11.297438 L132.180405,15.0044922 Z M147.152324,11.297438 L143.798969,11.297438 L143.798969,20.8081591 L141.945021,20.8081591 L141.945021,11.297438 L138.621211,11.297438 L138.621211,9.74776782 L147.152324,9.74776782 L147.152324,11.297438 Z M152.189743,14.9892994 L154.664135,9.74776782 L156.732283,9.74776782 L153.127796,16.7364766 L153.127796,20.8081591 L151.25169,20.8081591 L151.25169,16.7364766 L147.639816,9.74776782 L149.715351,9.74776782 L152.189743,14.9892994 Z" id="perma.cc/NG87-3RTY" fill="#2672F2" sketch:type="MSShapeGroup"></path>
            </g>
            <path d="M183.294922,196.009766 L35.7935355,196.009766 L35.7935355,94.5984837" id="Path-260" stroke="#9B9B9B" stroke-width="2" sketch:type="MSShapeGroup"></path>
            <path d="M167.501386,361.226563 L36,361.226563 L36,208" id="Path-260-Copy" stroke="#2672F2" stroke-width="2" sketch:type="MSShapeGroup" transform="translate(101.750693, 284.613281) scale(1, -1) translate(-101.750693, -284.613281) "></path>
            <g id="Group" sketch:type="MSLayerGroup" transform="translate(2.000000, 0.000000)">
                <mask id="mask-14" sketch:name="Mask" fill="white">
                    <use xlink:href="#path-13"></use>
                </mask>
                <use id="Mask" stroke="#9B9B9B" stroke-width="2" sketch:type="MSShapeGroup" xlink:href="#path-13"></use>
                <rect id="Rectangle-692" fill="#F2F2F2" sketch:type="MSShapeGroup" mask="url(#mask-14)" x="-2" y="-10" width="106" height="34"></rect>
                <rect id="Rectangle-323" fill="#9B9B9B" sketch:type="MSShapeGroup" mask="url(#mask-14)" x="6.31578947" y="30.3157895" width="83.3684211" height="12.6315789"></rect>
                <rect id="Rectangle-323-Copy-6" fill="#9B9B9B" sketch:type="MSShapeGroup" mask="url(#mask-14)" x="6.31578947" y="92.2105263" width="48" height="41.6842105"></rect>
                <g mask="url(#mask-14)" fill="#9B9B9B" sketch:type="MSShapeGroup">
                    <g transform="translate(6.315789, 46.736842)">
                        <rect id="Rectangle-323-Copy-2" x="0" y="0" width="31.5789474" height="5.05263158"></rect>
                        <rect id="Rectangle-323-Copy-3" x="0" y="8.84210526" width="31.5789474" height="5.05263158"></rect>
                        <rect id="Rectangle-323-Copy-4" x="0" y="17.6842105" width="31.5789474" height="5.05263158"></rect>
                        <rect id="Rectangle-323-Copy-5" x="0" y="26.5263158" width="31.5789474" height="5.05263158"></rect>
                    </g>
                </g>
                <path d="M6.94736842,85.2631579 L89.0526316,85.2631579" id="Line" stroke="#9B9B9B" stroke-linecap="square" sketch:type="MSShapeGroup" mask="url(#mask-14)"></path>
                <g id="Group-Copy-2" mask="url(#mask-14)" fill="#9B9B9B" sketch:type="MSShapeGroup">
                    <g transform="translate(58.105263, 92.210526)">
                        <rect id="Rectangle-323-Copy-2" x="0" y="0" width="31.5789474" height="5.05263158"></rect>
                        <rect id="Rectangle-323-Copy-3" x="0" y="8.84210526" width="31.5789474" height="5.05263158"></rect>
                        <rect id="Rectangle-323-Copy-4" x="0" y="17.6842105" width="31.5789474" height="5.05263158"></rect>
                    </g>
                </g>
                <mask id="mask-16" sketch:name="Mask" fill="white">
                    <use xlink:href="#path-15"></use>
                </mask>
                <use id="Mask" fill="#9B9B9B" sketch:type="MSShapeGroup" xlink:href="#path-15"></use>
                <g id="Oval-197-Copy-+-Oval-197-Copy-2-+-Oval-197" mask="url(#mask-16)" stroke="#FFFFFF" fill="#9B9B9B" sketch:type="MSShapeGroup">
                    <g transform="translate(42.947368, 51.789474)">
                        <path d="M12.7933383,15.596335 C14.078541,14.4960758 14.8919668,12.8685637 14.8919668,11.0526316 C14.8919668,7.73892308 12.1833515,5.05263158 8.84210526,5.05263158 C5.50085902,5.05263158 2.79224377,7.73892308 2.79224377,11.0526316 C2.79224377,12.8685637 3.60566954,14.4960758 4.89087224,15.596335 C0,19.1455519 0,29.0526316 0,29.0526316 L17.6842105,29.0526316 C17.6842105,29.0526316 17.6842105,19.1455519 12.7933383,15.596335 Z" id="Oval-197-Copy"></path>
                        <path d="M40.0183501,17.0127872 C41.1199524,16.0283449 41.8171745,14.5721498 41.8171745,12.9473684 C41.8171745,9.98247134 39.4955043,7.57894737 36.6315789,7.57894737 C33.7676536,7.57894737 31.4459834,9.98247134 31.4459834,12.9473684 C31.4459834,14.5721498 32.1432055,16.0283449 33.2448078,17.0127872 C29.0526316,20.1884024 29.0526316,29.0526316 29.0526316,29.0526316 L44.2105263,29.0526316 C44.2105263,29.0526316 44.2105263,20.1884024 40.0183501,17.0127872 Z" id="Oval-197-Copy-2"></path>
                        <path d="M31.2571245,14.4282257 C33.0013282,12.9226079 34.1052632,10.695486 34.1052632,8.21052632 C34.1052632,3.67597784 30.4292853,0 25.8947368,0 C21.3601884,0 17.6842105,3.67597784 17.6842105,8.21052632 C17.6842105,10.695486 18.7881455,12.9226079 20.5323492,14.4282257 C13.8947368,19.2850488 13.8947368,32.8421053 13.8947368,32.8421053 L37.8947368,32.8421053 C37.8947368,32.8421053 37.8947368,19.2850488 31.2571245,14.4282257 Z" id="Oval-197"></path>
                    </g>
                </g>
                <mask id="mask-18" sketch:name="Mask Copy" fill="white">
                    <use xlink:href="#path-17"></use>
                </mask>
                <use id="Mask-Copy" stroke="#9B9B9B" stroke-width="2" sketch:type="MSShapeGroup" xlink:href="#path-17"></use>
            </g>
            <g id="Group" sketch:type="MSLayerGroup" transform="translate(6.000000, 5.000000)">
                <circle id="Oval-252" fill="#9B9B9B" sketch:type="MSShapeGroup" cx="1.5" cy="1.5" r="1.5"></circle>
                <circle id="Oval-252-Copy" fill="#9B9B9B" sketch:type="MSShapeGroup" cx="6.5" cy="1.5" r="1.5"></circle>
                <circle id="Oval-252-Copy-2" fill="#9B9B9B" sketch:type="MSShapeGroup" cx="11.5" cy="1.5" r="1.5"></circle>
                <rect id="Rectangle-668" stroke="#979797" fill="#FFFFFF" sketch:type="MSShapeGroup" x="17" y="5" width="69" height="9"></rect>
                <rect id="Rectangle-668-Copy" fill="#9B9B9B" sketch:type="MSShapeGroup" x="20" y="8" width="28" height="3"></rect>
                <path d="M3,12.8284271 L0.171572875,10 L3,7.17157288 L3,12.8284271 Z" id="Rectangle-669" fill="#9B9B9B" sketch:type="MSShapeGroup"></path>
                <path d="M6.82842712,12.6568542 L9.65685425,9.82842712 L6.82842712,7 L6.82842712,12.6568542 Z" id="Rectangle-669-Copy" fill="#9B9B9B" sketch:type="MSShapeGroup"></path>
            </g>
            <g id="Group-Copy-3" sketch:type="MSLayerGroup" transform="translate(133.000000, 5.000000)">
                <circle id="Oval-252" fill="#9B9B9B" sketch:type="MSShapeGroup" cx="1.5" cy="1.5" r="1.5"></circle>
                <circle id="Oval-252-Copy" fill="#9B9B9B" sketch:type="MSShapeGroup" cx="6.5" cy="1.5" r="1.5"></circle>
                <circle id="Oval-252-Copy-2" fill="#9B9B9B" sketch:type="MSShapeGroup" cx="11.5" cy="1.5" r="1.5"></circle>
                <rect id="Rectangle-668" stroke="#979797" fill="#FFFFFF" sketch:type="MSShapeGroup" x="17" y="5" width="61" height="9"></rect>
                <rect id="Rectangle-668-Copy" fill="#9B9B9B" sketch:type="MSShapeGroup" x="20" y="8" width="28" height="3"></rect>
                <path d="M3,12.8284271 L0.171572875,10 L3,7.17157288 L3,12.8284271 Z" id="Rectangle-669" fill="#9B9B9B" sketch:type="MSShapeGroup"></path>
                <path d="M6.82842712,12.6568542 L9.65685425,9.82842712 L6.82842712,7 L6.82842712,12.6568542 Z" id="Rectangle-669-Copy" fill="#9B9B9B" sketch:type="MSShapeGroup"></path>
            </g>
            <g id="Group-Copy-5" sketch:type="MSLayerGroup" transform="translate(251.000000, 5.000000)">
                <circle id="Oval-252" fill="#9B9B9B" sketch:type="MSShapeGroup" cx="1.5" cy="1.5" r="1.5"></circle>
                <circle id="Oval-252-Copy" fill="#9B9B9B" sketch:type="MSShapeGroup" cx="6.5" cy="1.5" r="1.5"></circle>
                <circle id="Oval-252-Copy-2" fill="#9B9B9B" sketch:type="MSShapeGroup" cx="11.5" cy="1.5" r="1.5"></circle>
                <rect id="Rectangle-668" stroke="#979797" fill="#FFFFFF" sketch:type="MSShapeGroup" x="17" y="5" width="50" height="9"></rect>
                <rect id="Rectangle-668-Copy" fill="#9B9B9B" sketch:type="MSShapeGroup" x="20" y="8" width="28" height="3"></rect>
                <path d="M3,12.8284271 L0.171572875,10 L3,7.17157288 L3,12.8284271 Z" id="Rectangle-669" fill="#9B9B9B" sketch:type="MSShapeGroup"></path>
                <path d="M6.82842712,12.6568542 L9.65685425,9.82842712 L6.82842712,7 L6.82842712,12.6568542 Z" id="Rectangle-669-Copy" fill="#9B9B9B" sketch:type="MSShapeGroup"></path>
            </g>
            <g id="Group-Copy-6" sketch:type="MSLayerGroup" transform="translate(358.000000, 5.000000)">
                <circle id="Oval-252" fill="#9B9B9B" sketch:type="MSShapeGroup" cx="1.5" cy="1.5" r="1.5"></circle>
                <circle id="Oval-252-Copy" fill="#9B9B9B" sketch:type="MSShapeGroup" cx="6.5" cy="1.5" r="1.5"></circle>
                <circle id="Oval-252-Copy-2" fill="#9B9B9B" sketch:type="MSShapeGroup" cx="11.5" cy="1.5" r="1.5"></circle>
                <rect id="Rectangle-668" stroke="#979797" fill="#FFFFFF" sketch:type="MSShapeGroup" x="16" y="5" width="36" height="9"></rect>
                <rect id="Rectangle-668-Copy" fill="#9B9B9B" sketch:type="MSShapeGroup" x="19" y="8" width="28" height="3"></rect>
                <path d="M3,12.8284271 L0.171572875,10 L3,7.17157288 L3,12.8284271 Z" id="Rectangle-669" fill="#9B9B9B" sketch:type="MSShapeGroup"></path>
                <path d="M6.82842712,12.6568542 L9.65685425,9.82842712 L6.82842712,7 L6.82842712,12.6568542 Z" id="Rectangle-669-Copy" fill="#9B9B9B" sketch:type="MSShapeGroup"></path>
            </g>
            <path d="M3.5,23.5 L97.5212708,23.5" id="Line" stroke="#979797" stroke-linecap="square" sketch:type="MSShapeGroup"></path>
            <g id="Group-Copy-10-+-Group-Copy-12-+-Line-Copy-4" sketch:type="MSLayerGroup" transform="translate(2.000000, 292.000000)">
                <g id="Group-Copy-10">
                    <mask id="mask-20" sketch:name="Mask" fill="white">
                        <use xlink:href="#path-19"></use>
                    </mask>
                    <use id="Mask" fill="#FFFFFF" sketch:type="MSShapeGroup" xlink:href="#path-19"></use>
                    <rect id="Rectangle-323" fill="#2672F2" sketch:type="MSShapeGroup" mask="url(#mask-20)" x="6.57894737" y="29.5789474" width="86.8421053" height="13.1578947"></rect>
                    <rect id="Rectangle-323-Copy-6" fill="#2672F2" sketch:type="MSShapeGroup" mask="url(#mask-20)" x="6.57894737" y="94.0526316" width="50" height="43.4210526"></rect>
                    <g id="Group" mask="url(#mask-20)" fill="#2672F2" sketch:type="MSShapeGroup">
                        <g transform="translate(6.578947, 46.684211)">
                            <rect id="Rectangle-323-Copy-2" x="0" y="0" width="32.8947368" height="5.26315789"></rect>
                            <rect id="Rectangle-323-Copy-3" x="0" y="9.21052632" width="32.8947368" height="5.26315789"></rect>
                            <rect id="Rectangle-323-Copy-4" x="0" y="18.4210526" width="32.8947368" height="5.26315789"></rect>
                            <rect id="Rectangle-323-Copy-5" x="0" y="27.6315789" width="32.8947368" height="5.26315789"></rect>
                        </g>
                    </g>
                    <path d="M7.23684211,86.8157895 L92.7631579,86.8157895" id="Line" stroke="#2672F2" stroke-linecap="square" sketch:type="MSShapeGroup" mask="url(#mask-20)"></path>
                    <g id="Group-Copy-2" mask="url(#mask-20)" fill="#2672F2" sketch:type="MSShapeGroup">
                        <g transform="translate(60.526316, 94.052632)">
                            <rect id="Rectangle-323-Copy-2" x="0" y="0" width="32.8947368" height="5.26315789"></rect>
                            <rect id="Rectangle-323-Copy-3" x="0" y="9.21052632" width="32.8947368" height="5.26315789"></rect>
                            <rect id="Rectangle-323-Copy-4" x="0" y="18.4210526" width="32.8947368" height="5.26315789"></rect>
                        </g>
                    </g>
                    <rect id="Rectangle-692" fill="#EBF3FF" sketch:type="MSShapeGroup" mask="url(#mask-20)" x="-2" y="-12" width="106" height="34"></rect>
                    <mask id="mask-22" sketch:name="Mask" fill="white">
                        <use xlink:href="#path-21"></use>
                    </mask>
                    <use id="Mask" fill="#2672F2" sketch:type="MSShapeGroup" xlink:href="#path-21"></use>
                    <g id="Oval-197-Copy-+-Oval-197-Copy-2-+-Oval-197" mask="url(#mask-22)" stroke="#FFFFFF" fill="#2672F2" sketch:type="MSShapeGroup">
                        <g transform="translate(44.736842, 51.947368)">
                            <path d="M13.3263941,16.2461823 C14.6651469,15.100079 15.5124654,13.4047538 15.5124654,11.5131579 C15.5124654,8.06137821 12.6909912,5.26315789 9.21052632,5.26315789 C5.73006148,5.26315789 2.90858726,8.06137821 2.90858726,11.5131579 C2.90858726,13.4047538 3.75590577,15.100079 5.09465858,16.2461823 C0,19.9432832 0,30.2631579 0,30.2631579 L18.4210526,30.2631579 C18.4210526,30.2631579 18.4210526,19.9432832 13.3263941,16.2461823 Z" id="Oval-197-Copy"></path>
                            <path d="M41.6857814,17.7216534 C42.8332838,16.6961926 43.5595568,15.1793227 43.5595568,13.4868421 C43.5595568,10.3984076 41.1411503,7.89473684 38.1578947,7.89473684 C35.1746392,7.89473684 32.7562327,10.3984076 32.7562327,13.4868421 C32.7562327,15.1793227 33.4825057,16.6961926 34.6300081,17.7216534 C30.2631579,21.0295858 30.2631579,30.2631579 30.2631579,30.2631579 L46.0526316,30.2631579 C46.0526316,30.2631579 46.0526316,21.0295858 41.6857814,17.7216534 Z" id="Oval-197-Copy-2"></path>
                            <path d="M32.5595047,15.0294018 C34.3763835,13.4610499 35.5263158,11.1411313 35.5263158,8.55263158 C35.5263158,3.82914359 31.6971722,0 26.9736842,0 C22.2501962,0 18.4210526,3.82914359 18.4210526,8.55263158 C18.4210526,11.1411313 19.5709849,13.4610499 21.3878637,15.0294018 C14.4736842,20.0885925 14.4736842,34.2105263 14.4736842,34.2105263 L39.4736842,34.2105263 C39.4736842,34.2105263 39.4736842,20.0885925 32.5595047,15.0294018 Z" id="Oval-197"></path>
                        </g>
                    </g>
                    <mask id="mask-24" sketch:name="Mask Copy 2" fill="white">
                        <use xlink:href="#path-23"></use>
                    </mask>
                    <use id="Mask-Copy-2" stroke="#2672F2" stroke-width="2" sketch:type="MSShapeGroup" xlink:href="#path-23"></use>
                </g>
                <g id="Group-Copy-12" transform="translate(4.000000, 4.000000)" sketch:type="MSShapeGroup">
                    <circle id="Oval-252" fill="#2672F2" cx="1.5" cy="1.5" r="1.5"></circle>
                    <circle id="Oval-252-Copy" fill="#2672F2" cx="6.5" cy="1.5" r="1.5"></circle>
                    <circle id="Oval-252-Copy-2" fill="#2672F2" cx="11.5" cy="1.5" r="1.5"></circle>
                    <rect id="Rectangle-668" stroke="#2672F2" fill="#FFFFFF" x="17" y="5" width="72" height="9"></rect>
                    <rect id="Rectangle-668-Copy" fill="#2672F2" x="20" y="8" width="19" height="3"></rect>
                    <path d="M3,12.8284271 L0.171572875,10 L3,7.17157288 L3,12.8284271 Z" id="Rectangle-669" fill="#2672F2"></path>
                    <path d="M6.82842712,12.6568542 L9.65685425,9.82842712 L6.82842712,7 L6.82842712,12.6568542 Z" id="Rectangle-669-Copy" fill="#2672F2"></path>
                </g>
                <path d="M0.41928634,22.5 L99.5754471,22.5" id="Line-Copy-4" stroke="#2672F2" stroke-linecap="square" sketch:type="MSShapeGroup"></path>
            </g>
            <g id="Group-Copy-10-+-Group-Copy-12-+-Line-Copy-4-Copy" sketch:type="MSLayerGroup" transform="translate(315.000000, 292.000000)">
                <g id="Group-Copy-10">
                    <mask id="mask-26" sketch:name="Mask" fill="white">
                        <use xlink:href="#path-25"></use>
                    </mask>
                    <use id="Mask" fill="#FFFFFF" sketch:type="MSShapeGroup" xlink:href="#path-25"></use>
                    <rect id="Rectangle-323" fill="#2672F2" sketch:type="MSShapeGroup" mask="url(#mask-26)" x="6.57894737" y="29.5789474" width="86.8421053" height="13.1578947"></rect>
                    <rect id="Rectangle-323-Copy-6" fill="#2672F2" sketch:type="MSShapeGroup" mask="url(#mask-26)" x="6.57894737" y="94.0526316" width="50" height="43.4210526"></rect>
                    <g id="Group" mask="url(#mask-26)" fill="#2672F2" sketch:type="MSShapeGroup">
                        <g transform="translate(6.578947, 46.684211)">
                            <rect id="Rectangle-323-Copy-2" x="0" y="0" width="32.8947368" height="5.26315789"></rect>
                            <rect id="Rectangle-323-Copy-3" x="0" y="9.21052632" width="32.8947368" height="5.26315789"></rect>
                            <rect id="Rectangle-323-Copy-4" x="0" y="18.4210526" width="32.8947368" height="5.26315789"></rect>
                            <rect id="Rectangle-323-Copy-5" x="0" y="27.6315789" width="32.8947368" height="5.26315789"></rect>
                        </g>
                    </g>
                    <path d="M7.23684211,86.8157895 L92.7631579,86.8157895" id="Line" stroke="#2672F2" stroke-linecap="square" sketch:type="MSShapeGroup" mask="url(#mask-26)"></path>
                    <g id="Group-Copy-2" mask="url(#mask-26)" fill="#2672F2" sketch:type="MSShapeGroup">
                        <g transform="translate(60.526316, 94.052632)">
                            <rect id="Rectangle-323-Copy-2" x="0" y="0" width="32.8947368" height="5.26315789"></rect>
                            <rect id="Rectangle-323-Copy-3" x="0" y="9.21052632" width="32.8947368" height="5.26315789"></rect>
                            <rect id="Rectangle-323-Copy-4" x="0" y="18.4210526" width="32.8947368" height="5.26315789"></rect>
                        </g>
                    </g>
                    <rect id="Rectangle-692" fill="#EBF3FF" sketch:type="MSShapeGroup" mask="url(#mask-26)" x="-6" y="-12" width="106" height="34"></rect>
                    <mask id="mask-28" sketch:name="Mask" fill="white">
                        <use xlink:href="#path-27"></use>
                    </mask>
                    <use id="Mask" fill="#2672F2" sketch:type="MSShapeGroup" xlink:href="#path-27"></use>
                    <g id="Oval-197-Copy-+-Oval-197-Copy-2-+-Oval-197" mask="url(#mask-28)" stroke="#FFFFFF" fill="#2672F2" sketch:type="MSShapeGroup">
                        <g transform="translate(44.736842, 51.947368)">
                            <path d="M13.3263941,16.2461823 C14.6651469,15.100079 15.5124654,13.4047538 15.5124654,11.5131579 C15.5124654,8.06137821 12.6909912,5.26315789 9.21052632,5.26315789 C5.73006148,5.26315789 2.90858726,8.06137821 2.90858726,11.5131579 C2.90858726,13.4047538 3.75590577,15.100079 5.09465858,16.2461823 C0,19.9432832 0,30.2631579 0,30.2631579 L18.4210526,30.2631579 C18.4210526,30.2631579 18.4210526,19.9432832 13.3263941,16.2461823 Z" id="Oval-197-Copy"></path>
                            <path d="M41.6857814,17.7216534 C42.8332838,16.6961926 43.5595568,15.1793227 43.5595568,13.4868421 C43.5595568,10.3984076 41.1411503,7.89473684 38.1578947,7.89473684 C35.1746392,7.89473684 32.7562327,10.3984076 32.7562327,13.4868421 C32.7562327,15.1793227 33.4825057,16.6961926 34.6300081,17.7216534 C30.2631579,21.0295858 30.2631579,30.2631579 30.2631579,30.2631579 L46.0526316,30.2631579 C46.0526316,30.2631579 46.0526316,21.0295858 41.6857814,17.7216534 Z" id="Oval-197-Copy-2"></path>
                            <path d="M32.5595047,15.0294018 C34.3763835,13.4610499 35.5263158,11.1411313 35.5263158,8.55263158 C35.5263158,3.82914359 31.6971722,0 26.9736842,0 C22.2501962,0 18.4210526,3.82914359 18.4210526,8.55263158 C18.4210526,11.1411313 19.5709849,13.4610499 21.3878637,15.0294018 C14.4736842,20.0885925 14.4736842,34.2105263 14.4736842,34.2105263 L39.4736842,34.2105263 C39.4736842,34.2105263 39.4736842,20.0885925 32.5595047,15.0294018 Z" id="Oval-197"></path>
                        </g>
                    </g>
                    <mask id="mask-30" sketch:name="Mask Copy 2" fill="white">
                        <use xlink:href="#path-29"></use>
                    </mask>
                    <use id="Mask-Copy-2" stroke="#2672F2" stroke-width="2" sketch:type="MSShapeGroup" xlink:href="#path-29"></use>
                </g>
                <g id="Group-Copy-12" transform="translate(4.000000, 4.000000)" sketch:type="MSShapeGroup">
                    <circle id="Oval-252" fill="#2672F2" cx="1.5" cy="1.5" r="1.5"></circle>
                    <circle id="Oval-252-Copy" fill="#2672F2" cx="6.5" cy="1.5" r="1.5"></circle>
                    <circle id="Oval-252-Copy-2" fill="#2672F2" cx="11.5" cy="1.5" r="1.5"></circle>
                    <rect id="Rectangle-668" stroke="#2672F2" fill="#FFFFFF" x="17" y="5" width="72" height="9"></rect>
                    <rect id="Rectangle-668-Copy" fill="#2672F2" x="20" y="8" width="19" height="3"></rect>
                    <path d="M3,12.8284271 L0.171572875,10 L3,7.17157288 L3,12.8284271 Z" id="Rectangle-669" fill="#2672F2"></path>
                    <path d="M6.82842712,12.6568542 L9.65685425,9.82842712 L6.82842712,7 L6.82842712,12.6568542 Z" id="Rectangle-669-Copy" fill="#2672F2"></path>
                </g>
                <path d="M0.482759893,22.5 L99.545433,22.5" id="Line-Copy-4" stroke="#2672F2" stroke-linecap="square" sketch:type="MSShapeGroup"></path>
            </g>
            <path d="M129.5,23.5 L214.552925,23.5" id="Line-Copy" stroke="#979797" stroke-linecap="square" sketch:type="MSShapeGroup"></path>
            <path d="M247.5,23.5 L321.50676,23.5" id="Line-Copy-2" stroke="#979797" stroke-linecap="square" sketch:type="MSShapeGroup"></path>
            <path d="M355.5,23.5 L413.577534,23.5" id="Line-Copy-3" stroke="#979797" stroke-linecap="square" sketch:type="MSShapeGroup"></path>
        </g>
    </g>
</svg>