<?xml version="1.0" encoding="UTF-8" standalone="no"?>
<svg width="416px" height="416px" viewBox="0 0 416 416" version="1.1" xmlns="http://www.w3.org/2000/svg" xmlns:xlink="http://www.w3.org/1999/xlink" xmlns:sketch="http://www.bohemiancoding.com/sketch/ns">
    <!-- Generator: Sketch 3.4.2 (15855) - http://www.bohemiancoding.com/sketch -->
    <title>websites-change-square</title>
    <desc>Created with Sketch.</desc>
    <defs>
        <rect id="path-1" x="0" y="0" width="100" height="100" rx="2"></rect>
        <rect id="path-3" x="43.4210526" y="23.6842105" width="50" height="32.8947368"></rect>
        <rect id="path-5" x="0" y="0" width="100" height="100" rx="2"></rect>
        <rect id="path-7" x="0" y="0" width="100" height="100" rx="2"></rect>
        <rect id="path-9" x="43.4210526" y="23.6842105" width="50" height="32.8947368"></rect>
        <rect id="path-11" x="0" y="0" width="100" height="100" rx="2"></rect>
        <rect id="path-13" x="0" y="0" width="76" height="76" rx="2"></rect>
        <rect id="path-15" x="0" y="0" width="76" height="76" rx="2"></rect>
        <rect id="path-17" x="0" y="0" width="61" height="61" rx="2"></rect>
        <rect id="path-19" x="0" y="0" width="87" height="87" rx="2"></rect>
        <rect id="path-21" x="0" y="0" width="87" height="87" rx="2"></rect>
        <rect id="path-23" x="0" y="0" width="96" height="96" rx="2"></rect>
        <rect id="path-25" x="41.6842105" y="22.7368421" width="48" height="31.5789474"></rect>
    </defs>
    <g id="Page-1" stroke="none" stroke-width="1" fill="none" fill-rule="evenodd" sketch:type="MSPage">
        <g id="websites-change-square" sketch:type="MSArtboardGroup">
            <g id="Group-Copy-10" sketch:type="MSLayerGroup" transform="translate(2.000000, 314.000000)">
                <mask id="mask-2" sketch:name="Mask" fill="white">
                    <use xlink:href="#path-1"></use>
                </mask>
                <use id="Mask" stroke="#2672F2" stroke-width="2" fill="#FFFFFF" sketch:type="MSShapeGroup" xlink:href="#path-1"></use>
                <rect id="Rectangle-323" fill="#2672F2" sketch:type="MSShapeGroup" mask="url(#mask-2)" x="6.57894737" y="6.57894737" width="86.8421053" height="13.1578947"></rect>
                <rect id="Rectangle-323-Copy-6" fill="#2672F2" sketch:type="MSShapeGroup" mask="url(#mask-2)" x="6.57894737" y="71.0526316" width="50" height="43.4210526"></rect>
                <g id="Group" mask="url(#mask-2)" fill="#2672F2" sketch:type="MSShapeGroup">
                    <g transform="translate(6.578947, 23.684211)">
                        <rect id="Rectangle-323-Copy-2" x="0" y="0" width="32.8947368" height="5.26315789"></rect>
                        <rect id="Rectangle-323-Copy-3" x="0" y="9.21052632" width="32.8947368" height="5.26315789"></rect>
                        <rect id="Rectangle-323-Copy-4" x="0" y="18.4210526" width="32.8947368" height="5.26315789"></rect>
                        <rect id="Rectangle-323-Copy-5" x="0" y="27.6315789" width="32.8947368" height="5.26315789"></rect>
                    </g>
                </g>
                <path d="M7.23684211,63.8157895 L92.7631579,63.8157895" id="Line" stroke="#2672F2" stroke-linecap="square" sketch:type="MSShapeGroup" mask="url(#mask-2)"></path>
                <g id="Group-Copy-2" mask="url(#mask-2)" fill="#2672F2" sketch:type="MSShapeGroup">
                    <g transform="translate(60.526316, 71.052632)">
                        <rect id="Rectangle-323-Copy-2" x="0" y="0" width="32.8947368" height="5.26315789"></rect>
                        <rect id="Rectangle-323-Copy-3" x="0" y="9.21052632" width="32.8947368" height="5.26315789"></rect>
                        <rect id="Rectangle-323-Copy-4" x="0" y="18.4210526" width="32.8947368" height="5.26315789"></rect>
                    </g>
                </g>
                <mask id="mask-4" sketch:name="Mask" fill="white">
                    <use xlink:href="#path-3"></use>
                </mask>
                <use id="Mask" fill="#2672F2" sketch:type="MSShapeGroup" xlink:href="#path-3"></use>
                <g id="Oval-197-Copy-+-Oval-197-Copy-2-+-Oval-197" mask="url(#mask-4)" stroke="#FFFFFF" fill="#2672F2" sketch:type="MSShapeGroup">
                    <g transform="translate(44.736842, 28.947368)">
                        <path d="M13.3263941,16.2461823 C14.6651469,15.100079 15.5124654,13.4047538 15.5124654,11.5131579 C15.5124654,8.06137821 12.6909912,5.26315789 9.21052632,5.26315789 C5.73006148,5.26315789 2.90858726,8.06137821 2.90858726,11.5131579 C2.90858726,13.4047538 3.75590577,15.100079 5.09465858,16.2461823 C0,19.9432832 0,30.2631579 0,30.2631579 L18.4210526,30.2631579 C18.4210526,30.2631579 18.4210526,19.9432832 13.3263941,16.2461823 Z" id="Oval-197-Copy"></path>
                        <path d="M41.6857814,17.7216534 C42.8332838,16.6961926 43.5595568,15.1793227 43.5595568,13.4868421 C43.5595568,10.3984076 41.1411503,7.89473684 38.1578947,7.89473684 C35.1746392,7.89473684 32.7562327,10.3984076 32.7562327,13.4868421 C32.7562327,15.1793227 33.4825057,16.6961926 34.6300081,17.7216534 C30.2631579,21.0295858 30.2631579,30.2631579 30.2631579,30.2631579 L46.0526316,30.2631579 C46.0526316,30.2631579 46.0526316,21.0295858 41.6857814,17.7216534 Z" id="Oval-197-Copy-2"></path>
                        <path d="M32.5595047,15.0294018 C34.3763835,13.4610499 35.5263158,11.1411313 35.5263158,8.55263158 C35.5263158,3.82914359 31.6971722,0 26.9736842,0 C22.2501962,0 18.4210526,3.82914359 18.4210526,8.55263158 C18.4210526,11.1411313 19.5709849,13.4610499 21.3878637,15.0294018 C14.4736842,20.0885925 14.4736842,34.2105263 14.4736842,34.2105263 L39.4736842,34.2105263 C39.4736842,34.2105263 39.4736842,20.0885925 32.5595047,15.0294018 Z" id="Oval-197"></path>
                    </g>
                </g>
                <mask id="mask-6" sketch:name="Mask Copy 2" fill="white">
                    <use xlink:href="#path-5"></use>
                </mask>
                <use id="Mask-Copy-2" stroke="#2672F2" stroke-width="2" sketch:type="MSShapeGroup" xlink:href="#path-5"></use>
            </g>
            <g id="Group-Copy-11" sketch:type="MSLayerGroup" transform="translate(315.000000, 314.000000)">
                <mask id="mask-8" sketch:name="Mask" fill="white">
                    <use xlink:href="#path-7"></use>
                </mask>
                <use id="Mask" stroke="#2672F2" stroke-width="2" fill="#FFFFFF" sketch:type="MSShapeGroup" xlink:href="#path-7"></use>
                <rect id="Rectangle-323" fill="#2672F2" sketch:type="MSShapeGroup" mask="url(#mask-8)" x="6.57894737" y="6.57894737" width="86.8421053" height="13.1578947"></rect>
                <rect id="Rectangle-323-Copy-6" fill="#2672F2" sketch:type="MSShapeGroup" mask="url(#mask-8)" x="6.57894737" y="71.0526316" width="50" height="43.4210526"></rect>
                <g id="Group" mask="url(#mask-8)" fill="#2672F2" sketch:type="MSShapeGroup">
                    <g transform="translate(6.578947, 23.684211)">
                        <rect id="Rectangle-323-Copy-2" x="0" y="0" width="32.8947368" height="5.26315789"></rect>
                        <rect id="Rectangle-323-Copy-3" x="0" y="9.21052632" width="32.8947368" height="5.26315789"></rect>
                        <rect id="Rectangle-323-Copy-4" x="0" y="18.4210526" width="32.8947368" height="5.26315789"></rect>
                        <rect id="Rectangle-323-Copy-5" x="0" y="27.6315789" width="32.8947368" height="5.26315789"></rect>
                    </g>
                </g>
                <path d="M7.23684211,63.8157895 L92.7631579,63.8157895" id="Line" stroke="#2672F2" stroke-linecap="square" sketch:type="MSShapeGroup" mask="url(#mask-8)"></path>
                <g id="Group-Copy-2" mask="url(#mask-8)" fill="#2672F2" sketch:type="MSShapeGroup">
                    <g transform="translate(60.526316, 71.052632)">
                        <rect id="Rectangle-323-Copy-2" x="0" y="0" width="32.8947368" height="5.26315789"></rect>
                        <rect id="Rectangle-323-Copy-3" x="0" y="9.21052632" width="32.8947368" height="5.26315789"></rect>
                        <rect id="Rectangle-323-Copy-4" x="0" y="18.4210526" width="32.8947368" height="5.26315789"></rect>
                    </g>
                </g>
                <mask id="mask-10" sketch:name="Mask" fill="white">
                    <use xlink:href="#path-9"></use>
                </mask>
                <use id="Mask" fill="#2672F2" sketch:type="MSShapeGroup" xlink:href="#path-9"></use>
                <g id="Oval-197-Copy-+-Oval-197-Copy-2-+-Oval-197" mask="url(#mask-10)" stroke="#FFFFFF" fill="#2672F2" sketch:type="MSShapeGroup">
                    <g transform="translate(44.736842, 28.947368)">
                        <path d="M13.3263941,16.2461823 C14.6651469,15.100079 15.5124654,13.4047538 15.5124654,11.5131579 C15.5124654,8.06137821 12.6909912,5.26315789 9.21052632,5.26315789 C5.73006148,5.26315789 2.90858726,8.06137821 2.90858726,11.5131579 C2.90858726,13.4047538 3.75590577,15.100079 5.09465858,16.2461823 C0,19.9432832 0,30.2631579 0,30.2631579 L18.4210526,30.2631579 C18.4210526,30.2631579 18.4210526,19.9432832 13.3263941,16.2461823 Z" id="Oval-197-Copy"></path>
                        <path d="M41.6857814,17.7216534 C42.8332838,16.6961926 43.5595568,15.1793227 43.5595568,13.4868421 C43.5595568,10.3984076 41.1411503,7.89473684 38.1578947,7.89473684 C35.1746392,7.89473684 32.7562327,10.3984076 32.7562327,13.4868421 C32.7562327,15.1793227 33.4825057,16.6961926 34.6300081,17.7216534 C30.2631579,21.0295858 30.2631579,30.2631579 30.2631579,30.2631579 L46.0526316,30.2631579 C46.0526316,30.2631579 46.0526316,21.0295858 41.6857814,17.7216534 Z" id="Oval-197-Copy-2"></path>
                        <path d="M32.5595047,15.0294018 C34.3763835,13.4610499 35.5263158,11.1411313 35.5263158,8.55263158 C35.5263158,3.82914359 31.6971722,0 26.9736842,0 C22.2501962,0 18.4210526,3.82914359 18.4210526,8.55263158 C18.4210526,11.1411313 19.5709849,13.4610499 21.3878637,15.0294018 C14.4736842,20.0885925 14.4736842,34.2105263 14.4736842,34.2105263 L39.4736842,34.2105263 C39.4736842,34.2105263 39.4736842,20.0885925 32.5595047,15.0294018 Z" id="Oval-197"></path>
                    </g>
                </g>
                <mask id="mask-12" sketch:name="Mask Copy 2" fill="white">
                    <use xlink:href="#path-11"></use>
                </mask>
                <use id="Mask-Copy-2" stroke="#2672F2" stroke-width="2" sketch:type="MSShapeGroup" xlink:href="#path-11"></use>
            </g>
            <g id="Group-Copy-7" sketch:type="MSLayerGroup" transform="translate(247.000000, 2.000000)">
                <mask id="mask-14" sketch:name="Mask" fill="white">
                    <use xlink:href="#path-13"></use>
                </mask>
                <use id="Mask" fill="#FFFFFF" sketch:type="MSShapeGroup" xlink:href="#path-13"></use>
                <g id="Group-Copy-2" mask="url(#mask-14)">
                    <g transform="translate(5.000000, 16.000000)">
                        <g id="Group" stroke="none" fill-rule="evenodd" sketch:type="MSLayerGroup" transform="translate(0.000000, 7.000000)">
                            <rect id="Rectangle-323-Copy-2" fill="#9B9B9B" sketch:type="MSShapeGroup" x="0" y="7" width="25" height="4"></rect>
                            <rect id="Rectangle-323-Copy-7" fill="#9B9B9B" sketch:type="MSShapeGroup" x="0" y="0" width="36" height="4"></rect>
                            <rect id="Rectangle-323-Copy-3" fill="#9B9B9B" sketch:type="MSShapeGroup" x="0" y="14" width="25" height="4"></rect>
                            <rect id="Rectangle-323-Copy-4" fill="#9B9B9B" sketch:type="MSShapeGroup" x="0" y="21" width="25" height="4"></rect>
                        </g>
                        <path d="M0.5,39.5 L65.5,39.5" id="Line" stroke="#9B9B9B" stroke-linecap="square" sketch:type="MSShapeGroup"></path>
                        <path d="M0.5,1.5 L65.5,1.5" id="Line-Copy-33" stroke="#9B9B9B" stroke-linecap="square" sketch:type="MSShapeGroup"></path>
                    </g>
                </g>
                <g id="Group-Copy-9" mask="url(#mask-14)" fill="#9B9B9B" sketch:type="MSShapeGroup">
                    <g transform="translate(5.000000, 60.000000)">
                        <rect id="Rectangle-323-Copy-2" x="0" y="0" width="15" height="4"></rect>
                        <rect id="Rectangle-323-Copy-3" x="0" y="7" width="15" height="4"></rect>
                    </g>
                </g>
                <rect id="Rectangle-323" fill="#9B9B9B" sketch:type="MSShapeGroup" mask="url(#mask-14)" x="5" y="5" width="56" height="8"></rect>
                <rect id="Rectangle-323-Copy-9" fill="#9B9B9B" sketch:type="MSShapeGroup" mask="url(#mask-14)" x="64" y="5" width="8" height="8"></rect>
                <rect id="Rectangle-323-Copy-8" fill="#9B9B9B" sketch:type="MSShapeGroup" mask="url(#mask-14)" x="26" y="60" width="45" height="22"></rect>
                <g id="Oval-197-Copy-+-Oval-197-Copy-2-+-Oval-197" mask="url(#mask-14)" stroke="#FFFFFF" fill="#9B9B9B" sketch:type="MSShapeGroup">
                    <g transform="translate(33.000000, 66.000000)">
                        <path d="M8.97056697,10.9224333 C9.87173886,10.1518993 10.4421053,9.01211912 10.4421053,7.74038462 C10.4421053,5.41972658 8.54285004,3.53846154 6.2,3.53846154 C3.85714996,3.53846154 1.95789474,5.41972658 1.95789474,7.74038462 C1.95789474,9.01211912 2.52826114,10.1518993 3.42943303,10.9224333 C0,13.4080227 0,20.3461538 0,20.3461538 L12.4,20.3461538 C12.4,20.3461538 12.4,13.4080227 8.97056697,10.9224333 Z" id="Oval-197-Copy"></path>
                        <path d="M28.060486,11.9144039 C28.832919,11.2249787 29.3218045,10.2051754 29.3218045,9.06730769 C29.3218045,6.99092945 27.6938715,5.30769231 25.6857143,5.30769231 C23.6775571,5.30769231 22.0496241,6.99092945 22.0496241,9.06730769 C22.0496241,10.2051754 22.5385096,11.2249787 23.3109426,11.9144039 C20.3714286,14.1383523 20.3714286,20.3461538 20.3714286,20.3461538 L31,20.3461538 C31,20.3461538 31,14.1383523 28.060486,11.9144039 Z" id="Oval-197-Copy-2"></path>
                        <path d="M21.917198,10.1043824 C23.140217,9.04996741 23.9142857,7.49026827 23.9142857,5.75 C23.9142857,2.57436269 21.3367251,0 18.1571429,0 C14.9775607,0 12.4,2.57436269 12.4,5.75 C12.4,7.49026827 13.1740687,9.04996741 14.3970877,10.1043824 C9.74285714,13.5057153 9.74285714,23 9.74285714,23 L26.5714286,23 C26.5714286,23 26.5714286,13.5057153 21.917198,10.1043824 Z" id="Oval-197"></path>
                    </g>
                </g>
                <mask id="mask-16" sketch:name="Mask" fill="white">
                    <use xlink:href="#path-15"></use>
                </mask>
                <use id="Mask" stroke="#9B9B9B" stroke-width="2" sketch:type="MSShapeGroup" xlink:href="#path-15"></use>
                <polygon id="Star-5" fill="#9B9B9B" sketch:type="MSShapeGroup" mask="url(#mask-16)" points="58.5 46.1104452 56.061371 48.759816 54.8222418 45.3788936 51.5553721 46.8933702 51.704389 43.295611 48.1066298 43.4446279 49.6211064 40.1777582 46.240184 38.938629 48.8895548 36.5 46.240184 34.061371 49.6211064 32.8222418 48.1066298 29.5553721 51.704389 29.704389 51.5553721 26.1066298 54.8222418 27.6211064 56.061371 24.240184 58.5 26.8895548 60.938629 24.240184 62.1777582 27.6211064 65.4446279 26.1066298 65.295611 29.704389 68.8933702 29.5553721 67.3788936 32.8222418 70.759816 34.061371 68.1104452 36.5 70.759816 38.938629 67.3788936 40.1777582 68.8933702 43.4446279 65.295611 43.295611 65.4446279 46.8933702 62.1777582 45.3788936 60.938629 48.759816 "></polygon>
            </g>
            <g id="Group-Copy-8" sketch:type="MSLayerGroup" transform="translate(354.000000, 2.000000)">
                <mask id="mask-18" sketch:name="Mask" fill="white">
                    <use xlink:href="#path-17"></use>
                </mask>
                <use id="Mask" stroke="#9B9B9B" stroke-width="2" fill="#FFFFFF" sketch:type="MSShapeGroup" xlink:href="#path-17"></use>
                <path d="M20.8057155,30.7744912 L23.2966951,30.7744912 L23.2966951,31.8828125 L20.8057155,31.8828125 L20.8057155,35.9210526 L19.488898,35.9210526 L19.488898,31.8828125 L11.9720652,31.8828125 L11.9720652,31.136616 L19.3681898,19.9436678 L20.8057155,19.9436678 L20.8057155,30.7744912 Z M13.5851665,30.7744912 L19.488898,30.7744912 L19.488898,21.6445569 L18.9073037,22.654117 L13.5851665,30.7744912 Z M34.8298211,29.2601511 C34.8298211,31.5133833 34.4164909,33.2234 33.5898181,34.3902524 C32.7631452,35.5571048 31.5451012,36.1405222 29.9356497,36.1405222 C28.3554608,36.1405222 27.1447325,35.5680781 26.3034282,34.4231728 C25.462124,33.2782675 25.0305048,31.6121443 25.0085578,29.4247533 L25.0085578,26.5606754 C25.0085578,24.3147588 25.4255458,22.6138867 26.2595343,21.4580078 C27.0935229,20.302129 28.3115668,19.7241982 29.9137027,19.7241982 C31.4938915,19.7241982 32.7009621,20.2820111 33.5349507,21.3976537 C34.3689392,22.5132963 34.8005584,24.1574727 34.8298211,26.3302323 L34.8298211,29.2601511 Z M33.5130037,26.3960732 C33.5130037,24.5671509 33.2148938,23.1845065 32.6186652,22.2480983 C32.0224365,21.3116901 31.1207914,20.843493 29.9137027,20.843493 C28.7285611,20.843493 27.8360604,21.3007167 27.2361739,22.2151778 C26.6362874,23.129639 26.3290331,24.4793633 26.3144017,26.2643914 L26.3144017,29.4028063 C26.3144017,31.2244129 26.623485,32.6180307 27.2416607,33.5837017 C27.8598364,34.5493726 28.7578237,35.0322009 29.9356497,35.0322009 C31.1061599,35.0322009 31.9931739,34.560346 32.5967182,33.6166221 C33.2002626,32.6728982 33.505688,31.2902538 33.5130037,29.4686472 L33.5130037,26.3960732 Z M45.7155119,30.7744912 L48.2064916,30.7744912 L48.2064916,31.8828125 L45.7155119,31.8828125 L45.7155119,35.9210526 L44.3986945,35.9210526 L44.3986945,31.8828125 L36.8818616,31.8828125 L36.8818616,31.136616 L44.2779862,19.9436678 L45.7155119,19.9436678 L45.7155119,30.7744912 Z M38.494963,30.7744912 L44.3986945,30.7744912 L44.3986945,21.6445569 L43.8171001,22.654117 L38.494963,30.7744912 Z" id="404" fill="#9B9B9B" sketch:type="MSShapeGroup" mask="url(#mask-18)"></path>
                <rect id="Rectangle-323-Copy-2" fill="#9B9B9B" sketch:type="MSShapeGroup" mask="url(#mask-18)" x="20.8684211" y="45.5526316" width="20.0657895" height="3.21052632"></rect>
            </g>
            <g id="Shape-Copy-11" sketch:type="MSLayerGroup" transform="translate(105.000000, 32.000000)" fill="#9B9B9B">
                <path d="M10.6234388,16.8164063 L19.8425293,8.40820313 L10.6234384,7.10542736e-15 L10.6234384,4.16577844 L13.5195313,6.98133919 L1.75692794e-14,6.98133926 L1.77635684e-14,10.0439453 L13.5195316,10.0439455 L10.6234384,12.6030367 L10.6234388,16.8164063 Z" id="Path-241" sketch:type="MSShapeGroup"></path>
            </g>
            <g id="Shape-Copy-12" sketch:type="MSLayerGroup" transform="translate(222.000000, 32.000000)" fill="#9B9B9B">
                <path d="M10.6234388,16.8164063 L19.8425293,8.40820313 L10.6234384,7.10542736e-15 L10.6234384,4.16577844 L13.5195313,6.98133919 L1.75692794e-14,6.98133926 L1.77635684e-14,10.0439453 L13.5195316,10.0439455 L10.6234384,12.6030367 L10.6234388,16.8164063 Z" id="Path-241" sketch:type="MSShapeGroup"></path>
            </g>
            <g id="Shape-Copy-13" sketch:type="MSLayerGroup" transform="translate(329.000000, 32.000000)" fill="#9B9B9B">
                <path d="M10.6234388,16.8164063 L19.8425293,8.40820313 L10.6234384,7.10542736e-15 L10.6234384,4.16577844 L13.5195313,6.98133919 L1.75692794e-14,6.98133926 L1.77635684e-14,10.0439453 L13.5195316,10.0439455 L10.6234384,12.6030367 L10.6234388,16.8164063 Z" id="Path-241" sketch:type="MSShapeGroup"></path>
            </g>
            <g id="Group-Copy-4" sketch:type="MSLayerGroup" transform="translate(129.000000, 2.000000)">
                <mask id="mask-20" sketch:name="Mask" fill="white">
                    <use xlink:href="#path-19"></use>
                </mask>
                <use id="Mask" fill="#FFFFFF" sketch:type="MSShapeGroup" xlink:href="#path-19"></use>
                <rect id="Rectangle-323-Copy" fill="#9B9B9B" sketch:type="MSShapeGroup" mask="url(#mask-20)" x="5.72368421" y="59.5263158" width="75.5526316" height="50.3684211"></rect>
                <rect id="Rectangle-323-Copy-2" fill="#9B9B9B" sketch:type="MSShapeGroup" mask="url(#mask-20)" x="5.72368421" y="27.4736842" width="36.6315789" height="4.57894737"></rect>
                <rect id="Rectangle-323-Copy-10" fill="#9B9B9B" sketch:type="MSShapeGroup" mask="url(#mask-20)" x="25.1842105" y="12.5921053" width="36.6315789" height="4.57894737"></rect>
                <rect id="Rectangle-323-Copy-3" fill="#9B9B9B" sketch:type="MSShapeGroup" mask="url(#mask-20)" x="5.72368421" y="35.4868421" width="36.6315789" height="4.57894737"></rect>
                <rect id="Rectangle-323-Copy-4" fill="#9B9B9B" sketch:type="MSShapeGroup" mask="url(#mask-20)" x="5.72368421" y="43.5" width="36.6315789" height="4.57894737"></rect>
                <rect id="Rectangle-323-Copy-5" fill="#9B9B9B" sketch:type="MSShapeGroup" mask="url(#mask-20)" x="5.72368421" y="51.5131579" width="36.6315789" height="4.57894737"></rect>
                <rect id="Rectangle-323-Copy-2" fill="#9B9B9B" sketch:type="MSShapeGroup" mask="url(#mask-20)" x="45.7894737" y="27.4736842" width="35.4868421" height="4.57894737"></rect>
                <rect id="Rectangle-323-Copy-3" fill="#9B9B9B" sketch:type="MSShapeGroup" mask="url(#mask-20)" x="45.7894737" y="35.4868421" width="35.4868421" height="4.57894737"></rect>
                <rect id="Rectangle-323-Copy-4" fill="#9B9B9B" sketch:type="MSShapeGroup" mask="url(#mask-20)" x="45.7894737" y="43.5" width="35.4868421" height="4.57894737"></rect>
                <rect id="Rectangle-323-Copy-5" fill="#9B9B9B" sketch:type="MSShapeGroup" mask="url(#mask-20)" x="45.7894737" y="51.5131579" width="35.4868421" height="4.57894737"></rect>
                <g id="Oval-197-Copy-+-Oval-197-Copy-2-+-Oval-197" mask="url(#mask-20)" stroke="#FFFFFF" fill="#9B9B9B" sketch:type="MSShapeGroup">
                    <g transform="translate(26.328947, 65.250000)">
                        <path d="M10.2689385,12.5033118 C11.3005432,11.6212531 11.9534626,10.3165048 11.9534626,8.86070344 C11.9534626,6.20416069 9.77931518,4.05060729 7.09736842,4.05060729 C4.41542166,4.05060729 2.24127424,6.20416069 2.24127424,8.86070344 C2.24127424,10.3165048 2.89419368,11.6212531 3.92579834,12.5033118 C0,15.3486576 0,23.2909919 0,23.2909919 L14.1947368,23.2909919 C14.1947368,23.2909919 14.1947368,15.3486576 10.2689385,12.5033118 Z" id="Oval-197-Copy"></path>
                        <path d="M32.1218721,13.6388571 C33.0061047,12.8496467 33.5657499,11.6822403 33.5657499,10.3796812 C33.5657499,8.0027745 31.702195,6.07591093 29.4033835,6.07591093 C27.1045719,6.07591093 25.241017,8.0027745 25.241017,10.3796812 C25.241017,11.6822403 25.8006623,12.8496467 26.6848948,13.6388571 C23.3199248,16.1846928 23.3199248,23.2909919 23.3199248,23.2909919 L35.4868421,23.2909919 C35.4868421,23.2909919 35.4868421,16.1846928 32.1218721,13.6388571 Z" id="Oval-197-Copy-2"></path>
                        <path d="M25.0894241,11.5668588 C26.489459,10.3598311 27.3755639,8.57438604 27.3755639,6.58223684 C27.3755639,2.94696781 24.4249353,0 20.7851504,0 C17.1453655,0 14.1947368,2.94696781 14.1947368,6.58223684 C14.1947368,8.57438604 15.0808418,10.3598311 16.4808767,11.5668588 C11.1530075,15.4604899 11.1530075,26.3289474 11.1530075,26.3289474 L30.4172932,26.3289474 C30.4172932,26.3289474 30.4172932,15.4604899 25.0894241,11.5668588 Z" id="Oval-197"></path>
                    </g>
                </g>
                <mask id="mask-22" sketch:name="Mask" fill="white">
                    <use xlink:href="#path-21"></use>
                </mask>
                <use id="Mask" stroke="#9B9B9B" stroke-width="2" sketch:type="MSShapeGroup" xlink:href="#path-21"></use>
                <polygon id="Star-5" fill="#9B9B9B" sketch:type="MSShapeGroup" mask="url(#mask-22)" points="12.5921053 21.0423801 10.3345378 22.5701476 9.26132467 20.0643747 6.53616459 20.1290814 6.98804338 17.4408683 4.66050976 16.0219702 6.49401215 14.0048055 5.30308046 11.5527929 7.93608239 10.8471122 8.25986503 8.14048156 10.856407 8.97033349 12.5921053 6.86842105 14.3278035 8.97033349 16.9243455 8.14048156 17.2481281 10.8471122 19.8811301 11.5527929 18.6901984 14.0048055 20.5237008 16.0219702 18.1961671 17.4408683 18.6480459 20.1290814 15.9228859 20.0643747 14.8496727 22.5701476 "></polygon>
                <path d="M55.0446263,-5.47886256 L90.7718185,30.3780068 L89.0714818,15.5567948 L58.6018066,-14.8480417 L55.0446263,-5.47886256 Z" id="Path-291" fill="#9B9B9B" sketch:type="MSShapeGroup" mask="url(#mask-22)"></path>
            </g>
            <g id="Mask-+-Mask-+-Mask-+-Group-+-Group-Copy-2" sketch:type="MSLayerGroup" transform="translate(136.000000, 125.000000)">
                <g id="Mask-+-Mask-+-Mask" stroke="#222222" stroke-width="2" fill="#FFFFFF" sketch:type="MSShapeGroup">
                    <rect id="Mask" x="8" y="8" width="132" height="170" rx="2"></rect>
                    <rect id="Mask" x="4" y="4" width="132" height="170" rx="2"></rect>
                    <rect id="Mask" x="0" y="0" width="132" height="170" rx="2"></rect>
                </g>
                <g id="Group" transform="translate(18.000000, 19.000000)" sketch:type="MSShapeGroup">
                    <rect id="Rectangle-323-Copy-3" fill="#222222" x="0" y="0" width="98" height="4"></rect>
                    <rect id="Rectangle-323-Copy-4" fill="#222222" x="0" y="7" width="98" height="4"></rect>
                    <rect id="Rectangle-323-Copy-5" fill="#222222" x="0" y="14" width="98" height="4"></rect>
                    <rect id="Rectangle-323-Copy-2" fill="#222222" x="0" y="21" width="98" height="4"></rect>
                    <rect id="Rectangle-323-Copy-3" fill="#222222" x="0" y="28" width="98" height="4"></rect>
                    <rect id="Rectangle-323-Copy-4" fill="#222222" x="0" y="35" width="66" height="4"></rect>
                    <rect id="Rectangle-323-Copy-14" fill="#9B9B9B" x="0" y="43" width="37" height="8"></rect>
                    <rect id="Rectangle-323-Copy-15" fill="#2672F2" x="0" y="55" width="37" height="8"></rect>
                </g>
                <g id="Group-Copy" transform="translate(19.000000, 96.000000)" fill="#222222" sketch:type="MSShapeGroup">
                    <rect id="Rectangle-323-Copy-2" x="0" y="7" width="98" height="4"></rect>
                    <rect id="Rectangle-323-Copy-11" x="0" y="0" width="98" height="4"></rect>
                    <rect id="Rectangle-323-Copy-3" x="0" y="14" width="98" height="4"></rect>
                    <rect id="Rectangle-323-Copy-4" x="0" y="21" width="98" height="4"></rect>
                    <rect id="Rectangle-323-Copy-5" x="0" y="28" width="98" height="4"></rect>
                    <rect id="Rectangle-323-Copy-2" x="0" y="35" width="98" height="4"></rect>
                    <rect id="Rectangle-323-Copy-3" x="0" y="42" width="98" height="4"></rect>
                    <rect id="Rectangle-323-Copy-4" x="0" y="49" width="98" height="4"></rect>
                    <rect id="Rectangle-323-Copy-5" x="0" y="56" width="76" height="4"></rect>
                </g>
            </g>
            <path d="M118.589679,365 L106,365" id="Line-Copy-10" stroke="#2672F2" stroke-width="3" stroke-linecap="round" stroke-dasharray="1,5" sketch:type="MSShapeGroup"></path>
            <path d="M309.589679,365 L297,365" id="Line-Copy-11" stroke="#2672F2" stroke-width="3" stroke-linecap="round" stroke-dasharray="1,5" sketch:type="MSShapeGroup"></path>
            <g id="Group" sketch:type="MSLayerGroup" transform="translate(2.000000, 2.000000)">
                <mask id="mask-24" sketch:name="Mask" fill="white">
                    <use xlink:href="#path-23"></use>
                </mask>
                <use id="Mask" stroke="#9B9B9B" stroke-width="2" fill="#FFFFFF" sketch:type="MSShapeGroup" xlink:href="#path-23"></use>
                <rect id="Rectangle-323" fill="#9B9B9B" sketch:type="MSShapeGroup" mask="url(#mask-24)" x="6.31578947" y="6.31578947" width="83.3684211" height="12.6315789"></rect>
                <rect id="Rectangle-323-Copy-6" fill="#9B9B9B" sketch:type="MSShapeGroup" mask="url(#mask-24)" x="6.31578947" y="68.2105263" width="48" height="41.6842105"></rect>
                <g mask="url(#mask-24)" fill="#9B9B9B" sketch:type="MSShapeGroup">
                    <g transform="translate(6.315789, 22.736842)">
                        <rect id="Rectangle-323-Copy-2" x="0" y="0" width="31.5789474" height="5.05263158"></rect>
                        <rect id="Rectangle-323-Copy-3" x="0" y="8.84210526" width="31.5789474" height="5.05263158"></rect>
                        <rect id="Rectangle-323-Copy-4" x="0" y="17.6842105" width="31.5789474" height="5.05263158"></rect>
                        <rect id="Rectangle-323-Copy-5" x="0" y="26.5263158" width="31.5789474" height="5.05263158"></rect>
                    </g>
                </g>
                <path d="M6.94736842,61.2631579 L89.0526316,61.2631579" id="Line" stroke="#9B9B9B" stroke-linecap="square" sketch:type="MSShapeGroup" mask="url(#mask-24)"></path>
                <g id="Group-Copy-2" mask="url(#mask-24)" fill="#9B9B9B" sketch:type="MSShapeGroup">
                    <g transform="translate(58.105263, 68.210526)">
                        <rect id="Rectangle-323-Copy-2" x="0" y="0" width="31.5789474" height="5.05263158"></rect>
                        <rect id="Rectangle-323-Copy-3" x="0" y="8.84210526" width="31.5789474" height="5.05263158"></rect>
                        <rect id="Rectangle-323-Copy-4" x="0" y="17.6842105" width="31.5789474" height="5.05263158"></rect>
                    </g>
                </g>
                <mask id="mask-26" sketch:name="Mask" fill="white">
                    <use xlink:href="#path-25"></use>
                </mask>
                <use id="Mask" fill="#9B9B9B" sketch:type="MSShapeGroup" xlink:href="#path-25"></use>
                <g id="Oval-197-Copy-+-Oval-197-Copy-2-+-Oval-197" mask="url(#mask-26)" stroke="#FFFFFF" fill="#9B9B9B" sketch:type="MSShapeGroup">
                    <g transform="translate(42.947368, 27.789474)">
                        <path d="M12.7933383,15.596335 C14.078541,14.4960758 14.8919668,12.8685637 14.8919668,11.0526316 C14.8919668,7.73892308 12.1833515,5.05263158 8.84210526,5.05263158 C5.50085902,5.05263158 2.79224377,7.73892308 2.79224377,11.0526316 C2.79224377,12.8685637 3.60566954,14.4960758 4.89087224,15.596335 C0,19.1455519 0,29.0526316 0,29.0526316 L17.6842105,29.0526316 C17.6842105,29.0526316 17.6842105,19.1455519 12.7933383,15.596335 Z" id="Oval-197-Copy"></path>
                        <path d="M40.0183501,17.0127872 C41.1199524,16.0283449 41.8171745,14.5721498 41.8171745,12.9473684 C41.8171745,9.98247134 39.4955043,7.57894737 36.6315789,7.57894737 C33.7676536,7.57894737 31.4459834,9.98247134 31.4459834,12.9473684 C31.4459834,14.5721498 32.1432055,16.0283449 33.2448078,17.0127872 C29.0526316,20.1884024 29.0526316,29.0526316 29.0526316,29.0526316 L44.2105263,29.0526316 C44.2105263,29.0526316 44.2105263,20.1884024 40.0183501,17.0127872 Z" id="Oval-197-Copy-2"></path>
                        <path d="M31.2571245,14.4282257 C33.0013282,12.9226079 34.1052632,10.695486 34.1052632,8.21052632 C34.1052632,3.67597784 30.4292853,0 25.8947368,0 C21.3601884,0 17.6842105,3.67597784 17.6842105,8.21052632 C17.6842105,10.695486 18.7881455,12.9226079 20.5323492,14.4282257 C13.8947368,19.2850488 13.8947368,32.8421053 13.8947368,32.8421053 L37.8947368,32.8421053 C37.8947368,32.8421053 37.8947368,19.2850488 31.2571245,14.4282257 Z" id="Oval-197"></path>
                    </g>
                </g>
            </g>
            <g id="Rectangle-368-+-perma-logo-orange-copy-10-+-Rectangle-423-+-perma.cc/NG87-3RTY-Copy" sketch:type="MSLayerGroup" transform="translate(126.000000, 352.000000)">
                <g id="Rectangle-368-+-perma-logo-orange-copy-10" transform="translate(5.963636, 6.133333)" fill="#2D76EE" sketch:type="MSShapeGroup">
                    <path d="M17.8498999,10.3317941 C16.7225064,10.3317941 15.5880976,9.93402364 14.3818856,9.11574163 C13.2159082,8.32678373 12.1194643,7.23640601 11.0589221,6.18193534 C9.90573721,5.03510374 8.71334939,3.84937282 7.479489,3.10350339 C6.71379403,2.64090077 6.02361627,2.41588319 5.36995913,2.41588319 C4.13547975,2.41588319 3.20121221,2.94351749 2.73903039,3.90203651 C2.5378575,4.32254808 2.43077163,4.81986086 2.43077163,5.33791995 C2.43077163,5.75264649 2.49308364,6.13944532 2.61564436,6.48754432 C3.0051976,7.60684718 3.95390832,8.1965209 5.36005523,8.1965209 C6.0085541,8.1965209 6.70615978,7.93559626 7.49248786,7.39878571 C8.01429939,7.0411115 8.59243932,6.55157858 9.3098528,5.85976922 L10.8695101,7.37165593 C10.0516133,8.16041435 9.40352715,8.70640115 8.76823348,9.14187399 C7.59462179,9.9430004 6.48043348,10.3317941 5.36005523,10.3317941 C3.02025978,10.3317941 1.21238608,9.15065128 0.523858966,7.17237175 C0.324130395,6.60583814 0.222202797,5.98743877 0.222202797,5.33791995 C0.222202797,4.500687 0.395108317,3.71492083 0.735967408,3.00256466 C1.57057699,1.27184436 3.25898494,0.280610022 5.36995913,0.280610022 C6.44969013,0.280610022 7.52281854,0.611752909 8.65021205,1.29298963 C10.1106241,2.17590434 11.3977179,3.45579155 12.6425138,4.69338822 C13.6766457,5.72192601 14.6534174,6.69321198 15.649378,7.36706781 C16.472433,7.92542259 17.1919098,8.1965209 17.8498999,8.1965209 C19.2865838,8.1965209 20.2439604,7.60724614 20.6186578,6.49233193 C20.7292513,6.16218646 20.7855797,5.79413909 20.7855797,5.39975988 C20.7855797,4.84180407 20.6716849,4.3149677 20.4562752,3.87590415 C19.9885224,2.92037739 19.0874742,2.41588319 17.8498999,2.41588319 C17.1225825,2.41588319 16.376489,2.6514734 15.5695278,3.13601923 C15.0617468,3.44162821 14.5199211,3.85196611 13.9139265,4.39017305 C13.8751362,4.42468372 13.837584,4.45839646 13.7998254,4.49230868 L12.2927825,2.93134899 C12.3352867,2.89304812 12.3779973,2.85474726 12.4207078,2.81704485 C13.1280111,2.1886713 13.7769226,1.69973683 14.4035504,1.3227127 C15.5713848,0.621328125 16.698572,0.280610022 17.8498999,0.280610022 C19.9406536,0.280610022 21.618126,1.25768102 22.4521166,2.96167051 C22.8065935,3.68420035 22.9941486,4.52741781 22.9941486,5.39975988 C22.9941486,6.0175608 22.9017122,6.60683555 22.7195218,7.151027 C22.0499771,9.14327038 20.2297236,10.3317941 17.8498999,10.3317941" id="perma-logo-orange-copy-8"></path>
                </g>
                <rect id="Rectangle-423" stroke="#2672F2" stroke-width="2" sketch:type="MSShapeGroup" x="0" y="0" width="164" height="23" rx="3"></rect>
                <path d="M39.4021648,11.9763216 C39.4021648,13.0362136 39.1681352,13.8817921 38.7000689,14.5130824 C38.2320027,15.1443726 37.6038179,15.460013 36.8154958,15.460013 C36.0846555,15.460013 35.4995814,15.2129901 35.060256,14.7189368 L35.060256,17.9682708 L33.5636832,17.9682708 L33.5636832,8.47996221 L34.9432401,8.47996221 L35.0048274,9.17670049 C35.4441528,8.62775243 36.0415442,8.35328252 36.7970195,8.35328252 C37.6099767,8.35328252 38.2473995,8.66470031 38.709307,9.28754522 C39.1712145,9.91039013 39.4021648,10.7749704 39.4021648,11.8813118 L39.4021648,11.9763216 Z M37.9117507,11.8433079 C37.9117507,11.1592342 37.7793392,10.6166283 37.5145123,10.2154739 C37.2496853,9.81431958 36.8709268,9.61374542 36.3782255,9.61374542 C35.7664547,9.61374542 35.3271359,9.87343618 35.060256,10.3928255 L35.060256,13.433138 C35.3312418,13.9651954 35.7746663,14.23122 36.390543,14.23122 C36.8668209,14.23122 37.2394207,14.0338128 37.5083535,13.6389925 C37.7772863,13.2441722 37.9117507,12.6456166 37.9117507,11.8433079 L37.9117507,11.8433079 Z M43.6024226,15.460013 C42.6539726,15.460013 41.8851647,15.1528178 41.2959761,14.5384183 C40.7067874,13.9240187 40.4121975,13.1058873 40.4121975,12.0839993 L40.4121975,11.8939798 C40.4121975,11.2099061 40.5405032,10.5986827 40.7971185,10.0602913 C41.0537337,9.52189995 41.4140162,9.10280551 41.8779766,8.80299541 C42.341937,8.50318532 42.8592657,8.35328252 43.429978,8.35328252 C44.3373696,8.35328252 45.0384321,8.65097681 45.5331863,9.24637432 C46.0279406,9.84177183 46.275314,10.6841833 46.275314,11.7736341 L46.275314,12.3943646 L41.9210878,12.3943646 C41.966252,12.9602033 42.1499858,13.4078004 42.4722946,13.7371693 C42.7946034,14.0665381 43.2000495,14.23122 43.6886449,14.23122 C44.374321,14.23122 44.9327074,13.9461936 45.3638211,13.3761322 L46.1706155,14.1678802 C45.9037356,14.5774799 45.5475589,14.8952316 45.1020748,15.1211449 C44.6565907,15.3470581 44.1567116,15.460013 43.6024226,15.460013 L43.6024226,15.460013 Z M43.4238193,9.58840948 C43.0132349,9.58840948 42.6816929,9.73620097 42.4291835,10.0317884 C42.176674,10.3273758 42.0155221,10.7390807 41.9457227,11.2669153 L44.7972174,11.2669153 L44.7972174,11.1529036 C44.7643706,10.637737 44.6309327,10.2482008 44.3968996,9.9842835 C44.1628664,9.72036617 43.8385096,9.58840948 43.4238193,9.58840948 L43.4238193,9.58840948 Z M50.9251595,9.88610675 C50.728079,9.85232533 50.5248427,9.83543487 50.3154447,9.83543487 C49.6297687,9.83543487 49.1678681,10.1056822 48.9297291,10.6461849 L48.9297291,15.3333333 L47.4331563,15.3333333 L47.4331563,8.47996221 L48.861983,8.47996221 L48.8989354,9.24637432 C49.2602498,8.65097681 49.7611553,8.35328252 50.401667,8.35328252 C50.6151709,8.35328252 50.7917196,8.38284082 50.9313183,8.4419583 L50.9251595,9.88610675 Z M53.2777966,8.47996221 L53.3209078,9.19570245 C53.788974,8.63408635 54.4294761,8.35328252 55.2424333,8.35328252 C56.1334016,8.35328252 56.7431103,8.70375949 57.0715779,9.40472393 C57.5560675,8.70375949 58.2376275,8.35328252 59.1162782,8.35328252 C59.8512243,8.35328252 60.3983199,8.56230192 60.7575813,8.98034698 C61.1168427,9.39839204 61.3005764,10.0148937 61.3087881,10.8298704 L61.3087881,15.3333333 L59.8122153,15.3333333 L59.8122153,10.8742083 C59.8122153,10.4392725 59.7198352,10.1204652 59.5350722,9.91777667 C59.3503092,9.71508815 59.0444284,9.61374542 58.6174206,9.61374542 C58.2766355,9.61374542 57.9984687,9.70769858 57.7829119,9.89560772 C57.567355,10.0835169 57.4164675,10.3294841 57.3302448,10.6335169 L57.3364035,15.3333333 L55.8398307,15.3333333 L55.8398307,10.8235364 C55.8193015,10.0170051 55.4189877,9.61374542 54.6388772,9.61374542 C54.0394239,9.61374542 53.6144754,9.86499095 53.3640189,10.3674896 L53.3640189,15.3333333 L51.8674461,15.3333333 L51.8674461,8.47996221 L53.2777966,8.47996221 Z M66.8270154,15.3333333 C66.7613219,15.2024303 66.703841,14.9891883 66.6545708,14.6936009 C66.1782929,15.2045449 65.5952717,15.460013 64.9054898,15.460013 C64.2362372,15.460013 63.6901681,15.2636615 63.2672661,14.8709525 C62.8443641,14.4782435 62.6329163,13.9926429 62.6329163,13.4141361 C62.6329163,12.6836129 62.8967129,12.1230609 63.4243139,11.7324632 C63.9519149,11.3418655 64.7063525,11.1465696 65.6876493,11.1465696 L66.6053009,11.1465696 L66.6053009,10.6968567 C66.6053009,10.3421518 66.508815,10.0581811 66.3158403,9.84493585 C66.1228657,9.63169064 65.8293022,9.52506964 65.4351411,9.52506964 C65.094356,9.52506964 64.8151628,9.61268888 64.5975531,9.78792999 C64.3799433,9.9631711 64.2711401,10.185914 64.2711401,10.4561653 L62.7745673,10.4561653 C62.7745673,10.0803471 62.8956878,9.72881444 63.1379327,9.40155694 C63.3801775,9.07429944 63.7096666,8.81777564 64.1264098,8.63197783 C64.543153,8.44618003 65.0081329,8.35328252 65.5213634,8.35328252 C66.3014739,8.35328252 66.9235,8.55491234 67.3874604,8.95817803 C67.8514208,9.36144372 68.0895562,9.92832966 68.1018737,10.6588528 L68.1018737,13.7498372 C68.1018737,14.3663481 68.1860423,14.8582827 68.3543819,15.2256556 L68.3543819,15.3333333 L66.8270154,15.3333333 Z M65.182633,14.2248861 C65.4782538,14.2248861 65.7564205,14.1509903 66.0171417,14.0031966 C66.2778628,13.8554029 66.4739139,13.65694 66.6053009,13.4078021 L66.6053009,12.1156693 L65.7985065,12.1156693 C65.2442175,12.1156693 64.8274806,12.2149007 64.5482832,12.4133665 C64.2690857,12.6118324 64.1294891,12.8926362 64.1294891,13.2557864 C64.1294891,13.5513739 64.2249486,13.7867846 64.4158703,13.9620257 C64.6067921,14.1372668 64.8623771,14.2248861 65.182633,14.2248861 L65.182633,14.2248861 Z M70.6023205,13.7118333 C70.8815179,13.7118333 71.0970715,13.7931186 71.2489877,13.9556917 C71.400904,14.1182648 71.476861,14.3220059 71.476861,14.5669212 C71.476861,14.8076138 71.400904,15.0071323 71.2489877,15.1654827 C71.0970715,15.3238331 70.8815179,15.4030072 70.6023205,15.4030072 C70.3354406,15.4030072 70.1239928,15.3248888 69.9679707,15.1686497 C69.8119486,15.0124107 69.7339387,14.8118365 69.7339387,14.5669212 C69.7339387,14.3220059 69.8098957,14.1182648 69.961812,13.9556917 C70.1137282,13.7931186 70.3272289,13.7118333 70.6023205,13.7118333 L70.6023205,13.7118333 Z M75.929627,14.23122 C76.3032588,14.23122 76.6132454,14.1193208 76.8595961,13.8955189 C77.1059467,13.671717 77.2373318,13.3951358 77.2537552,13.0657669 L78.6641057,13.0657669 C78.6476823,13.4922573 78.5183501,13.8902387 78.2761053,14.259723 C78.0338605,14.6292072 77.7053979,14.9216233 77.2907076,15.1369798 C76.8760173,15.3523364 76.428487,15.460013 75.9481032,15.460013 C75.0160765,15.460013 74.2770356,15.1496509 73.7309583,14.5289173 C73.184881,13.9081837 72.9118464,13.0509931 72.9118464,11.9573196 L72.9118464,11.79897 C72.9118464,10.7559687 73.1828281,9.9209468 73.7247995,9.2938792 C74.266771,8.66681161 75.0058119,8.35328252 75.9419444,8.35328252 C76.7343724,8.35328252 77.3800068,8.59080456 77.8788669,9.06585577 C78.377727,9.54090697 78.6394706,10.1647982 78.6641057,10.9375482 L77.2537552,10.9375482 C77.2373318,10.5448392 77.1069732,10.2218092 76.8626754,9.96844854 C76.6183777,9.7150879 76.3073647,9.58840948 75.929627,9.58840948 C75.4451373,9.58840948 75.0715111,9.76892623 74.8087371,10.1299651 C74.545963,10.4910041 74.4125251,11.0388882 74.4084192,11.7736341 L74.4084192,12.0206595 C74.4084192,12.7638507 74.5387778,13.3180688 74.7994989,13.6833304 C75.0602201,14.048592 75.4369256,14.23122 75.929627,14.23122 L75.929627,14.23122 Z M82.5317918,14.23122 C82.9054236,14.23122 83.2154102,14.1193208 83.4617609,13.8955189 C83.7081115,13.671717 83.8394966,13.3951358 83.85592,13.0657669 L85.2662705,13.0657669 C85.2498471,13.4922573 85.1205149,13.8902387 84.8782701,14.259723 C84.6360253,14.6292072 84.3075627,14.9216233 83.8928724,15.1369798 C83.4781821,15.3523364 83.0306518,15.460013 82.550268,15.460013 C81.6182413,15.460013 80.8792004,15.1496509 80.3331231,14.5289173 C79.7870458,13.9081837 79.5140112,13.0509931 79.5140112,11.9573196 L79.5140112,11.79897 C79.5140112,10.7559687 79.7849929,9.9209468 80.3269643,9.2938792 C80.8689358,8.66681161 81.6079767,8.35328252 82.5441092,8.35328252 C83.3365372,8.35328252 83.9821716,8.59080456 84.4810317,9.06585577 C84.9798918,9.54090697 85.2416354,10.1647982 85.2662705,10.9375482 L83.85592,10.9375482 C83.8394966,10.5448392 83.709138,10.2218092 83.4648402,9.96844854 C83.2205425,9.7150879 82.9095295,9.58840948 82.5317918,9.58840948 C82.0473021,9.58840948 81.6736759,9.76892623 81.4109019,10.1299651 C81.1481278,10.4910041 81.0146899,11.0388882 81.010584,11.7736341 L81.010584,12.0206595 C81.010584,12.7638507 81.1409426,13.3180688 81.4016637,13.6833304 C81.6623849,14.048592 82.0390904,14.23122 82.5317918,14.23122 L82.5317918,14.23122 Z M86.8182719,16.1250814 L85.6419534,16.1250814 L89.170909,6.11105204 L90.3472275,6.11105204 L86.8182719,16.1250814 Z M98.6430447,15.3333333 L97.0848845,15.3333333 L93.087865,8.79032744 L93.087865,15.3333333 L91.5297048,15.3333333 L91.5297048,6.11105204 L93.087865,6.11105204 L97.097202,12.6793939 L97.097202,6.11105204 L98.6430447,6.11105204 L98.6430447,15.3333333 Z M107.357656,14.1362103 C107.033294,14.5711461 106.583711,14.9005099 106.008893,15.1243118 C105.434075,15.3481137 104.781255,15.460013 104.050415,15.460013 C103.299045,15.460013 102.633908,15.2847745 102.054984,14.9342923 C101.47606,14.5838101 101.029556,14.0823747 100.715459,13.429971 C100.401362,12.7775674 100.238157,12.0164412 100.22584,11.1465696 L100.22584,10.4244954 C100.22584,9.03101188 100.550197,7.94263311 101.19892,7.15932646 C101.847643,6.37601981 102.752969,5.98437235 103.914923,5.98437235 C104.912643,5.98437235 105.705059,6.2377292 106.292195,6.74445048 C106.87933,7.25117177 107.232428,7.981684 107.351497,8.93600909 L105.824131,8.93600909 C105.651685,7.82544493 105.025553,7.27017119 103.945716,7.27017119 C103.247723,7.27017119 102.71705,7.5288063 102.353683,8.04608428 C101.990316,8.56336226 101.802476,9.32237713 101.790159,10.3231517 L101.790159,11.0325579 C101.790159,12.0291098 101.994421,12.8029038 102.402953,13.3539632 C102.811484,13.9050226 103.379109,14.1805482 104.105843,14.1805482 C104.902377,14.1805482 105.468975,13.9947532 105.805654,13.6231575 L105.805654,11.817972 L103.958034,11.817972 L103.958034,10.601847 L107.357656,10.601847 L107.357656,14.1362103 Z M114.477154,8.54330205 C114.477154,8.99512853 114.364245,9.39733252 114.138424,9.74992608 C113.912603,10.1025196 113.604669,10.3801565 113.214614,10.582845 C113.68268,10.8066469 114.042962,11.1127865 114.295472,11.5012728 C114.547981,11.8897591 114.674234,12.3289109 114.674234,12.8187415 C114.674234,13.6294956 114.407358,14.2723886 113.873598,14.7474398 C113.339839,15.222491 112.629538,15.460013 111.742676,15.460013 C110.851708,15.460013 110.138328,15.2214353 109.602515,14.7442728 C109.066702,14.2671102 108.7988,13.6252729 108.7988,12.8187415 C108.7988,12.3246883 108.926079,11.8813138 109.180642,11.4886048 C109.435204,11.0958958 109.792407,10.7939789 110.252262,10.582845 C109.866312,10.3801565 109.561458,10.1025196 109.337689,9.74992608 C109.113921,9.39733252 109.002038,8.99512853 109.002038,8.54330205 C109.002038,7.75788406 109.248385,7.13504849 109.741087,6.67477665 C110.233788,6.21450482 110.898925,5.98437235 111.736517,5.98437235 C112.578215,5.98437235 113.245405,6.21450482 113.738106,6.67477665 C114.230808,7.13504849 114.477154,7.75788406 114.477154,8.54330205 L114.477154,8.54330205 Z M113.177661,12.7427337 C113.177661,12.2866846 113.04525,11.9182615 112.780423,11.6374534 C112.515596,11.3566454 112.165578,11.2162435 111.730358,11.2162435 C111.295139,11.2162435 110.947174,11.3555897 110.686453,11.6342864 C110.425731,11.9129831 110.295373,12.2824619 110.295373,12.7427337 C110.295373,13.1945602 110.423679,13.5555937 110.680294,13.825845 C110.936909,14.0960964 111.291033,14.23122 111.742676,14.23122 C112.194319,14.23122 112.54639,14.100319 112.798899,13.838513 C113.051408,13.576707 113.177661,13.2114509 113.177661,12.7427337 L113.177661,12.7427337 Z M112.98674,8.60030791 C112.98674,8.19915356 112.873831,7.86873401 112.64801,7.60903935 C112.422189,7.34934469 112.118361,7.21949931 111.736517,7.21949931 C111.354674,7.21949931 111.052898,7.34301077 110.831183,7.5900374 C110.609467,7.83706403 110.498611,8.1738175 110.498611,8.60030791 C110.498611,9.02257565 110.610494,9.35827347 110.834262,9.60741143 C111.058031,9.8565494 111.360832,9.98111651 111.742676,9.98111651 C112.124519,9.98111651 112.427321,9.8565494 112.651089,9.60741143 C112.874858,9.35827347 112.98674,9.02257565 112.98674,8.60030791 L112.98674,8.60030791 Z M121.966177,6.96613994 L118.381793,15.3333333 L116.811315,15.3333333 L120.389541,7.346179 L115.752013,7.346179 L115.752013,6.11105204 L121.966177,6.11105204 L121.966177,6.96613994 Z M126.166435,12.0333275 L122.933099,12.0333275 L122.933099,10.7918665 L126.166435,10.7918665 L126.166435,12.0333275 Z M129.036406,10.0191204 L129.947899,10.0191204 C130.407753,10.0148977 130.772142,9.89244193 131.041074,9.65174932 C131.310007,9.41105671 131.444472,9.06269105 131.444472,8.6066419 C131.444472,8.16748345 131.332589,7.82650737 131.108821,7.58370342 C130.885052,7.34089947 130.543246,7.21949931 130.083391,7.21949931 C129.681018,7.21949931 129.350503,7.33878816 129.091835,7.57736943 C128.833166,7.8159507 128.703834,8.12736849 128.703834,8.51163213 L127.207261,8.51163213 C127.207261,8.03869226 127.329408,7.60798563 127.573706,7.21949931 C127.818004,6.83101299 128.158784,6.52804044 128.596056,6.31057255 C129.033329,6.09310467 129.522943,5.98437235 130.064915,5.98437235 C130.959989,5.98437235 131.663104,6.21556047 132.174282,6.67794365 C132.68546,7.14032682 132.941044,7.78321981 132.941044,8.6066419 C132.941044,9.02046428 132.812739,9.41000043 132.556123,9.77526202 C132.299508,10.1405236 131.967966,10.4160492 131.561488,10.601847 C132.054189,10.7749768 132.428842,11.0473354 132.685457,11.418931 C132.942072,11.7905266 133.070378,12.2339011 133.070378,12.7490677 C133.070378,13.5767125 132.794264,14.2354403 132.242028,14.7252708 C131.689792,15.2151014 130.964095,15.460013 130.064915,15.460013 C129.202688,15.460013 128.496493,15.2235466 127.94631,14.7506068 C127.396127,14.2776669 127.121039,13.6484974 127.121039,12.8630794 L128.617612,12.8630794 C128.617612,13.2684564 128.750023,13.5978203 129.01485,13.851181 C129.279677,14.1045416 129.635854,14.23122 130.083391,14.23122 C130.547351,14.23122 130.912766,14.1045416 131.179646,13.851181 C131.446526,13.5978203 131.579964,13.2304529 131.579964,12.7490677 C131.579964,12.2634598 131.440367,11.8897585 131.16117,11.6279525 C130.881972,11.3661465 130.467288,11.2352454 129.917105,11.2352454 L129.036406,11.2352454 L129.036406,10.0191204 Z M138.009684,11.7799681 L136.272921,11.7799681 L136.272921,15.3333333 L134.71476,15.3333333 L134.71476,6.11105204 L137.868033,6.11105204 C138.902706,6.11105204 139.701281,6.34962974 140.263781,6.82679228 C140.826282,7.30395482 141.107528,7.99435222 141.107528,8.89800518 C141.107528,9.51451608 140.962799,10.0307306 140.673337,10.4466644 C140.383875,10.8625981 139.980482,11.1824611 139.463146,11.406263 L141.477052,15.2509915 L141.477052,15.3333333 L139.808035,15.3333333 L138.009684,11.7799681 Z M136.272921,10.4941692 L137.874192,10.4941692 C138.39974,10.4941692 138.810318,10.3579899 139.105939,10.0856273 C139.40156,9.81326456 139.549368,9.44061887 139.549368,8.96767901 C139.549368,8.47362575 139.412851,8.09147918 139.139812,7.82122783 C138.866773,7.55097648 138.459274,7.41163021 137.917303,7.40318486 L136.272921,7.40318486 L136.272921,10.4941692 Z M148.756678,7.40318486 L145.960612,7.40318486 L145.960612,15.3333333 L144.414769,15.3333333 L144.414769,7.40318486 L141.643338,7.40318486 L141.643338,6.11105204 L148.756678,6.11105204 L148.756678,7.40318486 Z M152.956936,10.4815013 L155.020112,6.11105204 L156.744558,6.11105204 L153.739095,11.9383177 L153.739095,15.3333333 L152.174776,15.3333333 L152.174776,11.9383177 L149.163155,6.11105204 L150.893759,6.11105204 L152.956936,10.4815013 Z" id="perma.cc/NG87-3RTY" fill="#2672F2" sketch:type="MSShapeGroup"></path>
            </g>
            <path d="M183.294922,191.009766 L35.7935355,191.009766 L35.7935355,72.5984837" id="Path-260" stroke="#9B9B9B" stroke-width="2" sketch:type="MSShapeGroup"></path>
            <path d="M167.501386,315.710938 L36,315.710938 L36,203" id="Path-260-Copy" stroke="#2672F2" stroke-width="2" sketch:type="MSShapeGroup" transform="translate(101.750693, 259.355469) scale(1, -1) translate(-101.750693, -259.355469) "></path>
        </g>
    </g>
</svg>