<?xml version="1.0" encoding="UTF-8" standalone="no"?>
<svg width="18px" height="19px" viewBox="0 0 18 19" version="1.1" xmlns="http://www.w3.org/2000/svg" xmlns:xlink="http://www.w3.org/1999/xlink" xmlns:sketch="http://www.bohemiancoding.com/sketch/ns">
    <!-- Generator: Sketch 3.3.3 (12072) - http://www.bohemiancoding.com/sketch -->
    <title>Rectangle 328 + Rectangle 328 Copy</title>
    <desc>Created with Sketch.</desc>
    <defs></defs>
    <g id="Page-1" stroke="none" stroke-width="1" fill="none" fill-rule="evenodd" sketch:type="MSPage">
        <g id="-perma-create-private" sketch:type="MSArtboardGroup" transform="translate(-151.000000, -443.000000)" stroke="#000000" fill="#2D76EE">
            <g id="Rectangle-328-+-Rectangle-328-Copy" sketch:type="MSLayerGroup" transform="translate(151.000000, 443.000000)">
                <path d="M4.31133475,9.38262743 C3.95621843,9.59556585 3.57742693,9.84580115 3.16666667,10.1333333 C-1.89848137e-14,12.35 0.633333333,19 0.633333333,19 L13.3,19 C13.3,19 13.9333333,12.35 10.7666667,10.1333333 C10.3559064,9.84580115 9.9771149,9.59556585 9.62199858,9.38262743 C11.0688964,8.49054744 12.0333333,6.89123521 12.0333333,5.06666667 C12.0333333,2.26842393 9.7649094,0 6.96666667,0 C4.16842393,0 1.9,2.26842393 1.9,5.06666667 C1.9,6.89123521 2.86443689,8.49054744 4.31133475,9.38262743 Z" id="Rectangle-328" sketch:type="MSShapeGroup"></path>
                <path d="M8.16303543,9.38262743 C7.80791911,9.59556585 7.42912761,9.84580115 7.01836735,10.1333333 C3.85170068,12.35 4.48503401,19 4.48503401,19 L17.1517007,19 C17.1517007,19 17.785034,12.35 14.6183673,10.1333333 C14.2076071,9.84580115 13.8288156,9.59556585 13.4736993,9.38262743 C14.9205971,8.49054744 15.885034,6.89123521 15.885034,5.06666667 C15.885034,2.26842393 13.6166101,0 10.8183673,0 C8.02012461,0 5.75170068,2.26842393 5.75170068,5.06666667 C5.75170068,6.89123521 6.71613758,8.49054744 8.16303543,9.38262743 Z" id="Rectangle-328-Copy" sketch:type="MSShapeGroup"></path>
            </g>
        </g>
    </g>
</svg>