<svg id="Layer_1" data-name="Layer 1" xmlns="http://www.w3.org/2000/svg" viewBox="0 0 19 19"><defs><style>.cls-1{fill:#fff;}</style></defs><path class="cls-1" d="M9.09,1.25H9A8.26,8.26,0,0,0,.75,9.5v.09A8.26,8.26,0,0,0,9,17.75h.09a8.26,8.26,0,0,0,8.16-8.16V9.5A8.26,8.26,0,0,0,9.09,1.25ZM10.3,14.19a1.3,1.3,0,0,1-2.6,0V8.27a1.3,1.3,0,0,1,2.6,0ZM9.93,5.73a1.33,1.33,0,0,1-1.86,0l-.16-.2A1.63,1.63,0,0,1,7.8,5.3a.61.61,0,0,1-.07-.24.72.72,0,0,1,0-.25,1.32,1.32,0,0,1,.1-.51,1.46,1.46,0,0,1,.27-.41,1.36,1.36,0,0,1,1.86,0l.16.19a2.26,2.26,0,0,1,.11.22,1.28,1.28,0,0,1-.27,1.43Z"/></svg>